<svg width="163" height="97" viewBox="0 0 163 97" fill="none" xmlns="http://www.w3.org/2000/svg">
<path d="M1.12 56V41.6H4.02L12.86 52.12V41.6H15.52V56H12.62L3.76 45.46V56H1.12ZM17.8006 56V41.6H31.0606V44.26H20.4606V47.46H28.9806V50.14H20.4606V53.34H31.0606V56H17.8006ZM35.8131 56C35.3065 56 34.8398 55.8733 34.4131 55.62C33.9998 55.3667 33.6665 55.0333 33.4131 54.62C33.1598 54.1933 33.0331 53.7267 33.0331 53.22V41.6H35.6731V53.1C35.6731 53.1667 35.6931 53.2267 35.7331 53.28C35.7865 53.32 35.8465 53.34 35.9131 53.34H44.5131C44.5798 53.34 44.6398 53.32 44.6931 53.28C44.7465 53.2267 44.7731 53.1667 44.7731 53.1V41.6H47.4331V53.22C47.4331 53.7267 47.3065 54.1933 47.0531 54.62C46.7998 55.0333 46.4598 55.3667 46.0331 55.62C45.6198 55.8733 45.1598 56 44.6531 56H35.8131ZM61.1156 56L56.7756 50.82H60.2356L63.9956 55.26V56H61.1156ZM49.6356 56V41.62H61.2356C61.7423 41.62 62.209 41.7467 62.6356 42C63.0623 42.2533 63.4023 42.5933 63.6556 43.02C63.909 43.4333 64.0356 43.8933 64.0356 44.4V48.28C64.0356 48.7867 63.909 49.2533 63.6556 49.68C63.4023 50.1067 63.0623 50.4467 62.6356 50.7C62.209 50.94 61.7423 51.06 61.2356 51.06L52.2756 51.08V56H49.6356ZM52.5156 48.4H61.1156C61.1823 48.4 61.2423 48.38 61.2956 48.34C61.349 48.3 61.3756 48.2467 61.3756 48.18V44.5C61.3756 44.4333 61.349 44.38 61.2956 44.34C61.2423 44.2867 61.1823 44.26 61.1156 44.26H52.5156C52.449 44.26 52.389 44.2867 52.3356 44.34C52.2956 44.38 52.2756 44.4333 52.2756 44.5V48.18C52.2756 48.2467 52.2956 48.3 52.3356 48.34C52.389 48.38 52.449 48.4 52.5156 48.4ZM68.8795 56C68.3729 56 67.9062 55.8733 67.4795 55.62C67.0662 55.3667 66.7329 55.0333 66.4795 54.62C66.2262 54.1933 66.0995 53.7267 66.0995 53.22V44.38C66.0995 43.8733 66.2262 43.4133 66.4795 43C66.7329 42.5733 67.0662 42.2333 67.4795 41.98C67.9062 41.7267 68.3729 41.6 68.8795 41.6H77.7195C78.2262 41.6 78.6862 41.7267 79.0995 41.98C79.5262 42.2333 79.8662 42.5733 80.1195 43C80.3729 43.4133 80.4995 43.8733 80.4995 44.38V53.22C80.4995 53.7267 80.3729 54.1933 80.1195 54.62C79.8662 55.0333 79.5262 55.3667 79.0995 55.62C78.6862 55.8733 78.2262 56 77.7195 56H68.8795ZM68.9795 53.34H77.5795C77.6462 53.34 77.7062 53.32 77.7595 53.28C77.8129 53.2267 77.8395 53.1667 77.8395 53.1V44.5C77.8395 44.4333 77.8129 44.38 77.7595 44.34C77.7062 44.2867 77.6462 44.26 77.5795 44.26H68.9795C68.9129 44.26 68.8529 44.2867 68.7995 44.34C68.7595 44.38 68.7395 44.4333 68.7395 44.5V53.1C68.7395 53.1667 68.7595 53.2267 68.7995 53.28C68.8529 53.32 68.9129 53.34 68.9795 53.34ZM82.722 56V41.58H85.362V53.34H97.122V56H82.722ZM98.328 56V41.6H111.588V44.26H100.988V47.46H109.508V50.14H100.988V53.34H111.588V56H98.328ZM113.64 56V44.38C113.64 43.8733 113.767 43.4133 114.02 43C114.274 42.5733 114.607 42.2333 115.02 41.98C115.447 41.7267 115.914 41.6 116.42 41.6H125.24C125.747 41.6 126.214 41.7267 126.64 41.98C127.067 42.2333 127.407 42.5733 127.66 43C127.914 43.4133 128.04 43.8733 128.04 44.38V56H125.38V51.16H116.28V56H113.64ZM116.28 48.52H125.38V44.5C125.38 44.4333 125.354 44.38 125.3 44.34C125.247 44.2867 125.187 44.26 125.12 44.26H116.52C116.454 44.26 116.394 44.2867 116.34 44.34C116.3 44.38 116.28 44.4333 116.28 44.5V48.52ZM141.799 56L137.459 50.82H140.919L144.679 55.26V56H141.799ZM130.319 56V41.62H141.919C142.426 41.62 142.893 41.7467 143.319 42C143.746 42.2533 144.086 42.5933 144.339 43.02C144.593 43.4333 144.719 43.8933 144.719 44.4V48.28C144.719 48.7867 144.593 49.2533 144.339 49.68C144.086 50.1067 143.746 50.4467 143.319 50.7C142.893 50.94 142.426 51.06 141.919 51.06L132.959 51.08V56H130.319ZM133.199 48.4H141.799C141.866 48.4 141.926 48.38 141.979 48.34C142.033 48.3 142.059 48.2467 142.059 48.18V44.5C142.059 44.4333 142.033 44.38 141.979 44.34C141.926 44.2867 141.866 44.26 141.799 44.26H133.199C133.133 44.26 133.073 44.2867 133.019 44.34C132.979 44.38 132.959 44.4333 132.959 44.5V48.18C132.959 48.2467 132.979 48.3 133.019 48.34C133.073 48.38 133.133 48.4 133.199 48.4ZM146.823 56V41.6H149.723L158.563 52.12V41.6H161.223V56H158.323L149.463 45.46V56H146.823Z" fill="url(#paint0_linear_91_950)"/>
<path d="M37.9992 78.9995L23.9993 64.9996H43.9992L37.9992 78.9995ZM37.9992 78.9995L45.9991 82.9995M37.9992 78.9995L55.9991 72.9996M45.9991 82.9995L65.4845 90.7936M45.9991 82.9995L55.9991 72.9996M45.9991 82.9995H58.4835M65.999 90.9995L83.9989 92.9995M65.999 90.9995L65.4845 90.7936M65.999 90.9995L75.999 78.9995M83.9989 92.9995L75.999 78.9995M83.9989 92.9995L91.9989 76.9995M83.9989 92.9995L101.999 90.9995M101.999 90.9995L123.999 82.9995M101.999 90.9995L75.999 78.9995M101.999 90.9995L91.9989 76.9995M101.999 90.9995L105.999 82.9995M123.999 82.9995L141.999 64.9996H125.999L117.999 68.9996L109.999 72.9996M123.999 82.9995L109.999 72.9996M123.999 82.9995H105.999M82.8368 64.9996L109.999 72.9996M82.8368 64.9996L91.9989 76.9995M82.8368 64.9996L75.999 78.9995M82.8368 64.9996L55.9991 72.9996M55.9991 72.9996L75.999 78.9995M55.9991 72.9996L58.4835 82.9995M65.4845 90.7936L58.4835 82.9995M75.999 78.9995L91.9989 76.9995M75.999 78.9995L58.4835 82.9995M91.9989 76.9995L105.999 82.9995M91.9989 76.9995L109.999 72.9996M109.999 72.9996L105.999 82.9995" stroke="url(#paint1_linear_91_950)" stroke-width="0.1"/>
<circle cx="3.99998" cy="3.99998" r="3.49998" transform="matrix(1 0 0 -1 20 68.9999)" fill="url(#paint2_linear_91_950)" stroke="url(#paint3_linear_91_950)"/>
<circle cx="2.99998" cy="2.99998" r="2.49998" transform="matrix(1 0 0 -1 64 92.9996)" fill="url(#paint4_linear_91_950)" stroke="url(#paint5_linear_91_950)"/>
<circle cx="2.99998" cy="2.99998" r="2.49998" transform="matrix(1 0 0 -1 120 85.0003)" fill="url(#paint6_linear_91_950)" stroke="url(#paint7_linear_91_950)"/>
<circle cx="1.99999" cy="1.99999" r="1.49999" transform="matrix(1 0 0 -1 35.9998 80.9997)" fill="url(#paint8_linear_91_950)" stroke="url(#paint9_linear_91_950)"/>
<circle cx="1.99999" cy="1.99999" r="1.49999" transform="matrix(1 0 0 -1 73.9998 80.9998)" fill="url(#paint10_linear_91_950)" stroke="url(#paint11_linear_91_950)"/>
<circle cx="1.99999" cy="1.99999" r="1.49999" transform="matrix(1 0 0 -1 104 85.0003)" fill="url(#paint12_linear_91_950)" stroke="url(#paint13_linear_91_950)"/>
<circle cx="3.99998" cy="3.99998" r="3.49998" transform="matrix(1 0 0 -1 105.199 77.0004)" fill="url(#paint14_linear_91_950)" stroke="url(#paint15_linear_91_950)"/>
<circle cx="3.99998" cy="3.99998" r="3.49998" transform="matrix(1 0 0 -1 88.001 80.9998)" fill="url(#paint16_linear_91_950)" stroke="url(#paint17_linear_91_950)"/>
<circle cx="3.99998" cy="3.99998" r="3.49998" transform="matrix(1 0 0 -1 40.0002 68.9999)" fill="url(#paint18_linear_91_950)" stroke="url(#paint19_linear_91_950)"/>
<circle cx="1.99999" cy="1.99999" r="1.49999" transform="matrix(1 0 0 -1 43.9995 85.0002)" fill="url(#paint20_linear_91_950)" stroke="url(#paint21_linear_91_950)"/>
<circle cx="2.49999" cy="2.49999" r="1.99999" transform="matrix(1 0 0 -1 56 85.0002)" fill="url(#paint22_linear_91_950)" stroke="url(#paint23_linear_91_950)"/>
<circle cx="2.99998" cy="2.99998" r="2.49998" transform="matrix(1 0 0 -1 80 68.9999)" fill="url(#paint24_linear_91_950)" stroke="url(#paint25_linear_91_950)"/>
<circle cx="3.99998" cy="3.99998" r="3.49998" transform="matrix(1 0 0 -1 52.0007 77.0004)" fill="url(#paint26_linear_91_950)" stroke="url(#paint27_linear_91_950)"/>
<circle cx="1.99999" cy="1.99999" r="1.49999" transform="matrix(1 0 0 -1 100 92.9996)" fill="url(#paint28_linear_91_950)" stroke="url(#paint29_linear_91_950)"/>
<circle cx="2.99998" cy="2.99998" r="2.49998" transform="matrix(1 0 0 -1 140 68.9999)" fill="url(#paint30_linear_91_950)" stroke="url(#paint31_linear_91_950)"/>
<circle cx="3.99998" cy="3.99998" r="3.49998" transform="matrix(1 0 0 -1 80 97.0002)" fill="url(#paint32_linear_91_950)" stroke="url(#paint33_linear_91_950)"/>
<path d="M37.9992 18.0005L23.9993 32.0004H43.9992L37.9992 18.0005ZM37.9992 18.0005L45.9991 14.0005M37.9992 18.0005L55.9991 24.0004M45.9991 14.0005L65.4845 6.20635M45.9991 14.0005L55.9991 24.0004M45.9991 14.0005H58.4835M65.999 6.00054L83.9989 4.00055M65.999 6.00054L65.4845 6.20635M65.999 6.00054L75.999 18.0005M83.9989 4.00055L75.999 18.0005M83.9989 4.00055L91.9989 20.0005M83.9989 4.00055L101.999 6.00054M101.999 6.00054L123.999 14.0005M101.999 6.00054L75.999 18.0005M101.999 6.00054L91.9989 20.0005M101.999 6.00054L105.999 14.0005M123.999 14.0005L141.999 32.0004H125.999L117.999 28.0004L109.999 24.0004M123.999 14.0005L109.999 24.0004M123.999 14.0005H105.999M82.8368 32.0004L109.999 24.0004M82.8368 32.0004L91.9989 20.0005M82.8368 32.0004L75.999 18.0005M82.8368 32.0004L55.9991 24.0004M55.9991 24.0004L75.999 18.0005M55.9991 24.0004L58.4835 14.0005M65.4845 6.20635L58.4835 14.0005M75.999 18.0005L91.9989 20.0005M75.999 18.0005L58.4835 14.0005M91.9989 20.0005L105.999 14.0005M91.9989 20.0005L109.999 24.0004M109.999 24.0004L105.999 14.0005" stroke="url(#paint34_linear_91_950)" stroke-width="0.1"/>
<circle cx="24" cy="32.0001" r="3.49998" fill="url(#paint35_linear_91_950)" stroke="url(#paint36_linear_91_950)"/>
<circle cx="67" cy="7.00035" r="2.49998" fill="url(#paint37_linear_91_950)" stroke="url(#paint38_linear_91_950)"/>
<circle cx="122.999" cy="14.9996" r="2.49998" fill="url(#paint39_linear_91_950)" stroke="url(#paint40_linear_91_950)"/>
<circle cx="37.9997" cy="18.0003" r="1.49999" fill="url(#paint41_linear_91_950)" stroke="url(#paint42_linear_91_950)"/>
<circle cx="75.9997" cy="18.0002" r="1.49999" fill="url(#paint43_linear_91_950)" stroke="url(#paint44_linear_91_950)"/>
<circle cx="106" cy="13.9997" r="1.49999" fill="url(#paint45_linear_91_950)" stroke="url(#paint46_linear_91_950)"/>
<circle cx="109.199" cy="23.9995" r="3.49998" fill="url(#paint47_linear_91_950)" stroke="url(#paint48_linear_91_950)"/>
<circle cx="92.001" cy="20.0002" r="3.49998" fill="url(#paint49_linear_91_950)" stroke="url(#paint50_linear_91_950)"/>
<circle cx="44.0002" cy="32.0001" r="3.49998" fill="url(#paint51_linear_91_950)" stroke="url(#paint52_linear_91_950)"/>
<circle cx="45.9995" cy="13.9998" r="1.49999" fill="url(#paint53_linear_91_950)" stroke="url(#paint54_linear_91_950)"/>
<circle cx="58.5" cy="14.4998" r="1.99999" fill="url(#paint55_linear_91_950)" stroke="url(#paint56_linear_91_950)"/>
<circle cx="83" cy="31" r="2.49998" fill="url(#paint57_linear_91_950)" stroke="url(#paint58_linear_91_950)"/>
<circle cx="56.0007" cy="23.9996" r="3.49998" fill="url(#paint59_linear_91_950)" stroke="url(#paint60_linear_91_950)"/>
<circle cx="102" cy="6.00036" r="1.49999" fill="url(#paint61_linear_91_950)" stroke="url(#paint62_linear_91_950)"/>
<circle cx="143" cy="31" r="2.49998" fill="url(#paint63_linear_91_950)" stroke="url(#paint64_linear_91_950)"/>
<circle cx="84" cy="3.99979" r="3.49998" fill="url(#paint65_linear_91_950)" stroke="url(#paint66_linear_91_950)"/>
<defs>
<linearGradient id="paint0_linear_91_950" x1="1" y1="41.5" x2="161.289" y2="61.6525" gradientUnits="userSpaceOnUse">
<stop stop-color="#17D4A3"/>
<stop offset="1" stop-color="#6A0DAD"/>
</linearGradient>
<linearGradient id="paint1_linear_91_950" x1="24.2855" y1="95.2854" x2="143.428" y2="63.5713" gradientUnits="userSpaceOnUse">
<stop stop-color="#17D4A3"/>
<stop offset="1" stop-color="#6A0DAD"/>
</linearGradient>
<linearGradient id="paint2_linear_91_950" x1="0.0194082" y1="-0.653137" x2="8.6348" y2="-0.108963" gradientUnits="userSpaceOnUse">
<stop stop-color="#17D4A3"/>
<stop offset="1" stop-color="#6A0DAD"/>
</linearGradient>
<linearGradient id="paint3_linear_91_950" x1="0.0194082" y1="-0.653137" x2="8.6348" y2="-0.108963" gradientUnits="userSpaceOnUse">
<stop stop-color="#17D4A3"/>
<stop offset="1" stop-color="#6A0DAD"/>
</linearGradient>
<linearGradient id="paint4_linear_91_950" x1="0.0145561" y1="-0.489853" x2="6.4761" y2="-0.0817222" gradientUnits="userSpaceOnUse">
<stop stop-color="#17D4A3"/>
<stop offset="1" stop-color="#6A0DAD"/>
</linearGradient>
<linearGradient id="paint5_linear_91_950" x1="0.0145561" y1="-0.489853" x2="6.4761" y2="-0.0817222" gradientUnits="userSpaceOnUse">
<stop stop-color="#17D4A3"/>
<stop offset="1" stop-color="#6A0DAD"/>
</linearGradient>
<linearGradient id="paint6_linear_91_950" x1="0.0145561" y1="-0.489853" x2="6.4761" y2="-0.0817222" gradientUnits="userSpaceOnUse">
<stop stop-color="#17D4A3"/>
<stop offset="1" stop-color="#6A0DAD"/>
</linearGradient>
<linearGradient id="paint7_linear_91_950" x1="0.0145561" y1="-0.489853" x2="6.4761" y2="-0.0817222" gradientUnits="userSpaceOnUse">
<stop stop-color="#17D4A3"/>
<stop offset="1" stop-color="#6A0DAD"/>
</linearGradient>
<linearGradient id="paint8_linear_91_950" x1="0.00970409" y1="-0.326569" x2="4.3174" y2="-0.0544815" gradientUnits="userSpaceOnUse">
<stop stop-color="#17D4A3"/>
<stop offset="1" stop-color="#6A0DAD"/>
</linearGradient>
<linearGradient id="paint9_linear_91_950" x1="0.00970409" y1="-0.326569" x2="4.3174" y2="-0.0544815" gradientUnits="userSpaceOnUse">
<stop stop-color="#17D4A3"/>
<stop offset="1" stop-color="#6A0DAD"/>
</linearGradient>
<linearGradient id="paint10_linear_91_950" x1="0.00970409" y1="-0.326569" x2="4.3174" y2="-0.0544815" gradientUnits="userSpaceOnUse">
<stop stop-color="#17D4A3"/>
<stop offset="1" stop-color="#6A0DAD"/>
</linearGradient>
<linearGradient id="paint11_linear_91_950" x1="0.00970409" y1="-0.326569" x2="4.3174" y2="-0.0544815" gradientUnits="userSpaceOnUse">
<stop stop-color="#17D4A3"/>
<stop offset="1" stop-color="#6A0DAD"/>
</linearGradient>
<linearGradient id="paint12_linear_91_950" x1="0.00970409" y1="-0.326569" x2="4.3174" y2="-0.0544815" gradientUnits="userSpaceOnUse">
<stop stop-color="#17D4A3"/>
<stop offset="1" stop-color="#6A0DAD"/>
</linearGradient>
<linearGradient id="paint13_linear_91_950" x1="0.00970409" y1="-0.326569" x2="4.3174" y2="-0.0544815" gradientUnits="userSpaceOnUse">
<stop stop-color="#17D4A3"/>
<stop offset="1" stop-color="#6A0DAD"/>
</linearGradient>
<linearGradient id="paint14_linear_91_950" x1="0.0194082" y1="-0.653137" x2="8.6348" y2="-0.108963" gradientUnits="userSpaceOnUse">
<stop stop-color="#17D4A3"/>
<stop offset="1" stop-color="#6A0DAD"/>
</linearGradient>
<linearGradient id="paint15_linear_91_950" x1="0.0194082" y1="-0.653137" x2="8.6348" y2="-0.108963" gradientUnits="userSpaceOnUse">
<stop stop-color="#17D4A3"/>
<stop offset="1" stop-color="#6A0DAD"/>
</linearGradient>
<linearGradient id="paint16_linear_91_950" x1="0.0194082" y1="-0.653137" x2="8.6348" y2="-0.108963" gradientUnits="userSpaceOnUse">
<stop stop-color="#17D4A3"/>
<stop offset="1" stop-color="#6A0DAD"/>
</linearGradient>
<linearGradient id="paint17_linear_91_950" x1="0.0194082" y1="-0.653137" x2="8.6348" y2="-0.108963" gradientUnits="userSpaceOnUse">
<stop stop-color="#17D4A3"/>
<stop offset="1" stop-color="#6A0DAD"/>
</linearGradient>
<linearGradient id="paint18_linear_91_950" x1="0.0194082" y1="-0.653137" x2="8.6348" y2="-0.108963" gradientUnits="userSpaceOnUse">
<stop stop-color="#17D4A3"/>
<stop offset="1" stop-color="#6A0DAD"/>
</linearGradient>
<linearGradient id="paint19_linear_91_950" x1="0.0194082" y1="-0.653137" x2="8.6348" y2="-0.108963" gradientUnits="userSpaceOnUse">
<stop stop-color="#17D4A3"/>
<stop offset="1" stop-color="#6A0DAD"/>
</linearGradient>
<linearGradient id="paint20_linear_91_950" x1="0.00970409" y1="-0.326569" x2="4.3174" y2="-0.0544815" gradientUnits="userSpaceOnUse">
<stop stop-color="#17D4A3"/>
<stop offset="1" stop-color="#6A0DAD"/>
</linearGradient>
<linearGradient id="paint21_linear_91_950" x1="0.00970409" y1="-0.326569" x2="4.3174" y2="-0.0544815" gradientUnits="userSpaceOnUse">
<stop stop-color="#17D4A3"/>
<stop offset="1" stop-color="#6A0DAD"/>
</linearGradient>
<linearGradient id="paint22_linear_91_950" x1="0.0121301" y1="-0.408211" x2="5.39675" y2="-0.0681019" gradientUnits="userSpaceOnUse">
<stop stop-color="#17D4A3"/>
<stop offset="1" stop-color="#6A0DAD"/>
</linearGradient>
<linearGradient id="paint23_linear_91_950" x1="0.0121301" y1="-0.408211" x2="5.39675" y2="-0.0681019" gradientUnits="userSpaceOnUse">
<stop stop-color="#17D4A3"/>
<stop offset="1" stop-color="#6A0DAD"/>
</linearGradient>
<linearGradient id="paint24_linear_91_950" x1="0.0145561" y1="-0.489853" x2="6.4761" y2="-0.0817222" gradientUnits="userSpaceOnUse">
<stop stop-color="#17D4A3"/>
<stop offset="1" stop-color="#6A0DAD"/>
</linearGradient>
<linearGradient id="paint25_linear_91_950" x1="0.0145561" y1="-0.489853" x2="6.4761" y2="-0.0817222" gradientUnits="userSpaceOnUse">
<stop stop-color="#17D4A3"/>
<stop offset="1" stop-color="#6A0DAD"/>
</linearGradient>
<linearGradient id="paint26_linear_91_950" x1="0.0194082" y1="-0.653137" x2="8.6348" y2="-0.108963" gradientUnits="userSpaceOnUse">
<stop stop-color="#17D4A3"/>
<stop offset="1" stop-color="#6A0DAD"/>
</linearGradient>
<linearGradient id="paint27_linear_91_950" x1="0.0194082" y1="-0.653137" x2="8.6348" y2="-0.108963" gradientUnits="userSpaceOnUse">
<stop stop-color="#17D4A3"/>
<stop offset="1" stop-color="#6A0DAD"/>
</linearGradient>
<linearGradient id="paint28_linear_91_950" x1="0.00970409" y1="-0.326569" x2="4.3174" y2="-0.0544815" gradientUnits="userSpaceOnUse">
<stop stop-color="#17D4A3"/>
<stop offset="1" stop-color="#6A0DAD"/>
</linearGradient>
<linearGradient id="paint29_linear_91_950" x1="0.00970409" y1="-0.326569" x2="4.3174" y2="-0.0544815" gradientUnits="userSpaceOnUse">
<stop stop-color="#17D4A3"/>
<stop offset="1" stop-color="#6A0DAD"/>
</linearGradient>
<linearGradient id="paint30_linear_91_950" x1="0.0145561" y1="-0.489853" x2="6.4761" y2="-0.0817222" gradientUnits="userSpaceOnUse">
<stop stop-color="#17D4A3"/>
<stop offset="1" stop-color="#6A0DAD"/>
</linearGradient>
<linearGradient id="paint31_linear_91_950" x1="0.0145561" y1="-0.489853" x2="6.4761" y2="-0.0817222" gradientUnits="userSpaceOnUse">
<stop stop-color="#17D4A3"/>
<stop offset="1" stop-color="#6A0DAD"/>
</linearGradient>
<linearGradient id="paint32_linear_91_950" x1="0.0194082" y1="-0.653137" x2="8.6348" y2="-0.108963" gradientUnits="userSpaceOnUse">
<stop stop-color="#17D4A3"/>
<stop offset="1" stop-color="#6A0DAD"/>
</linearGradient>
<linearGradient id="paint33_linear_91_950" x1="0.0194082" y1="-0.653137" x2="8.6348" y2="-0.108963" gradientUnits="userSpaceOnUse">
<stop stop-color="#17D4A3"/>
<stop offset="1" stop-color="#6A0DAD"/>
</linearGradient>
<linearGradient id="paint34_linear_91_950" x1="24.2855" y1="1.71457" x2="143.428" y2="33.4287" gradientUnits="userSpaceOnUse">
<stop stop-color="#17D4A3"/>
<stop offset="1" stop-color="#6A0DAD"/>
</linearGradient>
<linearGradient id="paint35_linear_91_950" x1="20.0194" y1="27.347" x2="28.6348" y2="27.8912" gradientUnits="userSpaceOnUse">
<stop stop-color="#17D4A3"/>
<stop offset="1" stop-color="#6A0DAD"/>
</linearGradient>
<linearGradient id="paint36_linear_91_950" x1="20.0194" y1="27.347" x2="28.6348" y2="27.8912" gradientUnits="userSpaceOnUse">
<stop stop-color="#17D4A3"/>
<stop offset="1" stop-color="#6A0DAD"/>
</linearGradient>
<linearGradient id="paint37_linear_91_950" x1="64.0146" y1="3.51051" x2="70.4761" y2="3.91864" gradientUnits="userSpaceOnUse">
<stop stop-color="#17D4A3"/>
<stop offset="1" stop-color="#6A0DAD"/>
</linearGradient>
<linearGradient id="paint38_linear_91_950" x1="64.0146" y1="3.51051" x2="70.4761" y2="3.91864" gradientUnits="userSpaceOnUse">
<stop stop-color="#17D4A3"/>
<stop offset="1" stop-color="#6A0DAD"/>
</linearGradient>
<linearGradient id="paint39_linear_91_950" x1="120.014" y1="11.5098" x2="126.476" y2="11.9179" gradientUnits="userSpaceOnUse">
<stop stop-color="#17D4A3"/>
<stop offset="1" stop-color="#6A0DAD"/>
</linearGradient>
<linearGradient id="paint40_linear_91_950" x1="120.014" y1="11.5098" x2="126.476" y2="11.9179" gradientUnits="userSpaceOnUse">
<stop stop-color="#17D4A3"/>
<stop offset="1" stop-color="#6A0DAD"/>
</linearGradient>
<linearGradient id="paint41_linear_91_950" x1="36.0095" y1="15.6738" x2="40.3172" y2="15.9459" gradientUnits="userSpaceOnUse">
<stop stop-color="#17D4A3"/>
<stop offset="1" stop-color="#6A0DAD"/>
</linearGradient>
<linearGradient id="paint42_linear_91_950" x1="36.0095" y1="15.6738" x2="40.3172" y2="15.9459" gradientUnits="userSpaceOnUse">
<stop stop-color="#17D4A3"/>
<stop offset="1" stop-color="#6A0DAD"/>
</linearGradient>
<linearGradient id="paint43_linear_91_950" x1="74.0095" y1="15.6736" x2="78.3172" y2="15.9457" gradientUnits="userSpaceOnUse">
<stop stop-color="#17D4A3"/>
<stop offset="1" stop-color="#6A0DAD"/>
</linearGradient>
<linearGradient id="paint44_linear_91_950" x1="74.0095" y1="15.6736" x2="78.3172" y2="15.9457" gradientUnits="userSpaceOnUse">
<stop stop-color="#17D4A3"/>
<stop offset="1" stop-color="#6A0DAD"/>
</linearGradient>
<linearGradient id="paint45_linear_91_950" x1="104.009" y1="11.6731" x2="108.317" y2="11.9452" gradientUnits="userSpaceOnUse">
<stop stop-color="#17D4A3"/>
<stop offset="1" stop-color="#6A0DAD"/>
</linearGradient>
<linearGradient id="paint46_linear_91_950" x1="104.009" y1="11.6731" x2="108.317" y2="11.9452" gradientUnits="userSpaceOnUse">
<stop stop-color="#17D4A3"/>
<stop offset="1" stop-color="#6A0DAD"/>
</linearGradient>
<linearGradient id="paint47_linear_91_950" x1="105.219" y1="19.3464" x2="113.834" y2="19.8906" gradientUnits="userSpaceOnUse">
<stop stop-color="#17D4A3"/>
<stop offset="1" stop-color="#6A0DAD"/>
</linearGradient>
<linearGradient id="paint48_linear_91_950" x1="105.219" y1="19.3464" x2="113.834" y2="19.8906" gradientUnits="userSpaceOnUse">
<stop stop-color="#17D4A3"/>
<stop offset="1" stop-color="#6A0DAD"/>
</linearGradient>
<linearGradient id="paint49_linear_91_950" x1="88.0204" y1="15.3471" x2="96.6358" y2="15.8913" gradientUnits="userSpaceOnUse">
<stop stop-color="#17D4A3"/>
<stop offset="1" stop-color="#6A0DAD"/>
</linearGradient>
<linearGradient id="paint50_linear_91_950" x1="88.0204" y1="15.3471" x2="96.6358" y2="15.8913" gradientUnits="userSpaceOnUse">
<stop stop-color="#17D4A3"/>
<stop offset="1" stop-color="#6A0DAD"/>
</linearGradient>
<linearGradient id="paint51_linear_91_950" x1="40.0197" y1="27.347" x2="48.635" y2="27.8912" gradientUnits="userSpaceOnUse">
<stop stop-color="#17D4A3"/>
<stop offset="1" stop-color="#6A0DAD"/>
</linearGradient>
<linearGradient id="paint52_linear_91_950" x1="40.0197" y1="27.347" x2="48.635" y2="27.8912" gradientUnits="userSpaceOnUse">
<stop stop-color="#17D4A3"/>
<stop offset="1" stop-color="#6A0DAD"/>
</linearGradient>
<linearGradient id="paint53_linear_91_950" x1="44.0092" y1="11.6732" x2="48.3169" y2="11.9453" gradientUnits="userSpaceOnUse">
<stop stop-color="#17D4A3"/>
<stop offset="1" stop-color="#6A0DAD"/>
</linearGradient>
<linearGradient id="paint54_linear_91_950" x1="44.0092" y1="11.6732" x2="48.3169" y2="11.9453" gradientUnits="userSpaceOnUse">
<stop stop-color="#17D4A3"/>
<stop offset="1" stop-color="#6A0DAD"/>
</linearGradient>
<linearGradient id="paint55_linear_91_950" x1="56.0121" y1="11.5916" x2="61.3968" y2="11.9317" gradientUnits="userSpaceOnUse">
<stop stop-color="#17D4A3"/>
<stop offset="1" stop-color="#6A0DAD"/>
</linearGradient>
<linearGradient id="paint56_linear_91_950" x1="56.0121" y1="11.5916" x2="61.3968" y2="11.9317" gradientUnits="userSpaceOnUse">
<stop stop-color="#17D4A3"/>
<stop offset="1" stop-color="#6A0DAD"/>
</linearGradient>
<linearGradient id="paint57_linear_91_950" x1="80.0146" y1="27.5102" x2="86.4761" y2="27.9183" gradientUnits="userSpaceOnUse">
<stop stop-color="#17D4A3"/>
<stop offset="1" stop-color="#6A0DAD"/>
</linearGradient>
<linearGradient id="paint58_linear_91_950" x1="80.0146" y1="27.5102" x2="86.4761" y2="27.9183" gradientUnits="userSpaceOnUse">
<stop stop-color="#17D4A3"/>
<stop offset="1" stop-color="#6A0DAD"/>
</linearGradient>
<linearGradient id="paint59_linear_91_950" x1="52.0201" y1="19.3465" x2="60.6355" y2="19.8907" gradientUnits="userSpaceOnUse">
<stop stop-color="#17D4A3"/>
<stop offset="1" stop-color="#6A0DAD"/>
</linearGradient>
<linearGradient id="paint60_linear_91_950" x1="52.0201" y1="19.3465" x2="60.6355" y2="19.8907" gradientUnits="userSpaceOnUse">
<stop stop-color="#17D4A3"/>
<stop offset="1" stop-color="#6A0DAD"/>
</linearGradient>
<linearGradient id="paint61_linear_91_950" x1="100.01" y1="3.6738" x2="104.318" y2="3.94588" gradientUnits="userSpaceOnUse">
<stop stop-color="#17D4A3"/>
<stop offset="1" stop-color="#6A0DAD"/>
</linearGradient>
<linearGradient id="paint62_linear_91_950" x1="100.01" y1="3.6738" x2="104.318" y2="3.94588" gradientUnits="userSpaceOnUse">
<stop stop-color="#17D4A3"/>
<stop offset="1" stop-color="#6A0DAD"/>
</linearGradient>
<linearGradient id="paint63_linear_91_950" x1="140.014" y1="27.5102" x2="146.476" y2="27.9183" gradientUnits="userSpaceOnUse">
<stop stop-color="#17D4A3"/>
<stop offset="1" stop-color="#6A0DAD"/>
</linearGradient>
<linearGradient id="paint64_linear_91_950" x1="140.014" y1="27.5102" x2="146.476" y2="27.9183" gradientUnits="userSpaceOnUse">
<stop stop-color="#17D4A3"/>
<stop offset="1" stop-color="#6A0DAD"/>
</linearGradient>
<linearGradient id="paint65_linear_91_950" x1="80.0194" y1="-0.653321" x2="88.6348" y2="-0.109146" gradientUnits="userSpaceOnUse">
<stop stop-color="#17D4A3"/>
<stop offset="1" stop-color="#6A0DAD"/>
</linearGradient>
<linearGradient id="paint66_linear_91_950" x1="80.0194" y1="-0.653321" x2="88.6348" y2="-0.109146" gradientUnits="userSpaceOnUse">
<stop stop-color="#17D4A3"/>
<stop offset="1" stop-color="#6A0DAD"/>
</linearGradient>
</defs>
</svg>
