<svg width="161" height="12" viewBox="0 0 161 12" fill="none" xmlns="http://www.w3.org/2000/svg">
<path d="M0.896 12V0.48H2.96L10.672 9.664V0.48H12.416V12H10.352L2.624 2.8V12H0.896ZM15.0405 12V0.48H25.6005V2.208H16.7845V5.376H23.8725V7.104H16.7845V10.272H25.6005V12H15.0405ZM30.1065 12C29.7225 12 29.3705 11.9093 29.0505 11.728C28.7412 11.536 28.4905 11.2853 28.2985 10.976C28.1172 10.656 28.0265 10.304 28.0265 9.92V0.48H29.7545V9.872C29.7545 9.97867 29.7918 10.0747 29.8665 10.16C29.9518 10.2347 30.0478 10.272 30.1545 10.272H37.4185C37.5252 10.272 37.6158 10.2347 37.6905 10.16C37.7652 10.0747 37.8025 9.97867 37.8025 9.872V0.48H39.5465V9.92C39.5465 10.304 39.4505 10.656 39.2585 10.976C39.0772 11.2853 38.8265 11.536 38.5065 11.728C38.1865 11.9093 37.8398 12 37.4665 12H30.1065ZM51.5485 12L47.9485 7.696H50.2045L53.5645 11.68V12H51.5485ZM42.1085 12V0.495999H51.5325C51.9165 0.495999 52.2685 0.591999 52.5885 0.783999C52.9085 0.976 53.1592 1.232 53.3405 1.552C53.5325 1.86133 53.6285 2.20267 53.6285 2.576V5.808C53.6285 6.192 53.5325 6.544 53.3405 6.864C53.1592 7.17333 52.9085 7.424 52.5885 7.616C52.2685 7.79733 51.9165 7.888 51.5325 7.888L43.8365 7.904V12H42.1085ZM44.2365 6.144H51.5005C51.6072 6.144 51.6978 6.10667 51.7725 6.032C51.8472 5.95733 51.8845 5.86667 51.8845 5.76V2.624C51.8845 2.51733 51.8472 2.42667 51.7725 2.352C51.6978 2.26667 51.6072 2.224 51.5005 2.224H44.2365C44.1298 2.224 44.0338 2.26667 43.9485 2.352C43.8738 2.42667 43.8365 2.51733 43.8365 2.624V5.76C43.8365 5.86667 43.8738 5.95733 43.9485 6.032C44.0338 6.10667 44.1298 6.144 44.2365 6.144ZM58.1596 12C57.7756 12 57.4236 11.9093 57.1036 11.728C56.7943 11.536 56.5436 11.2853 56.3516 10.976C56.1703 10.656 56.0796 10.304 56.0796 9.92V2.56C56.0796 2.176 56.1703 1.82933 56.3516 1.52C56.5436 1.2 56.7943 0.949333 57.1036 0.768C57.4236 0.576 57.7756 0.48 58.1596 0.48H65.5196C65.893 0.48 66.2396 0.576 66.5596 0.768C66.8796 0.949333 67.1303 1.2 67.3116 1.52C67.5036 1.82933 67.5996 2.176 67.5996 2.56V9.92C67.5996 10.304 67.5036 10.656 67.3116 10.976C67.1303 11.2853 66.8796 11.536 66.5596 11.728C66.2396 11.9093 65.893 12 65.5196 12H58.1596ZM58.2076 10.272H65.4716C65.5783 10.272 65.669 10.2347 65.7436 10.16C65.8183 10.0747 65.8556 9.97867 65.8556 9.872V2.608C65.8556 2.50133 65.8183 2.41067 65.7436 2.336C65.669 2.25067 65.5783 2.208 65.4716 2.208H58.2076C58.101 2.208 58.005 2.25067 57.9196 2.336C57.845 2.41067 57.8076 2.50133 57.8076 2.608V9.872C57.8076 9.97867 57.845 10.0747 57.9196 10.16C58.005 10.2347 58.101 10.272 58.2076 10.272ZM70.1776 12V0.464H71.9056V10.272H81.6976V12H70.1776ZM83.4624 12V0.48H94.0224V2.208H85.2064V5.376H92.2944V7.104H85.2064V10.272H94.0224V12H83.4624ZM96.5124 12V2.56C96.5124 2.176 96.603 1.82933 96.7844 1.52C96.9764 1.2 97.227 0.949333 97.5364 0.768C97.8564 0.576 98.2084 0.48 98.5924 0.48H105.936C106.32 0.48 106.672 0.576 106.992 0.768C107.312 0.949333 107.563 1.2 107.744 1.52C107.936 1.82933 108.032 2.176 108.032 2.56V12H106.288V7.968H98.2404V12H96.5124ZM98.2404 6.24H106.288V2.608C106.288 2.50133 106.251 2.41067 106.176 2.336C106.102 2.25067 106.011 2.208 105.904 2.208H98.6404C98.5337 2.208 98.4377 2.25067 98.3524 2.336C98.2777 2.41067 98.2404 2.50133 98.2404 2.608V6.24ZM120.095 12L116.495 7.696H118.751L122.111 11.68V12H120.095ZM110.655 12V0.495999H120.079C120.463 0.495999 120.815 0.591999 121.135 0.783999C121.455 0.976 121.706 1.232 121.887 1.552C122.079 1.86133 122.175 2.20267 122.175 2.576V5.808C122.175 6.192 122.079 6.544 121.887 6.864C121.706 7.17333 121.455 7.424 121.135 7.616C120.815 7.79733 120.463 7.888 120.079 7.888L112.383 7.904V12H110.655ZM112.783 6.144H120.047C120.154 6.144 120.245 6.10667 120.319 6.032C120.394 5.95733 120.431 5.86667 120.431 5.76V2.624C120.431 2.51733 120.394 2.42667 120.319 2.352C120.245 2.26667 120.154 2.224 120.047 2.224H112.783C112.677 2.224 112.581 2.26667 112.495 2.352C112.421 2.42667 112.383 2.51733 112.383 2.624V5.76C112.383 5.86667 112.421 5.95733 112.495 6.032C112.581 6.10667 112.677 6.144 112.783 6.144ZM124.658 12V0.48H126.722L134.434 9.664V0.48H136.178V12H134.114L126.386 2.8V12H124.658ZM144.244 12V2.56C144.244 2.176 144.334 1.82933 144.516 1.52C144.708 1.2 144.958 0.949333 145.268 0.768C145.588 0.576 145.94 0.48 146.324 0.48H153.668C154.052 0.48 154.404 0.576 154.724 0.768C155.044 0.949333 155.294 1.2 155.476 1.52C155.668 1.82933 155.764 2.176 155.764 2.56V12H154.02V7.968H145.972V12H144.244ZM145.972 6.24H154.02V2.608C154.02 2.50133 153.982 2.41067 153.908 2.336C153.833 2.25067 153.742 2.208 153.636 2.208H146.372C146.265 2.208 146.169 2.25067 146.084 2.336C146.009 2.41067 145.972 2.50133 145.972 2.608V6.24ZM158.339 12V0.48H160.067V12H158.339Z" fill="#7A5CFA"/>
</svg>
