<svg width="33" height="33" viewBox="0 0 33 33" fill="none" xmlns="http://www.w3.org/2000/svg">
<circle cx="16.5" cy="16.5" r="16.5" fill="#7A5CFA"/>
<g clip-path="url(#clip0_368_3177)">
<path d="M17.6907 23.4572C17.716 23.5203 17.7601 23.5742 17.8169 23.6116C17.8737 23.6489 17.9406 23.668 18.0086 23.6663C18.0766 23.6646 18.1424 23.6421 18.1973 23.6018C18.2521 23.5616 18.2933 23.5055 18.3154 23.4412L22.6487 10.7745C22.67 10.7155 22.6741 10.6515 22.6604 10.5902C22.6468 10.5289 22.6159 10.4728 22.5715 10.4284C22.5271 10.384 22.471 10.3531 22.4097 10.3395C22.3484 10.3258 22.2844 10.3299 22.2254 10.3512L9.5587 14.6845C9.49436 14.7066 9.43832 14.7478 9.39808 14.8027C9.35785 14.8575 9.33535 14.9233 9.33361 14.9913C9.33186 15.0593 9.35096 15.1262 9.38834 15.183C9.42571 15.2398 9.47958 15.2839 9.5427 15.3092L14.8294 17.4292C14.9965 17.4961 15.1483 17.5962 15.2757 17.7234C15.4032 17.8505 15.5035 18.0022 15.5707 18.1692L17.6907 23.4572Z" stroke="white" stroke-linecap="round" stroke-linejoin="round"/>
<path d="M22.5692 10.4312L15.2759 17.7238" stroke="white" stroke-linecap="round" stroke-linejoin="round"/>
</g>
<defs>
<clipPath id="clip0_368_3177">
<rect width="16" height="16" fill="white" transform="translate(8 9)"/>
</clipPath>
</defs>
</svg>
