<svg width="436" height="435" viewBox="0 0 436 435" fill="none" xmlns="http://www.w3.org/2000/svg">
<circle cx="218" cy="217" r="170.5" stroke="#4DA8DA" stroke-opacity="0.25"/>
<circle cx="218" cy="217" r="160.5" stroke="#4DA8DA" stroke-opacity="0.25"/>
<path d="M102.504 264L107.184 249.6H110.194L114.874 264H112.704L108.394 250.86H108.934L104.674 264H102.504ZM104.934 260.75V258.79H112.454V260.75H104.934ZM115.868 266.4V262.32C116.461 262.32 116.884 262.123 117.138 261.73C117.398 261.33 117.604 260.653 117.758 259.7C117.851 259.12 117.928 258.503 117.988 257.85C118.054 257.197 118.111 256.49 118.158 255.73C118.204 254.963 118.251 254.12 118.298 253.2H126.038V262.32H127.098V266.4H125.118V264H117.858V266.4H115.868ZM118.858 262.32H123.938V254.88H120.158C120.131 255.32 120.101 255.773 120.068 256.24C120.041 256.707 120.008 257.17 119.968 257.63C119.934 258.09 119.894 258.53 119.848 258.95C119.801 259.37 119.748 259.75 119.688 260.09C119.608 260.617 119.511 261.057 119.398 261.41C119.291 261.763 119.111 262.067 118.858 262.32ZM132.139 264.3C131.339 264.3 130.669 264.153 130.129 263.86C129.589 263.56 129.179 263.167 128.899 262.68C128.626 262.187 128.489 261.647 128.489 261.06C128.489 260.513 128.586 260.033 128.779 259.62C128.973 259.207 129.259 258.857 129.639 258.57C130.019 258.277 130.486 258.04 131.039 257.86C131.519 257.72 132.063 257.597 132.669 257.49C133.276 257.383 133.913 257.283 134.579 257.19C135.253 257.097 135.919 257.003 136.579 256.91L135.819 257.33C135.833 256.483 135.653 255.857 135.279 255.45C134.913 255.037 134.279 254.83 133.379 254.83C132.813 254.83 132.293 254.963 131.819 255.23C131.346 255.49 131.016 255.923 130.829 256.53L128.879 255.93C129.146 255.003 129.653 254.267 130.399 253.72C131.153 253.173 132.153 252.9 133.399 252.9C134.366 252.9 135.206 253.067 135.919 253.4C136.639 253.727 137.166 254.247 137.499 254.96C137.673 255.313 137.779 255.687 137.819 256.08C137.859 256.473 137.879 256.897 137.879 257.35V264H136.029V261.53L136.389 261.85C135.943 262.677 135.373 263.293 134.679 263.7C133.993 264.1 133.146 264.3 132.139 264.3ZM132.509 262.59C133.103 262.59 133.613 262.487 134.039 262.28C134.466 262.067 134.809 261.797 135.069 261.47C135.329 261.143 135.499 260.803 135.579 260.45C135.693 260.13 135.756 259.77 135.769 259.37C135.789 258.97 135.799 258.65 135.799 258.41L136.479 258.66C135.819 258.76 135.219 258.85 134.679 258.93C134.139 259.01 133.649 259.09 133.209 259.17C132.776 259.243 132.389 259.333 132.049 259.44C131.763 259.54 131.506 259.66 131.279 259.8C131.059 259.94 130.883 260.11 130.749 260.31C130.623 260.51 130.559 260.753 130.559 261.04C130.559 261.32 130.629 261.58 130.769 261.82C130.909 262.053 131.123 262.24 131.409 262.38C131.696 262.52 132.063 262.59 132.509 262.59ZM140.466 264V253.2H149.576V264H147.486V255.17H142.556V264H140.466ZM155.161 264V255.08H151.471V253.2H160.941V255.08H157.251V264H155.161ZM165.577 264.3C164.777 264.3 164.107 264.153 163.567 263.86C163.027 263.56 162.617 263.167 162.337 262.68C162.064 262.187 161.927 261.647 161.927 261.06C161.927 260.513 162.024 260.033 162.217 259.62C162.41 259.207 162.697 258.857 163.077 258.57C163.457 258.277 163.924 258.04 164.477 257.86C164.957 257.72 165.5 257.597 166.107 257.49C166.714 257.383 167.35 257.283 168.017 257.19C168.69 257.097 169.357 257.003 170.017 256.91L169.257 257.33C169.27 256.483 169.09 255.857 168.717 255.45C168.35 255.037 167.717 254.83 166.817 254.83C166.25 254.83 165.73 254.963 165.257 255.23C164.784 255.49 164.454 255.923 164.267 256.53L162.317 255.93C162.584 255.003 163.09 254.267 163.837 253.72C164.59 253.173 165.59 252.9 166.837 252.9C167.804 252.9 168.644 253.067 169.357 253.4C170.077 253.727 170.604 254.247 170.937 254.96C171.11 255.313 171.217 255.687 171.257 256.08C171.297 256.473 171.317 256.897 171.317 257.35V264H169.467V261.53L169.827 261.85C169.38 262.677 168.81 263.293 168.117 263.7C167.43 264.1 166.584 264.3 165.577 264.3ZM165.947 262.59C166.54 262.59 167.05 262.487 167.477 262.28C167.904 262.067 168.247 261.797 168.507 261.47C168.767 261.143 168.937 260.803 169.017 260.45C169.13 260.13 169.194 259.77 169.207 259.37C169.227 258.97 169.237 258.65 169.237 258.41L169.917 258.66C169.257 258.76 168.657 258.85 168.117 258.93C167.577 259.01 167.087 259.09 166.647 259.17C166.214 259.243 165.827 259.333 165.487 259.44C165.2 259.54 164.944 259.66 164.717 259.8C164.497 259.94 164.32 260.11 164.187 260.31C164.06 260.51 163.997 260.753 163.997 261.04C163.997 261.32 164.067 261.58 164.207 261.82C164.347 262.053 164.56 262.24 164.847 262.38C165.134 262.52 165.5 262.59 165.947 262.59ZM183.034 266.13V264H173.904V253.2H175.994V262.03H180.924V253.2H183.014V262.12H185.124V266.13H183.034ZM195.826 253.2V264H193.816V256.49L188.416 264H186.716V253.2H188.726V260.56L194.136 253.2H195.826ZM205.191 264V260.25H203.051C202.797 260.25 202.494 260.24 202.141 260.22C201.794 260.2 201.467 260.163 201.161 260.11C200.354 259.963 199.681 259.613 199.141 259.06C198.601 258.5 198.331 257.73 198.331 256.75C198.331 255.803 198.584 255.043 199.091 254.47C199.604 253.89 200.254 253.517 201.041 253.35C201.381 253.27 201.727 253.227 202.081 253.22C202.441 253.207 202.744 253.2 202.991 253.2H207.281L207.291 264H205.191ZM198.021 264L200.751 259.73H202.961L200.251 264H198.021ZM202.871 258.57H205.191V254.88H202.871C202.724 254.88 202.544 254.887 202.331 254.9C202.117 254.913 201.911 254.95 201.711 255.01C201.504 255.07 201.304 255.177 201.111 255.33C200.924 255.483 200.771 255.68 200.651 255.92C200.531 256.153 200.471 256.423 200.471 256.73C200.471 257.19 200.601 257.57 200.861 257.87C201.121 258.163 201.431 258.357 201.791 258.45C201.984 258.503 202.177 258.537 202.371 258.55C202.564 258.563 202.731 258.57 202.871 258.57ZM214.079 264V253.2H223.189V264H221.099V255.17H216.169V264H214.079ZM230.674 264.3C229.594 264.3 228.657 264.057 227.864 263.57C227.071 263.083 226.457 262.413 226.024 261.56C225.597 260.7 225.384 259.71 225.384 258.59C225.384 257.463 225.604 256.473 226.044 255.62C226.484 254.76 227.101 254.093 227.894 253.62C228.687 253.14 229.614 252.9 230.674 252.9C231.754 252.9 232.691 253.143 233.484 253.63C234.277 254.117 234.891 254.787 235.324 255.64C235.757 256.493 235.974 257.477 235.974 258.59C235.974 259.717 235.754 260.71 235.314 261.57C234.881 262.423 234.267 263.093 233.474 263.58C232.681 264.06 231.747 264.3 230.674 264.3ZM230.674 262.33C231.707 262.33 232.477 261.983 232.984 261.29C233.497 260.59 233.754 259.69 233.754 258.59C233.754 257.463 233.494 256.563 232.974 255.89C232.461 255.21 231.694 254.87 230.674 254.87C229.974 254.87 229.397 255.03 228.944 255.35C228.491 255.663 228.154 256.1 227.934 256.66C227.714 257.213 227.604 257.857 227.604 258.59C227.604 259.723 227.864 260.63 228.384 261.31C228.904 261.99 229.667 262.33 230.674 262.33ZM237.371 266.4V262.32C237.965 262.32 238.388 262.123 238.641 261.73C238.901 261.33 239.108 260.653 239.261 259.7C239.355 259.12 239.431 258.503 239.491 257.85C239.558 257.197 239.615 256.49 239.661 255.73C239.708 254.963 239.755 254.12 239.801 253.2H247.541V262.32H248.601V266.4H246.621V264H239.361V266.4H237.371ZM240.361 262.32H245.441V254.88H241.661C241.635 255.32 241.605 255.773 241.571 256.24C241.545 256.707 241.511 257.17 241.471 257.63C241.438 258.09 241.398 258.53 241.351 258.95C241.305 259.37 241.251 259.75 241.191 260.09C241.111 260.617 241.015 261.057 240.901 261.41C240.795 261.763 240.615 262.067 240.361 262.32ZM256.057 268.8L258.147 263.11L258.177 264.79L253.467 253.2H255.647L259.167 262.15H258.527L261.887 253.2H264.007L258.047 268.8H256.057ZM270.644 264.3C269.61 264.3 268.744 264.05 268.044 263.55C267.344 263.043 266.814 262.36 266.454 261.5C266.094 260.64 265.914 259.67 265.914 258.59C265.914 257.51 266.09 256.54 266.444 255.68C266.804 254.82 267.33 254.143 268.024 253.65C268.724 253.15 269.584 252.9 270.604 252.9C271.617 252.9 272.49 253.15 273.224 253.65C273.964 254.143 274.534 254.82 274.934 255.68C275.334 256.533 275.534 257.503 275.534 258.59C275.534 259.67 275.334 260.643 274.934 261.51C274.54 262.37 273.977 263.05 273.244 263.55C272.517 264.05 271.65 264.3 270.644 264.3ZM265.564 268.8V253.2H267.424V260.97H267.664V268.8H265.564ZM270.354 262.41C271.02 262.41 271.57 262.24 272.004 261.9C272.444 261.56 272.77 261.103 272.984 260.53C273.204 259.95 273.314 259.303 273.314 258.59C273.314 257.883 273.204 257.243 272.984 256.67C272.77 256.097 272.44 255.64 271.994 255.3C271.547 254.96 270.977 254.79 270.284 254.79C269.63 254.79 269.09 254.95 268.664 255.27C268.244 255.59 267.93 256.037 267.724 256.61C267.524 257.183 267.424 257.843 267.424 258.59C267.424 259.337 267.524 259.997 267.724 260.57C267.924 261.143 268.24 261.593 268.674 261.92C269.107 262.247 269.667 262.41 270.354 262.41ZM282.432 264.3C281.352 264.3 280.415 264.057 279.622 263.57C278.828 263.083 278.215 262.413 277.782 261.56C277.355 260.7 277.142 259.71 277.142 258.59C277.142 257.463 277.362 256.473 277.802 255.62C278.242 254.76 278.858 254.093 279.652 253.62C280.445 253.14 281.372 252.9 282.432 252.9C283.512 252.9 284.448 253.143 285.242 253.63C286.035 254.117 286.648 254.787 287.082 255.64C287.515 256.493 287.732 257.477 287.732 258.59C287.732 259.717 287.512 260.71 287.072 261.57C286.638 262.423 286.025 263.093 285.232 263.58C284.438 264.06 283.505 264.3 282.432 264.3ZM282.432 262.33C283.465 262.33 284.235 261.983 284.742 261.29C285.255 260.59 285.512 259.69 285.512 258.59C285.512 257.463 285.252 256.563 284.732 255.89C284.218 255.21 283.452 254.87 282.432 254.87C281.732 254.87 281.155 255.03 280.702 255.35C280.248 255.663 279.912 256.1 279.692 256.66C279.472 257.213 279.362 257.857 279.362 258.59C279.362 259.723 279.622 260.63 280.142 261.31C280.662 261.99 281.425 262.33 282.432 262.33ZM289.919 264V253.2H294.669C294.983 253.2 295.296 253.22 295.609 253.26C295.923 253.293 296.199 253.343 296.439 253.41C296.986 253.563 297.453 253.87 297.839 254.33C298.226 254.783 298.419 255.39 298.419 256.15C298.419 256.583 298.353 256.95 298.219 257.25C298.086 257.543 297.903 257.797 297.669 258.01C297.563 258.103 297.449 258.187 297.329 258.26C297.209 258.333 297.089 258.39 296.969 258.43C297.216 258.47 297.459 258.557 297.699 258.69C298.066 258.883 298.366 259.163 298.599 259.53C298.839 259.89 298.959 260.373 298.959 260.98C298.959 261.707 298.783 262.317 298.429 262.81C298.076 263.297 297.576 263.63 296.929 263.81C296.676 263.883 296.389 263.933 296.069 263.96C295.756 263.987 295.443 264 295.129 264H289.919ZM292.039 262.35H294.999C295.139 262.35 295.299 262.337 295.479 262.31C295.659 262.283 295.819 262.247 295.959 262.2C296.259 262.107 296.473 261.937 296.599 261.69C296.733 261.443 296.799 261.18 296.799 260.9C296.799 260.52 296.699 260.217 296.499 259.99C296.299 259.757 296.046 259.607 295.739 259.54C295.606 259.493 295.459 259.467 295.299 259.46C295.139 259.453 295.003 259.45 294.889 259.45H292.039V262.35ZM292.039 257.77H294.379C294.573 257.77 294.769 257.76 294.969 257.74C295.169 257.713 295.343 257.67 295.489 257.61C295.749 257.51 295.943 257.343 296.069 257.11C296.196 256.87 296.259 256.61 296.259 256.33C296.259 256.023 296.189 255.75 296.049 255.51C295.909 255.27 295.699 255.103 295.419 255.01C295.226 254.943 295.003 254.907 294.749 254.9C294.503 254.887 294.346 254.88 294.279 254.88H292.039V257.77ZM305.754 264.3C304.681 264.3 303.738 264.067 302.924 263.6C302.118 263.127 301.488 262.47 301.034 261.63C300.588 260.783 300.364 259.803 300.364 258.69C300.364 257.51 300.584 256.487 301.024 255.62C301.471 254.753 302.091 254.083 302.884 253.61C303.678 253.137 304.601 252.9 305.654 252.9C306.754 252.9 307.691 253.157 308.464 253.67C309.238 254.177 309.814 254.9 310.194 255.84C310.581 256.78 310.734 257.897 310.654 259.19H308.564V258.43C308.551 257.177 308.311 256.25 307.844 255.65C307.384 255.05 306.681 254.75 305.734 254.75C304.688 254.75 303.901 255.08 303.374 255.74C302.848 256.4 302.584 257.353 302.584 258.6C302.584 259.787 302.848 260.707 303.374 261.36C303.901 262.007 304.661 262.33 305.654 262.33C306.308 262.33 306.871 262.183 307.344 261.89C307.824 261.59 308.198 261.163 308.464 260.61L310.514 261.26C310.094 262.227 309.458 262.977 308.604 263.51C307.751 264.037 306.801 264.3 305.754 264.3ZM301.904 259.19V257.56H309.614V259.19H301.904ZM312.888 264V253.2H314.978V257.61H320.248V253.2H322.338V264H320.248V259.58H314.978V264H312.888ZM325.134 264V253.2H327.234V256.95H329.364C329.671 256.95 329.997 256.957 330.344 256.97C330.697 256.983 331.001 257.017 331.254 257.07C331.834 257.19 332.334 257.39 332.754 257.67C333.181 257.95 333.511 258.323 333.744 258.79C333.977 259.25 334.094 259.817 334.094 260.49C334.094 261.43 333.847 262.18 333.354 262.74C332.867 263.293 332.207 263.667 331.374 263.86C331.107 263.92 330.791 263.96 330.424 263.98C330.064 263.993 329.734 264 329.434 264H325.134ZM327.234 262.32H329.554C329.721 262.32 329.911 262.313 330.124 262.3C330.337 262.287 330.534 262.257 330.714 262.21C331.034 262.117 331.321 261.927 331.574 261.64C331.827 261.353 331.954 260.97 331.954 260.49C331.954 259.997 331.827 259.603 331.574 259.31C331.327 259.017 331.014 258.827 330.634 258.74C330.454 258.693 330.271 258.663 330.084 258.65C329.897 258.637 329.721 258.63 329.554 258.63H327.234V262.32ZM157.285 291.3C156.205 291.3 155.269 291.057 154.475 290.57C153.682 290.083 153.069 289.413 152.635 288.56C152.209 287.7 151.995 286.71 151.995 285.59C151.995 284.463 152.215 283.473 152.655 282.62C153.095 281.76 153.712 281.093 154.505 280.62C155.299 280.14 156.225 279.9 157.285 279.9C158.365 279.9 159.302 280.143 160.095 280.63C160.889 281.117 161.502 281.787 161.935 282.64C162.369 283.493 162.585 284.477 162.585 285.59C162.585 286.717 162.365 287.71 161.925 288.57C161.492 289.423 160.879 290.093 160.085 290.58C159.292 291.06 158.359 291.3 157.285 291.3ZM157.285 289.33C158.319 289.33 159.089 288.983 159.595 288.29C160.109 287.59 160.365 286.69 160.365 285.59C160.365 284.463 160.105 283.563 159.585 282.89C159.072 282.21 158.305 281.87 157.285 281.87C156.585 281.87 156.009 282.03 155.555 282.35C155.102 282.663 154.765 283.1 154.545 283.66C154.325 284.213 154.215 284.857 154.215 285.59C154.215 286.723 154.475 287.63 154.995 288.31C155.515 288.99 156.279 289.33 157.285 289.33ZM169.223 291.31C168.196 291.303 167.323 291.08 166.603 290.64C165.883 290.2 165.319 289.567 164.913 288.74C164.513 287.907 164.279 286.903 164.213 285.73C164.179 285.163 164.183 284.537 164.223 283.85C164.263 283.157 164.336 282.487 164.443 281.84C164.556 281.193 164.699 280.653 164.873 280.22C165.066 279.74 165.329 279.3 165.663 278.9C165.996 278.493 166.363 278.153 166.763 277.88C167.189 277.587 167.663 277.36 168.183 277.2C168.703 277.033 169.246 276.903 169.813 276.81C170.386 276.717 170.963 276.637 171.543 276.57C172.129 276.497 172.699 276.407 173.253 276.3L173.453 278.17C173.086 278.257 172.653 278.327 172.153 278.38C171.659 278.433 171.146 278.493 170.613 278.56C170.086 278.627 169.583 278.72 169.103 278.84C168.623 278.96 168.206 279.13 167.853 279.35C167.353 279.657 166.969 280.103 166.703 280.69C166.443 281.277 166.286 281.913 166.233 282.6C166.646 281.973 167.173 281.523 167.813 281.25C168.453 280.97 169.116 280.83 169.803 280.83C170.763 280.83 171.589 281.057 172.283 281.51C172.983 281.963 173.519 282.58 173.893 283.36C174.266 284.14 174.453 285.023 174.453 286.01C174.453 287.077 174.233 288.01 173.793 288.81C173.359 289.603 172.749 290.223 171.963 290.67C171.176 291.11 170.263 291.323 169.223 291.31ZM169.333 289.34C170.293 289.34 171.016 289.043 171.503 288.45C171.996 287.857 172.243 287.067 172.243 286.08C172.243 285.067 171.989 284.27 171.483 283.69C170.976 283.11 170.259 282.82 169.333 282.82C168.393 282.82 167.673 283.11 167.173 283.69C166.679 284.27 166.433 285.067 166.433 286.08C166.433 287.107 166.683 287.907 167.183 288.48C167.683 289.053 168.399 289.34 169.333 289.34ZM177.727 295.8L179.817 290.11L179.847 291.79L175.137 280.2H177.317L180.837 289.15H180.197L183.557 280.2H185.677L179.717 295.8H177.727ZM193.634 291V287.24C193.267 287.427 192.837 287.58 192.344 287.7C191.85 287.813 191.33 287.87 190.784 287.87C189.677 287.87 188.787 287.623 188.114 287.13C187.447 286.63 187.014 285.91 186.814 284.97C186.76 284.69 186.72 284.403 186.694 284.11C186.667 283.81 186.65 283.537 186.644 283.29C186.644 283.043 186.644 282.86 186.644 282.74V280.2H188.764V282.74C188.764 282.913 188.77 283.143 188.784 283.43C188.797 283.71 188.834 283.983 188.894 284.25C189.02 284.85 189.274 285.297 189.654 285.59C190.034 285.877 190.57 286.02 191.264 286.02C191.764 286.02 192.214 285.957 192.614 285.83C193.02 285.697 193.36 285.527 193.634 285.32V280.2H195.744V291H193.634ZM201.602 291.3C200.802 291.3 200.132 291.153 199.592 290.86C199.052 290.56 198.642 290.167 198.362 289.68C198.089 289.187 197.952 288.647 197.952 288.06C197.952 287.513 198.049 287.033 198.242 286.62C198.436 286.207 198.722 285.857 199.102 285.57C199.482 285.277 199.949 285.04 200.502 284.86C200.982 284.72 201.526 284.597 202.132 284.49C202.739 284.383 203.376 284.283 204.042 284.19C204.716 284.097 205.382 284.003 206.042 283.91L205.282 284.33C205.296 283.483 205.116 282.857 204.742 282.45C204.376 282.037 203.742 281.83 202.842 281.83C202.276 281.83 201.756 281.963 201.282 282.23C200.809 282.49 200.479 282.923 200.292 283.53L198.342 282.93C198.609 282.003 199.116 281.267 199.862 280.72C200.616 280.173 201.616 279.9 202.862 279.9C203.829 279.9 204.669 280.067 205.382 280.4C206.102 280.727 206.629 281.247 206.962 281.96C207.136 282.313 207.242 282.687 207.282 283.08C207.322 283.473 207.342 283.897 207.342 284.35V291H205.492V288.53L205.852 288.85C205.406 289.677 204.836 290.293 204.142 290.7C203.456 291.1 202.609 291.3 201.602 291.3ZM201.972 289.59C202.566 289.59 203.076 289.487 203.502 289.28C203.929 289.067 204.272 288.797 204.532 288.47C204.792 288.143 204.962 287.803 205.042 287.45C205.156 287.13 205.219 286.77 205.232 286.37C205.252 285.97 205.262 285.65 205.262 285.41L205.942 285.66C205.282 285.76 204.682 285.85 204.142 285.93C203.602 286.01 203.112 286.09 202.672 286.17C202.239 286.243 201.852 286.333 201.512 286.44C201.226 286.54 200.969 286.66 200.742 286.8C200.522 286.94 200.346 287.11 200.212 287.31C200.086 287.51 200.022 287.753 200.022 288.04C200.022 288.32 200.092 288.58 200.232 288.82C200.372 289.053 200.586 289.24 200.872 289.38C201.159 289.52 201.526 289.59 201.972 289.59ZM219.059 291.3C218.166 291.3 217.369 291.113 216.669 290.74C215.976 290.367 215.409 289.833 214.969 289.14C214.529 288.44 214.249 287.61 214.129 286.65H212.019V291H209.929V280.2H212.019V284.55H214.119C214.239 283.57 214.522 282.733 214.969 282.04C215.416 281.347 215.989 280.817 216.689 280.45C217.396 280.083 218.196 279.9 219.089 279.9C220.162 279.9 221.092 280.143 221.879 280.63C222.666 281.117 223.276 281.79 223.709 282.65C224.142 283.503 224.359 284.48 224.359 285.58C224.359 286.707 224.139 287.7 223.699 288.56C223.266 289.42 222.652 290.093 221.859 290.58C221.066 291.06 220.132 291.3 219.059 291.3ZM219.029 289.33C220.076 289.33 220.856 288.983 221.369 288.29C221.882 287.597 222.139 286.697 222.139 285.59C222.139 284.45 221.879 283.547 221.359 282.88C220.846 282.207 220.072 281.87 219.039 281.87C218.032 281.87 217.272 282.207 216.759 282.88C216.246 283.547 215.989 284.447 215.989 285.58C215.989 286.72 216.246 287.63 216.759 288.31C217.279 288.99 218.036 289.33 219.029 289.33ZM238.41 293.13V291H226.55V280.2H228.56V289.12H231.95V280.2H233.96V289.12H237.34V280.2H239.35V289.12H240.5V293.13H238.41ZM251.207 280.2V291H249.197V283.49L243.797 291H242.097V280.2H244.107V287.56L249.517 280.2H251.207ZM252.802 291L256.842 285.54L252.892 280.2H255.372L258.062 283.91L260.722 280.2H263.202L259.252 285.54L263.302 291H260.812L258.062 287.17L255.292 291H252.802ZM269.129 291.3C268.023 291.3 267.083 291.053 266.309 290.56C265.536 290.067 264.943 289.39 264.529 288.53C264.123 287.67 263.916 286.693 263.909 285.6C263.916 284.487 264.129 283.503 264.549 282.65C264.969 281.79 265.569 281.117 266.349 280.63C267.129 280.143 268.066 279.9 269.159 279.9C270.339 279.9 271.346 280.193 272.179 280.78C273.019 281.367 273.573 282.17 273.839 283.19L271.759 283.79C271.553 283.183 271.213 282.713 270.739 282.38C270.273 282.04 269.736 281.87 269.129 281.87C268.443 281.87 267.879 282.033 267.439 282.36C266.999 282.68 266.673 283.12 266.459 283.68C266.246 284.24 266.136 284.88 266.129 285.6C266.136 286.713 266.389 287.613 266.889 288.3C267.396 288.987 268.143 289.33 269.129 289.33C269.803 289.33 270.346 289.177 270.759 288.87C271.179 288.557 271.499 288.11 271.719 287.53L273.839 288.03C273.486 289.083 272.903 289.893 272.089 290.46C271.276 291.02 270.289 291.3 269.129 291.3ZM282.31 291V287.25H280.17C279.917 287.25 279.613 287.24 279.26 287.22C278.913 287.2 278.587 287.163 278.28 287.11C277.473 286.963 276.8 286.613 276.26 286.06C275.72 285.5 275.45 284.73 275.45 283.75C275.45 282.803 275.703 282.043 276.21 281.47C276.723 280.89 277.373 280.517 278.16 280.35C278.5 280.27 278.847 280.227 279.2 280.22C279.56 280.207 279.863 280.2 280.11 280.2H284.4L284.41 291H282.31ZM275.14 291L277.87 286.73H280.08L277.37 291H275.14ZM279.99 285.57H282.31V281.88H279.99C279.843 281.88 279.663 281.887 279.45 281.9C279.237 281.913 279.03 281.95 278.83 282.01C278.623 282.07 278.423 282.177 278.23 282.33C278.043 282.483 277.89 282.68 277.77 282.92C277.65 283.153 277.59 283.423 277.59 283.73C277.59 284.19 277.72 284.57 277.98 284.87C278.24 285.163 278.55 285.357 278.91 285.45C279.103 285.503 279.297 285.537 279.49 285.55C279.683 285.563 279.85 285.57 279.99 285.57Z" fill="black"/>
<path d="M213.435 174.317L212.078 177.586" stroke="black" stroke-width="3" stroke-linecap="round" stroke-linejoin="round"/>
<path d="M213.435 154.682L212.078 151.413" stroke="black" stroke-width="3" stroke-linecap="round" stroke-linejoin="round"/>
<path d="M221.565 174.317L222.918 177.59" stroke="black" stroke-width="3" stroke-linecap="round" stroke-linejoin="round"/>
<path d="M222.922 151.413L221.565 154.682" stroke="black" stroke-width="3" stroke-linecap="round" stroke-linejoin="round"/>
<path d="M227.317 160.435L230.586 159.078" stroke="black" stroke-width="2" stroke-linecap="round" stroke-linejoin="round"/>
<path d="M227.317 168.565L230.586 169.922" stroke="black" stroke-width="2" stroke-linecap="round" stroke-linejoin="round"/>
<path d="M237.327 145.021C238.142 143.61 238.621 142.03 238.728 140.404C238.834 138.777 238.565 137.148 237.942 135.643C237.318 134.137 236.356 132.795 235.131 131.72C233.906 130.646 232.45 129.867 230.875 129.445C229.301 129.024 227.651 128.97 226.053 129.288C224.454 129.605 222.95 130.287 221.657 131.279C220.364 132.271 219.317 133.548 218.596 135.009C217.875 136.471 217.5 138.079 217.5 139.709C217.503 137.349 216.719 135.056 215.274 133.191C213.829 131.326 211.804 129.995 209.519 129.408C207.233 128.821 204.818 129.012 202.652 129.949C200.487 130.887 198.696 132.519 197.561 134.588C196.626 136.288 196.176 138.213 196.258 140.152C194.176 140.687 192.243 141.689 190.606 143.083C188.968 144.476 187.67 146.223 186.808 148.193C185.946 150.162 185.544 152.302 185.632 154.45C185.72 156.598 186.295 158.698 187.315 160.59" stroke="black" stroke-width="2" stroke-linecap="round" stroke-linejoin="round"/>
<path d="M238.743 140.151C240.825 140.687 242.758 141.689 244.395 143.083C246.032 144.476 247.331 146.223 248.193 148.193C249.054 150.162 249.457 152.302 249.369 154.45C249.281 156.598 248.705 158.698 247.686 160.59" stroke="black" stroke-width="2" stroke-linecap="round" stroke-linejoin="round"/>
<path d="M244.08 158.458C247.123 159.694 249.642 161.949 251.206 164.837C252.77 167.725 253.282 171.066 252.655 174.29C252.027 177.514 250.299 180.42 247.766 182.51C245.233 184.601 242.052 185.746 238.768 185.75" stroke="black" stroke-width="2" stroke-linecap="round" stroke-linejoin="round"/>
<path d="M189.28 183.919C188.853 187.169 189.567 190.467 191.3 193.25C193.033 196.032 195.677 198.128 198.782 199.18C201.886 200.231 205.26 200.173 208.327 199.016C211.394 197.859 213.965 195.674 215.601 192.833C216.239 191.732 218.76 191.732 219.398 192.833C221.034 195.673 223.605 197.858 226.671 199.015C229.738 200.172 233.111 200.23 236.215 199.179C239.32 198.128 241.964 196.033 243.697 193.251C245.43 190.469 246.145 187.172 245.72 183.922" stroke="black" stroke-width="2" stroke-linecap="round" stroke-linejoin="round"/>
<path d="M190.937 158.447C187.888 159.679 185.361 161.933 183.792 164.824C182.223 167.714 181.708 171.061 182.336 174.289C182.964 177.518 184.696 180.427 187.235 182.518C189.774 184.609 192.961 185.752 196.25 185.75" stroke="black" stroke-width="2" stroke-linecap="round" stroke-linejoin="round"/>
<path d="M196.257 140.151C196.329 141.865 196.815 143.536 197.674 145.021" stroke="black" stroke-width="2" stroke-linecap="round" stroke-linejoin="round"/>
<path d="M207.682 160.435L204.413 159.078" stroke="black" stroke-width="2" stroke-linecap="round" stroke-linejoin="round"/>
<path d="M207.682 168.565L204.413 169.922" stroke="black" stroke-width="2" stroke-linecap="round" stroke-linejoin="round"/>
<path d="M217.5 175.125C223.368 175.125 228.125 170.368 228.125 164.5C228.125 158.632 223.368 153.875 217.5 153.875C211.632 153.875 206.875 158.632 206.875 164.5C206.875 170.368 211.632 175.125 217.5 175.125Z" stroke="black" stroke-width="2" stroke-linecap="round" stroke-linejoin="round"/>
<g filter="url(#filter0_f_585_6728)">
<path d="M143.5 209.5C130.3 224.3 92.3333 224.333 75 222.5L70 193L83.5 156C88.1667 145.833 98.1 124.3 100.5 119.5C102.9 114.7 126.833 101.167 138.5 95L182.5 78.5L233.5 70.5L266.5 78.5V112H233.5L198 131.5L182.5 162C175 171.667 156.7 194.7 143.5 209.5Z" fill="#4DA8DA" fill-opacity="0.5" style="mix-blend-mode:plus-lighter"/>
<path d="M143.5 347L124.5 310.5H332.5L319.5 323.5L297 347L233.5 364.5H187.5L143.5 347Z" fill="#4DA8DA" fill-opacity="0.5" style="mix-blend-mode:plus-lighter"/>
<path d="M286.5 193L274.5 131.5H297H309L324.5 143C327.167 147.333 333.4 156.6 337 159C340.6 161.4 345.833 169.667 348 173.5L355 186L365.5 209.5V242C361 244.333 348.1 247.6 332.5 242C316.9 236.4 310.333 226.667 309 222.5L286.5 193Z" fill="#4DA8DA" fill-opacity="0.5" style="mix-blend-mode:plus-lighter"/>
</g>
<defs>
<filter id="filter0_f_585_6728" x="0" y="0.5" width="435.5" height="434" filterUnits="userSpaceOnUse" color-interpolation-filters="sRGB">
<feFlood flood-opacity="0" result="BackgroundImageFix"/>
<feBlend mode="normal" in="SourceGraphic" in2="BackgroundImageFix" result="shape"/>
<feGaussianBlur stdDeviation="35" result="effect1_foregroundBlur_585_6728"/>
</filter>
</defs>
</svg>
