<svg width="436" height="435" viewBox="0 0 436 435" fill="none" xmlns="http://www.w3.org/2000/svg">
<circle cx="218" cy="217" r="170.5" stroke="#C3CB27" stroke-opacity="0.15"/>
<circle cx="218" cy="217" r="160.5" stroke="#C3CB27" stroke-opacity="0.15"/>
<path d="M101.689 264H99.569V253.29L92.479 264H90.359V249.6H92.479V260.3L99.569 249.6H101.689V264ZM104.47 264V253.2H106.56V257.61H111.83V253.2H113.92V264H111.83V259.58H106.56V264H104.47ZM119.516 264V255.08H115.826V253.2H125.296V255.08H121.606V264H119.516ZM131.985 264.3C130.912 264.3 129.968 264.067 129.155 263.6C128.348 263.127 127.718 262.47 127.265 261.63C126.818 260.783 126.595 259.803 126.595 258.69C126.595 257.51 126.815 256.487 127.255 255.62C127.702 254.753 128.322 254.083 129.115 253.61C129.908 253.137 130.832 252.9 131.885 252.9C132.985 252.9 133.922 253.157 134.695 253.67C135.468 254.177 136.045 254.9 136.425 255.84C136.812 256.78 136.965 257.897 136.885 259.19H134.795V258.43C134.782 257.177 134.542 256.25 134.075 255.65C133.615 255.05 132.912 254.75 131.965 254.75C130.918 254.75 130.132 255.08 129.605 255.74C129.078 256.4 128.815 257.353 128.815 258.6C128.815 259.787 129.078 260.707 129.605 261.36C130.132 262.007 130.892 262.33 131.885 262.33C132.538 262.33 133.102 262.183 133.575 261.89C134.055 261.59 134.428 261.163 134.695 260.61L136.745 261.26C136.325 262.227 135.688 262.977 134.835 263.51C133.982 264.037 133.032 264.3 131.985 264.3ZM128.135 259.19V257.56H135.845V259.19H128.135ZM139.129 264V253.2H146.729V255.17H141.219V264H139.129ZM153.691 264.3C152.657 264.3 151.791 264.05 151.091 263.55C150.391 263.043 149.861 262.36 149.501 261.5C149.141 260.64 148.961 259.67 148.961 258.59C148.961 257.51 149.137 256.54 149.491 255.68C149.851 254.82 150.377 254.143 151.071 253.65C151.771 253.15 152.631 252.9 153.651 252.9C154.664 252.9 155.537 253.15 156.271 253.65C157.011 254.143 157.581 254.82 157.981 255.68C158.381 256.533 158.581 257.503 158.581 258.59C158.581 259.67 158.381 260.643 157.981 261.51C157.587 262.37 157.024 263.05 156.291 263.55C155.564 264.05 154.697 264.3 153.691 264.3ZM148.611 268.8V253.2H150.471V260.97H150.711V268.8H148.611ZM153.401 262.41C154.067 262.41 154.617 262.24 155.051 261.9C155.491 261.56 155.817 261.103 156.031 260.53C156.251 259.95 156.361 259.303 156.361 258.59C156.361 257.883 156.251 257.243 156.031 256.67C155.817 256.097 155.487 255.64 155.041 255.3C154.594 254.96 154.024 254.79 153.331 254.79C152.677 254.79 152.137 254.95 151.711 255.27C151.291 255.59 150.977 256.037 150.771 256.61C150.571 257.183 150.471 257.843 150.471 258.59C150.471 259.337 150.571 259.997 150.771 260.57C150.971 261.143 151.287 261.593 151.721 261.92C152.154 262.247 152.714 262.41 153.401 262.41ZM163.839 264.3C163.039 264.3 162.369 264.153 161.829 263.86C161.289 263.56 160.879 263.167 160.599 262.68C160.325 262.187 160.189 261.647 160.189 261.06C160.189 260.513 160.285 260.033 160.479 259.62C160.672 259.207 160.959 258.857 161.339 258.57C161.719 258.277 162.185 258.04 162.739 257.86C163.219 257.72 163.762 257.597 164.369 257.49C164.975 257.383 165.612 257.283 166.279 257.19C166.952 257.097 167.619 257.003 168.279 256.91L167.519 257.33C167.532 256.483 167.352 255.857 166.979 255.45C166.612 255.037 165.979 254.83 165.079 254.83C164.512 254.83 163.992 254.963 163.519 255.23C163.045 255.49 162.715 255.923 162.529 256.53L160.579 255.93C160.845 255.003 161.352 254.267 162.099 253.72C162.852 253.173 163.852 252.9 165.099 252.9C166.065 252.9 166.905 253.067 167.619 253.4C168.339 253.727 168.865 254.247 169.199 254.96C169.372 255.313 169.479 255.687 169.519 256.08C169.559 256.473 169.579 256.897 169.579 257.35V264H167.729V261.53L168.089 261.85C167.642 262.677 167.072 263.293 166.379 263.7C165.692 264.1 164.845 264.3 163.839 264.3ZM164.209 262.59C164.802 262.59 165.312 262.487 165.739 262.28C166.165 262.067 166.509 261.797 166.769 261.47C167.029 261.143 167.199 260.803 167.279 260.45C167.392 260.13 167.455 259.77 167.469 259.37C167.489 258.97 167.499 258.65 167.499 258.41L168.179 258.66C167.519 258.76 166.919 258.85 166.379 258.93C165.839 259.01 165.349 259.09 164.909 259.17C164.475 259.243 164.089 259.333 163.749 259.44C163.462 259.54 163.205 259.66 162.979 259.8C162.759 259.94 162.582 260.11 162.449 260.31C162.322 260.51 162.259 260.753 162.259 261.04C162.259 261.32 162.329 261.58 162.469 261.82C162.609 262.053 162.822 262.24 163.109 262.38C163.395 262.52 163.762 262.59 164.209 262.59ZM181.295 266.13V264H172.165V253.2H174.255V262.03H179.185V253.2H181.275V262.12H183.385V266.13H181.295ZM194.088 253.2V264H192.078V256.49L186.678 264H184.978V253.2H186.988V260.56L192.398 253.2H194.088ZM203.452 264V260.25H201.312C201.059 260.25 200.756 260.24 200.402 260.22C200.056 260.2 199.729 260.163 199.422 260.11C198.616 259.963 197.942 259.613 197.402 259.06C196.862 258.5 196.592 257.73 196.592 256.75C196.592 255.803 196.846 255.043 197.352 254.47C197.866 253.89 198.516 253.517 199.302 253.35C199.642 253.27 199.989 253.227 200.342 253.22C200.702 253.207 201.006 253.2 201.252 253.2H205.542L205.552 264H203.452ZM196.282 264L199.012 259.73H201.222L198.512 264H196.282ZM201.132 258.57H203.452V254.88H201.132C200.986 254.88 200.806 254.887 200.592 254.9C200.379 254.913 200.172 254.95 199.972 255.01C199.766 255.07 199.566 255.177 199.372 255.33C199.186 255.483 199.032 255.68 198.912 255.92C198.792 256.153 198.732 256.423 198.732 256.73C198.732 257.19 198.862 257.57 199.122 257.87C199.382 258.163 199.692 258.357 200.052 258.45C200.246 258.503 200.439 258.537 200.632 258.55C200.826 258.563 200.992 258.57 201.132 258.57ZM216.971 264.3C215.865 264.3 214.925 264.053 214.151 263.56C213.378 263.067 212.785 262.39 212.371 261.53C211.965 260.67 211.758 259.693 211.751 258.6C211.758 257.487 211.971 256.503 212.391 255.65C212.811 254.79 213.411 254.117 214.191 253.63C214.971 253.143 215.908 252.9 217.001 252.9C218.181 252.9 219.188 253.193 220.021 253.78C220.861 254.367 221.415 255.17 221.681 256.19L219.601 256.79C219.395 256.183 219.055 255.713 218.581 255.38C218.115 255.04 217.578 254.87 216.971 254.87C216.285 254.87 215.721 255.033 215.281 255.36C214.841 255.68 214.515 256.12 214.301 256.68C214.088 257.24 213.978 257.88 213.971 258.6C213.978 259.713 214.231 260.613 214.731 261.3C215.238 261.987 215.985 262.33 216.971 262.33C217.645 262.33 218.188 262.177 218.601 261.87C219.021 261.557 219.341 261.11 219.561 260.53L221.681 261.03C221.328 262.083 220.745 262.893 219.931 263.46C219.118 264.02 218.131 264.3 216.971 264.3ZM232.792 264.3C231.759 264.3 230.892 264.05 230.192 263.55C229.492 263.043 228.962 262.36 228.602 261.5C228.242 260.64 228.062 259.67 228.062 258.59C228.062 257.51 228.239 256.54 228.592 255.68C228.952 254.82 229.479 254.143 230.172 253.65C230.872 253.15 231.732 252.9 232.752 252.9C233.766 252.9 234.639 253.15 235.372 253.65C236.112 254.143 236.682 254.82 237.082 255.68C237.482 256.533 237.682 257.503 237.682 258.59C237.682 259.67 237.482 260.643 237.082 261.51C236.689 262.37 236.126 263.05 235.392 263.55C234.666 264.05 233.799 264.3 232.792 264.3ZM227.712 268.8V253.2H229.572V260.97H229.812V268.8H227.712ZM232.502 262.41C233.169 262.41 233.719 262.24 234.152 261.9C234.592 261.56 234.919 261.103 235.132 260.53C235.352 259.95 235.462 259.303 235.462 258.59C235.462 257.883 235.352 257.243 235.132 256.67C234.919 256.097 234.589 255.64 234.142 255.3C233.696 254.96 233.126 254.79 232.432 254.79C231.779 254.79 231.239 254.95 230.812 255.27C230.392 255.59 230.079 256.037 229.872 256.61C229.672 257.183 229.572 257.843 229.572 258.59C229.572 259.337 229.672 259.997 229.872 260.57C230.072 261.143 230.389 261.593 230.822 261.92C231.256 262.247 231.816 262.41 232.502 262.41ZM242.94 264.3C242.14 264.3 241.47 264.153 240.93 263.86C240.39 263.56 239.98 263.167 239.7 262.68C239.427 262.187 239.29 261.647 239.29 261.06C239.29 260.513 239.387 260.033 239.58 259.62C239.774 259.207 240.06 258.857 240.44 258.57C240.82 258.277 241.287 258.04 241.84 257.86C242.32 257.72 242.864 257.597 243.47 257.49C244.077 257.383 244.714 257.283 245.38 257.19C246.054 257.097 246.72 257.003 247.38 256.91L246.62 257.33C246.634 256.483 246.454 255.857 246.08 255.45C245.714 255.037 245.08 254.83 244.18 254.83C243.614 254.83 243.094 254.963 242.62 255.23C242.147 255.49 241.817 255.923 241.63 256.53L239.68 255.93C239.947 255.003 240.454 254.267 241.2 253.72C241.954 253.173 242.954 252.9 244.2 252.9C245.167 252.9 246.007 253.067 246.72 253.4C247.44 253.727 247.967 254.247 248.3 254.96C248.474 255.313 248.58 255.687 248.62 256.08C248.66 256.473 248.68 256.897 248.68 257.35V264H246.83V261.53L247.19 261.85C246.744 262.677 246.174 263.293 245.48 263.7C244.794 264.1 243.947 264.3 242.94 264.3ZM243.31 262.59C243.904 262.59 244.414 262.487 244.84 262.28C245.267 262.067 245.61 261.797 245.87 261.47C246.13 261.143 246.3 260.803 246.38 260.45C246.494 260.13 246.557 259.77 246.57 259.37C246.59 258.97 246.6 258.65 246.6 258.41L247.28 258.66C246.62 258.76 246.02 258.85 245.48 258.93C244.94 259.01 244.45 259.09 244.01 259.17C243.577 259.243 243.19 259.333 242.85 259.44C242.564 259.54 242.307 259.66 242.08 259.8C241.86 259.94 241.684 260.11 241.55 260.31C241.424 260.51 241.36 260.753 241.36 261.04C241.36 261.32 241.43 261.58 241.57 261.82C241.71 262.053 241.924 262.24 242.21 262.38C242.497 262.52 242.864 262.59 243.31 262.59ZM255.127 264.3C254.08 264.3 253.14 264.077 252.307 263.63C251.48 263.183 250.827 262.567 250.347 261.78L252.007 260.69C252.394 261.21 252.84 261.613 253.347 261.9C253.86 262.187 254.437 262.33 255.077 262.33C255.744 262.33 256.27 262.18 256.657 261.88C257.05 261.573 257.247 261.163 257.247 260.65C257.247 260.243 257.134 259.943 256.907 259.75C256.687 259.55 256.38 259.42 255.987 259.36C255.6 259.3 255.16 259.27 254.667 259.27H253.707V257.59H254.667C255.32 257.59 255.857 257.5 256.277 257.32C256.704 257.133 256.917 256.783 256.917 256.27C256.917 255.77 256.734 255.41 256.367 255.19C256.007 254.97 255.577 254.86 255.077 254.86C254.517 254.86 253.974 254.98 253.447 255.22C252.92 255.453 252.46 255.743 252.067 256.09L250.847 254.66C251.42 254.107 252.074 253.677 252.807 253.37C253.547 253.057 254.34 252.9 255.187 252.9C255.88 252.9 256.52 253.023 257.107 253.27C257.7 253.51 258.174 253.867 258.527 254.34C258.887 254.813 259.067 255.397 259.067 256.09C259.067 256.63 258.947 257.123 258.707 257.57C258.467 258.017 258.1 258.423 257.607 258.79L257.547 258.08C257.954 258.207 258.294 258.41 258.567 258.69C258.84 258.97 259.044 259.3 259.177 259.68C259.317 260.053 259.387 260.45 259.387 260.87C259.387 261.597 259.194 262.217 258.807 262.73C258.427 263.243 257.914 263.633 257.267 263.9C256.62 264.167 255.907 264.3 255.127 264.3ZM260.589 264V262.23C260.989 262.303 261.293 262.293 261.499 262.2C261.713 262.1 261.869 261.92 261.969 261.66C262.076 261.4 262.166 261.063 262.239 260.65C262.353 260.043 262.449 259.353 262.529 258.58C262.616 257.8 262.693 256.957 262.759 256.05C262.826 255.143 262.886 254.193 262.939 253.2H270.699V264H268.599V255.17H264.819C264.779 255.697 264.733 256.257 264.679 256.85C264.633 257.437 264.579 258.02 264.519 258.6C264.459 259.18 264.396 259.723 264.329 260.23C264.263 260.737 264.193 261.17 264.119 261.53C263.986 262.25 263.789 262.823 263.529 263.25C263.276 263.67 262.916 263.94 262.449 264.06C261.983 264.187 261.363 264.167 260.589 264ZM282.604 253.2V264H280.594V256.49L275.194 264H273.494V253.2H275.504V260.56L280.914 253.2H282.604ZM291.788 264V260.24C291.421 260.427 290.991 260.58 290.498 260.7C290.005 260.813 289.485 260.87 288.938 260.87C287.831 260.87 286.941 260.623 286.268 260.13C285.601 259.63 285.168 258.91 284.968 257.97C284.915 257.69 284.875 257.403 284.848 257.11C284.821 256.81 284.805 256.537 284.798 256.29C284.798 256.043 284.798 255.86 284.798 255.74V253.2H286.918V255.74C286.918 255.913 286.925 256.143 286.938 256.43C286.951 256.71 286.988 256.983 287.048 257.25C287.175 257.85 287.428 258.297 287.808 258.59C288.188 258.877 288.725 259.02 289.418 259.02C289.918 259.02 290.368 258.957 290.768 258.83C291.175 258.697 291.515 258.527 291.788 258.32V253.2H293.898V264H291.788ZM296.697 264V253.2H298.787V257.61H304.057V253.2H306.147V264H304.057V259.58H298.787V264H296.697ZM308.943 264V253.2H311.043V256.95H312.463C312.769 256.95 313.099 256.957 313.453 256.97C313.806 256.983 314.106 257.017 314.353 257.07C314.933 257.19 315.436 257.39 315.863 257.67C316.289 257.95 316.616 258.323 316.843 258.79C317.076 259.25 317.193 259.817 317.193 260.49C317.193 261.43 316.949 262.18 316.463 262.74C315.976 263.293 315.316 263.667 314.483 263.86C314.216 263.92 313.899 263.96 313.533 263.98C313.173 263.993 312.839 264 312.533 264H308.943ZM311.043 262.32H312.653C312.826 262.32 313.019 262.313 313.233 262.3C313.446 262.287 313.643 262.257 313.823 262.21C314.136 262.117 314.419 261.927 314.673 261.64C314.926 261.353 315.053 260.97 315.053 260.49C315.053 259.997 314.926 259.603 314.673 259.31C314.426 259.017 314.113 258.827 313.733 258.74C313.559 258.693 313.376 258.663 313.183 258.65C312.996 258.637 312.819 258.63 312.653 258.63H311.043V262.32ZM318.383 264V253.2H320.473V264H318.383ZM323.259 264V253.2H325.009L328.999 261.12L332.979 253.2H334.739V264H332.719V257.48L329.469 264H328.519L325.269 257.48V264H323.259ZM346.646 253.2V264H344.636V256.49L339.236 264H337.536V253.2H339.546V260.56L344.956 253.2H346.646ZM151.638 291V280.2H160.748V291H158.658V282.17H153.728V291H151.638ZM162.543 291V289.23C162.943 289.303 163.246 289.293 163.453 289.2C163.666 289.1 163.823 288.92 163.923 288.66C164.029 288.4 164.119 288.063 164.193 287.65C164.306 287.043 164.403 286.353 164.483 285.58C164.569 284.8 164.646 283.957 164.713 283.05C164.779 282.143 164.839 281.193 164.893 280.2H172.653V291H170.553V282.17H166.773C166.733 282.697 166.686 283.257 166.633 283.85C166.586 284.437 166.533 285.02 166.473 285.6C166.413 286.18 166.349 286.723 166.283 287.23C166.216 287.737 166.146 288.17 166.073 288.53C165.939 289.25 165.743 289.823 165.483 290.25C165.229 290.67 164.869 290.94 164.403 291.06C163.936 291.187 163.316 291.167 162.543 291ZM178.507 291.3C177.707 291.3 177.037 291.153 176.497 290.86C175.957 290.56 175.547 290.167 175.267 289.68C174.993 289.187 174.857 288.647 174.857 288.06C174.857 287.513 174.953 287.033 175.147 286.62C175.34 286.207 175.627 285.857 176.007 285.57C176.387 285.277 176.853 285.04 177.407 284.86C177.887 284.72 178.43 284.597 179.037 284.49C179.643 284.383 180.28 284.283 180.947 284.19C181.62 284.097 182.287 284.003 182.947 283.91L182.187 284.33C182.2 283.483 182.02 282.857 181.647 282.45C181.28 282.037 180.647 281.83 179.747 281.83C179.18 281.83 178.66 281.963 178.187 282.23C177.713 282.49 177.383 282.923 177.197 283.53L175.247 282.93C175.513 282.003 176.02 281.267 176.767 280.72C177.52 280.173 178.52 279.9 179.767 279.9C180.733 279.9 181.573 280.067 182.287 280.4C183.007 280.727 183.533 281.247 183.867 281.96C184.04 282.313 184.147 282.687 184.187 283.08C184.227 283.473 184.247 283.897 184.247 284.35V291H182.397V288.53L182.757 288.85C182.31 289.677 181.74 290.293 181.047 290.7C180.36 291.1 179.513 291.3 178.507 291.3ZM178.877 289.59C179.47 289.59 179.98 289.487 180.407 289.28C180.833 289.067 181.177 288.797 181.437 288.47C181.697 288.143 181.867 287.803 181.947 287.45C182.06 287.13 182.123 286.77 182.137 286.37C182.157 285.97 182.167 285.65 182.167 285.41L182.847 285.66C182.187 285.76 181.587 285.85 181.047 285.93C180.507 286.01 180.017 286.09 179.577 286.17C179.143 286.243 178.757 286.333 178.417 286.44C178.13 286.54 177.873 286.66 177.647 286.8C177.427 286.94 177.25 287.11 177.117 287.31C176.99 287.51 176.927 287.753 176.927 288.04C176.927 288.32 176.997 288.58 177.137 288.82C177.277 289.053 177.49 289.24 177.777 289.38C178.063 289.52 178.43 289.59 178.877 289.59ZM189.633 291V282.08H185.943V280.2H195.413V282.08H191.723V291H189.633ZM202.197 295.5V291.19C201.143 291.357 200.187 291.243 199.327 290.85C198.467 290.457 197.783 289.817 197.277 288.93C196.77 288.043 196.517 286.937 196.517 285.61C196.517 284.283 196.77 283.173 197.277 282.28C197.783 281.387 198.467 280.743 199.327 280.35C200.187 279.957 201.143 279.843 202.197 280.01V276.74H204.077V280.01C205.13 279.843 206.087 279.957 206.947 280.35C207.807 280.743 208.49 281.387 208.997 282.28C209.503 283.173 209.757 284.283 209.757 285.61C209.757 286.937 209.503 288.043 208.997 288.93C208.49 289.817 207.807 290.457 206.947 290.85C206.087 291.243 205.13 291.357 204.077 291.19V295.5H202.197ZM202.197 289.3V281.91C201.657 281.817 201.167 281.833 200.727 281.96C200.293 282.087 199.923 282.31 199.617 282.63C199.31 282.943 199.073 283.353 198.907 283.86C198.74 284.36 198.657 284.943 198.657 285.61C198.657 286.277 198.74 286.86 198.907 287.36C199.08 287.86 199.323 288.27 199.637 288.59C199.957 288.903 200.333 289.123 200.767 289.25C201.2 289.37 201.677 289.387 202.197 289.3ZM204.077 289.3C204.597 289.387 205.073 289.37 205.507 289.25C205.94 289.13 206.313 288.913 206.627 288.6C206.947 288.287 207.19 287.88 207.357 287.38C207.53 286.873 207.617 286.283 207.617 285.61C207.617 284.93 207.533 284.34 207.367 283.84C207.2 283.333 206.963 282.923 206.657 282.61C206.35 282.29 205.977 282.07 205.537 281.95C205.103 281.83 204.617 281.817 204.077 281.91V289.3ZM216.651 291.3C215.571 291.3 214.634 291.057 213.841 290.57C213.047 290.083 212.434 289.413 212.001 288.56C211.574 287.7 211.361 286.71 211.361 285.59C211.361 284.463 211.581 283.473 212.021 282.62C212.461 281.76 213.077 281.093 213.871 280.62C214.664 280.14 215.591 279.9 216.651 279.9C217.731 279.9 218.667 280.143 219.461 280.63C220.254 281.117 220.867 281.787 221.301 282.64C221.734 283.493 221.951 284.477 221.951 285.59C221.951 286.717 221.731 287.71 221.291 288.57C220.857 289.423 220.244 290.093 219.451 290.58C218.657 291.06 217.724 291.3 216.651 291.3ZM216.651 289.33C217.684 289.33 218.454 288.983 218.961 288.29C219.474 287.59 219.731 286.69 219.731 285.59C219.731 284.463 219.471 283.563 218.951 282.89C218.437 282.21 217.671 281.87 216.651 281.87C215.951 281.87 215.374 282.03 214.921 282.35C214.467 282.663 214.131 283.1 213.911 283.66C213.691 284.213 213.581 284.857 213.581 285.59C213.581 286.723 213.841 287.63 214.361 288.31C214.881 288.99 215.644 289.33 216.651 289.33ZM229.218 291.3C228.185 291.3 227.318 291.05 226.618 290.55C225.918 290.043 225.388 289.36 225.028 288.5C224.668 287.64 224.488 286.67 224.488 285.59C224.488 284.51 224.665 283.54 225.018 282.68C225.378 281.82 225.905 281.143 226.598 280.65C227.298 280.15 228.158 279.9 229.178 279.9C230.191 279.9 231.065 280.15 231.798 280.65C232.538 281.143 233.108 281.82 233.508 282.68C233.908 283.533 234.108 284.503 234.108 285.59C234.108 286.67 233.908 287.643 233.508 288.51C233.115 289.37 232.551 290.05 231.818 290.55C231.091 291.05 230.225 291.3 229.218 291.3ZM224.138 295.8V280.2H225.998V287.97H226.238V295.8H224.138ZM228.928 289.41C229.595 289.41 230.145 289.24 230.578 288.9C231.018 288.56 231.345 288.103 231.558 287.53C231.778 286.95 231.888 286.303 231.888 285.59C231.888 284.883 231.778 284.243 231.558 283.67C231.345 283.097 231.015 282.64 230.568 282.3C230.121 281.96 229.551 281.79 228.858 281.79C228.205 281.79 227.665 281.95 227.238 282.27C226.818 282.59 226.505 283.037 226.298 283.61C226.098 284.183 225.998 284.843 225.998 285.59C225.998 286.337 226.098 286.997 226.298 287.57C226.498 288.143 226.815 288.593 227.248 288.92C227.681 289.247 228.241 289.41 228.928 289.41ZM236.306 291V280.2H238.056L242.046 288.12L246.026 280.2H247.786V291H245.766V284.48L242.516 291H241.566L238.316 284.48V291H236.306ZM253.643 291.3C252.843 291.3 252.173 291.153 251.633 290.86C251.093 290.56 250.683 290.167 250.403 289.68C250.13 289.187 249.993 288.647 249.993 288.06C249.993 287.513 250.09 287.033 250.283 286.62C250.477 286.207 250.763 285.857 251.143 285.57C251.523 285.277 251.99 285.04 252.543 284.86C253.023 284.72 253.567 284.597 254.173 284.49C254.78 284.383 255.417 284.283 256.083 284.19C256.757 284.097 257.423 284.003 258.083 283.91L257.323 284.33C257.337 283.483 257.157 282.857 256.783 282.45C256.417 282.037 255.783 281.83 254.883 281.83C254.317 281.83 253.797 281.963 253.323 282.23C252.85 282.49 252.52 282.923 252.333 283.53L250.383 282.93C250.65 282.003 251.157 281.267 251.903 280.72C252.657 280.173 253.657 279.9 254.903 279.9C255.87 279.9 256.71 280.067 257.423 280.4C258.143 280.727 258.67 281.247 259.003 281.96C259.177 282.313 259.283 282.687 259.323 283.08C259.363 283.473 259.383 283.897 259.383 284.35V291H257.533V288.53L257.893 288.85C257.447 289.677 256.877 290.293 256.183 290.7C255.497 291.1 254.65 291.3 253.643 291.3ZM254.013 289.59C254.607 289.59 255.117 289.487 255.543 289.28C255.97 289.067 256.313 288.797 256.573 288.47C256.833 288.143 257.003 287.803 257.083 287.45C257.197 287.13 257.26 286.77 257.273 286.37C257.293 285.97 257.303 285.65 257.303 285.41L257.983 285.66C257.323 285.76 256.723 285.85 256.183 285.93C255.643 286.01 255.153 286.09 254.713 286.17C254.28 286.243 253.893 286.333 253.553 286.44C253.267 286.54 253.01 286.66 252.783 286.8C252.563 286.94 252.387 287.11 252.253 287.31C252.127 287.51 252.063 287.753 252.063 288.04C252.063 288.32 252.133 288.58 252.273 288.82C252.413 289.053 252.627 289.24 252.913 289.38C253.2 289.52 253.567 289.59 254.013 289.59ZM261.97 291V280.2H263.72L267.71 288.12L271.69 280.2H273.45V291H271.43V284.48L268.18 291H267.23L263.98 284.48V291H261.97ZM285.357 280.2V291H283.347V283.49L277.947 291H276.247V280.2H278.257V287.56L283.667 280.2H285.357Z" fill="black"/>
<path d="M206.875 132.625H192.708C188.796 132.625 185.625 135.796 185.625 139.708V153.875C185.625 157.787 188.796 160.958 192.708 160.958H206.875C210.787 160.958 213.958 157.787 213.958 153.875V139.708C213.958 135.796 210.787 132.625 206.875 132.625Z" stroke="black" stroke-width="3" stroke-linecap="round" stroke-linejoin="round"/>
<path d="M199.792 160.958V175.125C199.792 177.003 200.538 178.805 201.867 180.133C203.195 181.462 204.997 182.208 206.875 182.208H221.042" stroke="black" stroke-width="3" stroke-linecap="round" stroke-linejoin="round"/>
<path d="M242.292 168.042H228.125C224.213 168.042 221.042 171.213 221.042 175.125V189.292C221.042 193.204 224.213 196.375 228.125 196.375H242.292C246.204 196.375 249.375 193.204 249.375 189.292V175.125C249.375 171.213 246.204 168.042 242.292 168.042Z" stroke="black" stroke-width="3" stroke-linecap="round" stroke-linejoin="round"/>
<g filter="url(#filter0_f_585_6764)">
<path d="M143.5 209.5C130.3 224.3 92.3333 224.333 75 222.5L70 193L83.5 156C88.1667 145.833 98.1 124.3 100.5 119.5C102.9 114.7 126.833 101.167 138.5 95L182.5 78.5L233.5 70.5L266.5 78.5V112H233.5L198 131.5L182.5 162C175 171.667 156.7 194.7 143.5 209.5Z" fill="#C3CB27" fill-opacity="0.5" style="mix-blend-mode:plus-lighter"/>
<path d="M143.5 347L124.5 310.5H332.5L319.5 323.5L297 347L233.5 364.5H187.5L143.5 347Z" fill="#C3CB27" fill-opacity="0.5" style="mix-blend-mode:plus-lighter"/>
<path d="M286.5 193L274.5 131.5H297H309L324.5 143C327.167 147.333 333.4 156.6 337 159C340.6 161.4 345.833 169.667 348 173.5L355 186L365.5 209.5V242C361 244.333 348.1 247.6 332.5 242C316.9 236.4 310.333 226.667 309 222.5L286.5 193Z" fill="#C3CB27" fill-opacity="0.5" style="mix-blend-mode:plus-lighter"/>
</g>
<defs>
<filter id="filter0_f_585_6764" x="0" y="0.5" width="435.5" height="434" filterUnits="userSpaceOnUse" color-interpolation-filters="sRGB">
<feFlood flood-opacity="0" result="BackgroundImageFix"/>
<feBlend mode="normal" in="SourceGraphic" in2="BackgroundImageFix" result="shape"/>
<feGaussianBlur stdDeviation="35" result="effect1_foregroundBlur_585_6764"/>
</filter>
</defs>
</svg>
