<svg width="138" height="83" viewBox="0 0 138 83" fill="none" xmlns="http://www.w3.org/2000/svg">
<path d="M0.947022 47.4404V35.2644H3.39913L10.8738 44.1597V35.2644H13.123V47.4404H10.6709L3.17929 38.5283V47.4404H0.947022ZM15.0514 47.4404V35.2644H26.2635V37.5136H17.3006V40.2194H24.5047V42.4855H17.3006V45.1913H26.2635V47.4404H15.0514ZM30.282 47.4404C29.8536 47.4404 29.459 47.3333 29.0982 47.1191C28.7487 46.9049 28.4669 46.6231 28.2526 46.2736C28.0384 45.9128 27.9313 45.5182 27.9313 45.0898V35.2644H30.1636V44.9883C30.1636 45.0447 30.1805 45.0954 30.2143 45.1405C30.2594 45.1743 30.3102 45.1913 30.3665 45.1913H37.6383C37.6947 45.1913 37.7454 45.1743 37.7905 45.1405C37.8356 45.0954 37.8582 45.0447 37.8582 44.9883V35.2644H40.1073V45.0898C40.1073 45.5182 40.0002 45.9128 39.786 46.2736C39.5718 46.6231 39.2843 46.9049 38.9236 47.1191C38.5741 47.3333 38.1851 47.4404 37.7567 47.4404H30.282ZM51.6766 47.4404L48.0069 43.0605H50.9326L54.1118 46.8147V47.4404H51.6766ZM41.9697 47.4404V35.2813H51.7781C52.2065 35.2813 52.6011 35.3884 52.9619 35.6027C53.3227 35.8169 53.6101 36.1043 53.8244 36.4651C54.0386 36.8146 54.1457 37.2036 54.1457 37.632V40.9127C54.1457 41.3412 54.0386 41.7357 53.8244 42.0965C53.6101 42.4573 53.3227 42.7448 52.9619 42.959C52.6011 43.1619 52.2065 43.2634 51.7781 43.2634L44.2019 43.2803V47.4404H41.9697ZM44.4049 41.0142H51.6766C51.733 41.0142 51.7838 40.9973 51.8288 40.9635C51.8739 40.9297 51.8965 40.8846 51.8965 40.8282V37.7165C51.8965 37.6602 51.8739 37.6151 51.8288 37.5813C51.7838 37.5362 51.733 37.5136 51.6766 37.5136H44.4049C44.3485 37.5136 44.2978 37.5362 44.2527 37.5813C44.2188 37.6151 44.2019 37.6602 44.2019 37.7165V40.8282C44.2019 40.8846 44.2188 40.9297 44.2527 40.9635C44.2978 40.9973 44.3485 41.0142 44.4049 41.0142ZM58.2415 47.4404C57.813 47.4404 57.4185 47.3333 57.0577 47.1191C56.7082 46.9049 56.4263 46.6231 56.2121 46.2736C55.9979 45.9128 55.8908 45.5182 55.8908 45.0898V37.6151C55.8908 37.1867 55.9979 36.7977 56.2121 36.4482C56.4263 36.0874 56.7082 35.7999 57.0577 35.5857C57.4185 35.3715 57.813 35.2644 58.2415 35.2644H65.7162C66.1446 35.2644 66.5335 35.3715 66.883 35.5857C67.2438 35.7999 67.5313 36.0874 67.7455 36.4482C67.9597 36.7977 68.0668 37.1867 68.0668 37.6151V45.0898C68.0668 45.5182 67.9597 45.9128 67.7455 46.2736C67.5313 46.6231 67.2438 46.9049 66.883 47.1191C66.5335 47.3333 66.1446 47.4404 65.7162 47.4404H58.2415ZM58.326 45.1913H65.5978C65.6542 45.1913 65.7049 45.1743 65.75 45.1405C65.7951 45.0954 65.8176 45.0447 65.8176 44.9883V37.7165C65.8176 37.6602 65.7951 37.6151 65.75 37.5813C65.7049 37.5362 65.6542 37.5136 65.5978 37.5136H58.326C58.2696 37.5136 58.2189 37.5362 58.1738 37.5813C58.14 37.6151 58.1231 37.6602 58.1231 37.7165V44.9883C58.1231 45.0447 58.14 45.0954 58.1738 45.1405C58.2189 45.1743 58.2696 45.1913 58.326 45.1913ZM69.9461 47.4404V35.2475H72.1783V45.1913H82.1221V47.4404H69.9461ZM83.1417 47.4404V35.2644H94.3538V37.5136H85.3909V40.2194H92.5951V42.4855H85.3909V45.1913H94.3538V47.4404H83.1417ZM96.0893 47.4404V37.6151C96.0893 37.1867 96.1964 36.7977 96.4106 36.4482C96.6248 36.0874 96.9067 35.7999 97.2562 35.5857C97.6169 35.3715 98.0115 35.2644 98.44 35.2644H105.898C106.326 35.2644 106.721 35.3715 107.082 35.5857C107.442 35.7999 107.73 36.0874 107.944 36.4482C108.158 36.7977 108.265 37.1867 108.265 37.6151V47.4404H106.016V43.3479H98.3216V47.4404H96.0893ZM98.3216 41.1157H106.016V37.7165C106.016 37.6602 105.994 37.6151 105.948 37.5813C105.903 37.5362 105.853 37.5136 105.796 37.5136H98.5245C98.4681 37.5136 98.4174 37.5362 98.3723 37.5813C98.3385 37.6151 98.3216 37.6602 98.3216 37.7165V41.1157ZM119.899 47.4404L116.229 43.0605H119.155L122.334 46.8147V47.4404H119.899ZM110.192 47.4404V35.2813H120.001C120.429 35.2813 120.824 35.3884 121.184 35.6027C121.545 35.8169 121.833 36.1043 122.047 36.4651C122.261 36.8146 122.368 37.2036 122.368 37.632V40.9127C122.368 41.3412 122.261 41.7357 122.047 42.0965C121.833 42.4573 121.545 42.7448 121.184 42.959C120.824 43.1619 120.429 43.2634 120.001 43.2634L112.424 43.2803V47.4404H110.192ZM112.627 41.0142H119.899C119.955 41.0142 120.006 40.9973 120.051 40.9635C120.096 40.9297 120.119 40.8846 120.119 40.8282V37.7165C120.119 37.6602 120.096 37.6151 120.051 37.5813C120.006 37.5362 119.955 37.5136 119.899 37.5136H112.627C112.571 37.5136 112.52 37.5362 112.475 37.5813C112.441 37.6151 112.424 37.6602 112.424 37.7165V40.8282C112.424 40.8846 112.441 40.9297 112.475 40.9635C112.52 40.9973 112.571 41.0142 112.627 41.0142ZM124.147 47.4404V35.2644H126.599L134.074 44.1597V35.2644H136.323V47.4404H133.871L126.379 38.5283V47.4404H124.147Z" fill="url(#paint0_linear_589_5954)"/>
<path d="M32.1297 66.798L20.292 54.9603H37.203L32.1297 66.798ZM32.1297 66.798L38.8941 70.1802M32.1297 66.798L47.3496 61.7247M38.8941 70.1802L55.3701 76.7706M38.8941 70.1802L47.3496 61.7247M38.8941 70.1802H49.4503M55.8051 76.9446L71.025 78.6357M55.8051 76.9446L55.3701 76.7706M55.8051 76.9446L64.2606 66.798M71.025 78.6357L64.2606 66.798M71.025 78.6357L77.7894 65.1069M71.025 78.6357L86.2449 76.9446M86.2449 76.9446L104.847 70.1802M86.2449 76.9446L64.2606 66.798M86.2449 76.9446L77.7894 65.1069M86.2449 76.9446L89.6272 70.1802M104.847 70.1802L120.067 54.9603H106.538L99.7738 58.3425L93.0094 61.7247M104.847 70.1802L93.0094 61.7247M104.847 70.1802H89.6272M70.0424 54.9603L93.0094 61.7247M70.0424 54.9603L77.7894 65.1069M70.0424 54.9603L64.2606 66.798M70.0424 54.9603L47.3496 61.7247M47.3496 61.7247L64.2606 66.798M47.3496 61.7247L49.4503 70.1802M55.3701 76.7706L49.4503 70.1802M64.2606 66.798L77.7894 65.1069M64.2606 66.798L49.4503 70.1802M77.7894 65.1069L89.6272 70.1802M77.7894 65.1069L93.0094 61.7247M93.0094 61.7247L89.6272 70.1802" stroke="url(#paint1_linear_589_5954)" stroke-width="0.0845555"/>
<circle cx="3.3822" cy="3.3822" r="2.95942" transform="matrix(1 0 0 -1 16.9102 58.3438)" fill="url(#paint2_linear_589_5954)" stroke="url(#paint3_linear_589_5954)" stroke-width="0.845555"/>
<circle cx="2.53665" cy="2.53665" r="2.11387" transform="matrix(1 0 0 -1 54.1152 78.6357)" fill="url(#paint4_linear_589_5954)" stroke="url(#paint5_linear_589_5954)" stroke-width="0.845555"/>
<circle cx="2.53665" cy="2.53665" r="2.11387" transform="matrix(1 0 0 -1 101.466 71.8721)" fill="url(#paint6_linear_589_5954)" stroke="url(#paint7_linear_589_5954)" stroke-width="0.845555"/>
<circle cx="1.6911" cy="1.6911" r="1.26832" transform="matrix(1 0 0 -1 30.4395 68.4893)" fill="url(#paint8_linear_589_5954)" stroke="url(#paint9_linear_589_5954)" stroke-width="0.845555"/>
<circle cx="1.6911" cy="1.6911" r="1.26832" transform="matrix(1 0 0 -1 62.5703 68.4893)" fill="url(#paint10_linear_589_5954)" stroke="url(#paint11_linear_589_5954)" stroke-width="0.845555"/>
<circle cx="1.6911" cy="1.6911" r="1.26832" transform="matrix(1 0 0 -1 87.9375 71.8721)" fill="url(#paint12_linear_589_5954)" stroke="url(#paint13_linear_589_5954)" stroke-width="0.845555"/>
<circle cx="3.3822" cy="3.3822" r="2.95942" transform="matrix(1 0 0 -1 88.9521 65.1084)" fill="url(#paint14_linear_589_5954)" stroke="url(#paint15_linear_589_5954)" stroke-width="0.845555"/>
<circle cx="3.3822" cy="3.3822" r="2.95942" transform="matrix(1 0 0 -1 74.4082 68.4893)" fill="url(#paint16_linear_589_5954)" stroke="url(#paint17_linear_589_5954)" stroke-width="0.845555"/>
<circle cx="3.3822" cy="3.3822" r="2.95942" transform="matrix(1 0 0 -1 33.8223 58.3438)" fill="url(#paint18_linear_589_5954)" stroke="url(#paint19_linear_589_5954)" stroke-width="0.845555"/>
<circle cx="1.6911" cy="1.6911" r="1.26832" transform="matrix(1 0 0 -1 37.2031 71.8721)" fill="url(#paint20_linear_589_5954)" stroke="url(#paint21_linear_589_5954)" stroke-width="0.845555"/>
<circle cx="2.11388" cy="2.11388" r="1.6911" transform="matrix(1 0 0 -1 47.3506 71.8721)" fill="url(#paint22_linear_589_5954)" stroke="url(#paint23_linear_589_5954)" stroke-width="0.845555"/>
<circle cx="2.53665" cy="2.53665" r="2.11387" transform="matrix(1 0 0 -1 67.6436 58.3438)" fill="url(#paint24_linear_589_5954)" stroke="url(#paint25_linear_589_5954)" stroke-width="0.845555"/>
<circle cx="3.3822" cy="3.3822" r="2.95942" transform="matrix(1 0 0 -1 43.9688 65.1074)" fill="url(#paint26_linear_589_5954)" stroke="url(#paint27_linear_589_5954)" stroke-width="0.845555"/>
<circle cx="1.6911" cy="1.6911" r="1.26832" transform="matrix(1 0 0 -1 84.5557 78.6357)" fill="url(#paint28_linear_589_5954)" stroke="url(#paint29_linear_589_5954)" stroke-width="0.845555"/>
<circle cx="2.53665" cy="2.53665" r="2.11387" transform="matrix(1 0 0 -1 118.376 58.3438)" fill="url(#paint30_linear_589_5954)" stroke="url(#paint31_linear_589_5954)" stroke-width="0.845555"/>
<circle cx="3.3822" cy="3.3822" r="2.95942" transform="matrix(1 0 0 -1 67.6436 82.0186)" fill="url(#paint32_linear_589_5954)" stroke="url(#paint33_linear_589_5954)" stroke-width="0.845555"/>
<path d="M32.1297 15.2205L20.292 27.0582H37.203L32.1297 15.2205ZM32.1297 15.2205L38.8941 11.8383M32.1297 15.2205L47.3496 20.2938M38.8941 11.8383L55.3701 5.24794M38.8941 11.8383L47.3496 20.2938M38.8941 11.8383H49.4503M55.8051 5.07391L71.025 3.38281M55.8051 5.07391L55.3701 5.24794M55.8051 5.07391L64.2606 15.2205M71.025 3.38281L64.2606 15.2205M71.025 3.38281L77.7894 16.9116M71.025 3.38281L86.2449 5.07391M86.2449 5.07391L104.847 11.8383M86.2449 5.07391L64.2606 15.2205M86.2449 5.07391L77.7894 16.9116M86.2449 5.07391L89.6272 11.8383M104.847 11.8383L120.067 27.0582H106.538L99.7738 23.676L93.0094 20.2938M104.847 11.8383L93.0094 20.2938M104.847 11.8383H89.6272M70.0424 27.0582L93.0094 20.2938M70.0424 27.0582L77.7894 16.9116M70.0424 27.0582L64.2606 15.2205M70.0424 27.0582L47.3496 20.2938M47.3496 20.2938L64.2606 15.2205M47.3496 20.2938L49.4503 11.8383M55.3701 5.24794L49.4503 11.8383M64.2606 15.2205L77.7894 16.9116M64.2606 15.2205L49.4503 11.8383M77.7894 16.9116L89.6272 11.8383M77.7894 16.9116L93.0094 20.2938M93.0094 20.2938L89.6272 11.8383" stroke="url(#paint34_linear_589_5954)" stroke-width="0.0845555"/>
<circle cx="20.2924" cy="27.058" r="2.95942" fill="url(#paint35_linear_589_5954)" stroke="url(#paint36_linear_589_5954)" stroke-width="0.845555"/>
<circle cx="56.6519" cy="5.91946" r="2.11387" fill="url(#paint37_linear_589_5954)" stroke="url(#paint38_linear_589_5954)" stroke-width="0.845555"/>
<circle cx="104.002" cy="12.6831" r="2.11387" fill="url(#paint39_linear_589_5954)" stroke="url(#paint40_linear_589_5954)" stroke-width="0.845555"/>
<circle cx="32.1306" cy="15.2214" r="1.26832" fill="url(#paint41_linear_589_5954)" stroke="url(#paint42_linear_589_5954)" stroke-width="0.845555"/>
<circle cx="64.2614" cy="15.2214" r="1.26832" fill="url(#paint43_linear_589_5954)" stroke="url(#paint44_linear_589_5954)" stroke-width="0.845555"/>
<circle cx="89.6286" cy="11.8376" r="1.26832" fill="url(#paint45_linear_589_5954)" stroke="url(#paint46_linear_589_5954)" stroke-width="0.845555"/>
<circle cx="92.3344" cy="20.2924" r="2.95942" fill="url(#paint47_linear_589_5954)" stroke="url(#paint48_linear_589_5954)" stroke-width="0.845555"/>
<circle cx="77.7904" cy="16.9125" r="2.95942" fill="url(#paint49_linear_589_5954)" stroke="url(#paint50_linear_589_5954)" stroke-width="0.845555"/>
<circle cx="37.2045" cy="27.058" r="2.95942" fill="url(#paint51_linear_589_5954)" stroke="url(#paint52_linear_589_5954)" stroke-width="0.845555"/>
<circle cx="38.8942" cy="11.8376" r="1.26832" fill="url(#paint53_linear_589_5954)" stroke="url(#paint54_linear_589_5954)" stroke-width="0.845555"/>
<circle cx="49.4645" cy="12.2604" r="1.6911" fill="url(#paint55_linear_589_5954)" stroke="url(#paint56_linear_589_5954)" stroke-width="0.845555"/>
<circle cx="70.1802" cy="26.2124" r="2.11387" fill="url(#paint57_linear_589_5954)" stroke="url(#paint58_linear_589_5954)" stroke-width="0.845555"/>
<circle cx="47.351" cy="20.2943" r="2.95942" fill="url(#paint59_linear_589_5954)" stroke="url(#paint60_linear_589_5954)" stroke-width="0.845555"/>
<circle cx="86.2468" cy="5.07391" r="1.26832" fill="url(#paint61_linear_589_5954)" stroke="url(#paint62_linear_589_5954)" stroke-width="0.845555"/>
<circle cx="120.913" cy="26.2124" r="2.11387" fill="url(#paint63_linear_589_5954)" stroke="url(#paint64_linear_589_5954)" stroke-width="0.845555"/>
<circle cx="71.0258" cy="3.3822" r="2.95942" fill="url(#paint65_linear_589_5954)" stroke="url(#paint66_linear_589_5954)" stroke-width="0.845555"/>
<defs>
<linearGradient id="paint0_linear_589_5954" x1="0.846626" y1="35.0604" x2="136.518" y2="52.2524" gradientUnits="userSpaceOnUse">
<stop stop-color="#17D4A3"/>
<stop offset="1" stop-color="#6A0DAD"/>
</linearGradient>
<linearGradient id="paint1_linear_589_5954" x1="20.534" y1="80.5687" x2="121.275" y2="53.7526" gradientUnits="userSpaceOnUse">
<stop stop-color="#17D4A3"/>
<stop offset="1" stop-color="#6A0DAD"/>
</linearGradient>
<linearGradient id="paint2_linear_589_5954" x1="0.0164107" y1="-0.552264" x2="7.3012" y2="-0.0921342" gradientUnits="userSpaceOnUse">
<stop stop-color="#17D4A3"/>
<stop offset="1" stop-color="#6A0DAD"/>
</linearGradient>
<linearGradient id="paint3_linear_589_5954" x1="0.0164107" y1="-0.552264" x2="7.3012" y2="-0.0921342" gradientUnits="userSpaceOnUse">
<stop stop-color="#17D4A3"/>
<stop offset="1" stop-color="#6A0DAD"/>
</linearGradient>
<linearGradient id="paint4_linear_589_5954" x1="0.012308" y1="-0.414198" x2="5.4759" y2="-0.0691007" gradientUnits="userSpaceOnUse">
<stop stop-color="#17D4A3"/>
<stop offset="1" stop-color="#6A0DAD"/>
</linearGradient>
<linearGradient id="paint5_linear_589_5954" x1="0.012308" y1="-0.414198" x2="5.4759" y2="-0.0691007" gradientUnits="userSpaceOnUse">
<stop stop-color="#17D4A3"/>
<stop offset="1" stop-color="#6A0DAD"/>
</linearGradient>
<linearGradient id="paint6_linear_589_5954" x1="0.012308" y1="-0.414198" x2="5.4759" y2="-0.0691007" gradientUnits="userSpaceOnUse">
<stop stop-color="#17D4A3"/>
<stop offset="1" stop-color="#6A0DAD"/>
</linearGradient>
<linearGradient id="paint7_linear_589_5954" x1="0.012308" y1="-0.414198" x2="5.4759" y2="-0.0691007" gradientUnits="userSpaceOnUse">
<stop stop-color="#17D4A3"/>
<stop offset="1" stop-color="#6A0DAD"/>
</linearGradient>
<linearGradient id="paint8_linear_589_5954" x1="0.00820535" y1="-0.276132" x2="3.6506" y2="-0.0460671" gradientUnits="userSpaceOnUse">
<stop stop-color="#17D4A3"/>
<stop offset="1" stop-color="#6A0DAD"/>
</linearGradient>
<linearGradient id="paint9_linear_589_5954" x1="0.00820535" y1="-0.276132" x2="3.6506" y2="-0.0460671" gradientUnits="userSpaceOnUse">
<stop stop-color="#17D4A3"/>
<stop offset="1" stop-color="#6A0DAD"/>
</linearGradient>
<linearGradient id="paint10_linear_589_5954" x1="0.00820535" y1="-0.276132" x2="3.6506" y2="-0.0460671" gradientUnits="userSpaceOnUse">
<stop stop-color="#17D4A3"/>
<stop offset="1" stop-color="#6A0DAD"/>
</linearGradient>
<linearGradient id="paint11_linear_589_5954" x1="0.00820535" y1="-0.276132" x2="3.6506" y2="-0.0460671" gradientUnits="userSpaceOnUse">
<stop stop-color="#17D4A3"/>
<stop offset="1" stop-color="#6A0DAD"/>
</linearGradient>
<linearGradient id="paint12_linear_589_5954" x1="0.00820535" y1="-0.276132" x2="3.6506" y2="-0.0460671" gradientUnits="userSpaceOnUse">
<stop stop-color="#17D4A3"/>
<stop offset="1" stop-color="#6A0DAD"/>
</linearGradient>
<linearGradient id="paint13_linear_589_5954" x1="0.00820535" y1="-0.276132" x2="3.6506" y2="-0.0460671" gradientUnits="userSpaceOnUse">
<stop stop-color="#17D4A3"/>
<stop offset="1" stop-color="#6A0DAD"/>
</linearGradient>
<linearGradient id="paint14_linear_589_5954" x1="0.0164107" y1="-0.552264" x2="7.3012" y2="-0.0921342" gradientUnits="userSpaceOnUse">
<stop stop-color="#17D4A3"/>
<stop offset="1" stop-color="#6A0DAD"/>
</linearGradient>
<linearGradient id="paint15_linear_589_5954" x1="0.0164107" y1="-0.552264" x2="7.3012" y2="-0.0921342" gradientUnits="userSpaceOnUse">
<stop stop-color="#17D4A3"/>
<stop offset="1" stop-color="#6A0DAD"/>
</linearGradient>
<linearGradient id="paint16_linear_589_5954" x1="0.0164107" y1="-0.552264" x2="7.3012" y2="-0.0921342" gradientUnits="userSpaceOnUse">
<stop stop-color="#17D4A3"/>
<stop offset="1" stop-color="#6A0DAD"/>
</linearGradient>
<linearGradient id="paint17_linear_589_5954" x1="0.0164107" y1="-0.552264" x2="7.3012" y2="-0.0921342" gradientUnits="userSpaceOnUse">
<stop stop-color="#17D4A3"/>
<stop offset="1" stop-color="#6A0DAD"/>
</linearGradient>
<linearGradient id="paint18_linear_589_5954" x1="0.0164107" y1="-0.552264" x2="7.3012" y2="-0.0921342" gradientUnits="userSpaceOnUse">
<stop stop-color="#17D4A3"/>
<stop offset="1" stop-color="#6A0DAD"/>
</linearGradient>
<linearGradient id="paint19_linear_589_5954" x1="0.0164107" y1="-0.552264" x2="7.3012" y2="-0.0921342" gradientUnits="userSpaceOnUse">
<stop stop-color="#17D4A3"/>
<stop offset="1" stop-color="#6A0DAD"/>
</linearGradient>
<linearGradient id="paint20_linear_589_5954" x1="0.00820535" y1="-0.276132" x2="3.6506" y2="-0.0460671" gradientUnits="userSpaceOnUse">
<stop stop-color="#17D4A3"/>
<stop offset="1" stop-color="#6A0DAD"/>
</linearGradient>
<linearGradient id="paint21_linear_589_5954" x1="0.00820535" y1="-0.276132" x2="3.6506" y2="-0.0460671" gradientUnits="userSpaceOnUse">
<stop stop-color="#17D4A3"/>
<stop offset="1" stop-color="#6A0DAD"/>
</linearGradient>
<linearGradient id="paint22_linear_589_5954" x1="0.0102567" y1="-0.345165" x2="4.56325" y2="-0.0575839" gradientUnits="userSpaceOnUse">
<stop stop-color="#17D4A3"/>
<stop offset="1" stop-color="#6A0DAD"/>
</linearGradient>
<linearGradient id="paint23_linear_589_5954" x1="0.0102567" y1="-0.345165" x2="4.56325" y2="-0.0575839" gradientUnits="userSpaceOnUse">
<stop stop-color="#17D4A3"/>
<stop offset="1" stop-color="#6A0DAD"/>
</linearGradient>
<linearGradient id="paint24_linear_589_5954" x1="0.012308" y1="-0.414198" x2="5.4759" y2="-0.0691007" gradientUnits="userSpaceOnUse">
<stop stop-color="#17D4A3"/>
<stop offset="1" stop-color="#6A0DAD"/>
</linearGradient>
<linearGradient id="paint25_linear_589_5954" x1="0.012308" y1="-0.414198" x2="5.4759" y2="-0.0691007" gradientUnits="userSpaceOnUse">
<stop stop-color="#17D4A3"/>
<stop offset="1" stop-color="#6A0DAD"/>
</linearGradient>
<linearGradient id="paint26_linear_589_5954" x1="0.0164107" y1="-0.552264" x2="7.3012" y2="-0.0921342" gradientUnits="userSpaceOnUse">
<stop stop-color="#17D4A3"/>
<stop offset="1" stop-color="#6A0DAD"/>
</linearGradient>
<linearGradient id="paint27_linear_589_5954" x1="0.0164107" y1="-0.552264" x2="7.3012" y2="-0.0921342" gradientUnits="userSpaceOnUse">
<stop stop-color="#17D4A3"/>
<stop offset="1" stop-color="#6A0DAD"/>
</linearGradient>
<linearGradient id="paint28_linear_589_5954" x1="0.00820535" y1="-0.276132" x2="3.6506" y2="-0.0460671" gradientUnits="userSpaceOnUse">
<stop stop-color="#17D4A3"/>
<stop offset="1" stop-color="#6A0DAD"/>
</linearGradient>
<linearGradient id="paint29_linear_589_5954" x1="0.00820535" y1="-0.276132" x2="3.6506" y2="-0.0460671" gradientUnits="userSpaceOnUse">
<stop stop-color="#17D4A3"/>
<stop offset="1" stop-color="#6A0DAD"/>
</linearGradient>
<linearGradient id="paint30_linear_589_5954" x1="0.012308" y1="-0.414198" x2="5.4759" y2="-0.0691007" gradientUnits="userSpaceOnUse">
<stop stop-color="#17D4A3"/>
<stop offset="1" stop-color="#6A0DAD"/>
</linearGradient>
<linearGradient id="paint31_linear_589_5954" x1="0.012308" y1="-0.414198" x2="5.4759" y2="-0.0691007" gradientUnits="userSpaceOnUse">
<stop stop-color="#17D4A3"/>
<stop offset="1" stop-color="#6A0DAD"/>
</linearGradient>
<linearGradient id="paint32_linear_589_5954" x1="0.0164107" y1="-0.552264" x2="7.3012" y2="-0.0921342" gradientUnits="userSpaceOnUse">
<stop stop-color="#17D4A3"/>
<stop offset="1" stop-color="#6A0DAD"/>
</linearGradient>
<linearGradient id="paint33_linear_589_5954" x1="0.0164107" y1="-0.552264" x2="7.3012" y2="-0.0921342" gradientUnits="userSpaceOnUse">
<stop stop-color="#17D4A3"/>
<stop offset="1" stop-color="#6A0DAD"/>
</linearGradient>
<linearGradient id="paint34_linear_589_5954" x1="20.534" y1="1.44989" x2="121.275" y2="28.2659" gradientUnits="userSpaceOnUse">
<stop stop-color="#17D4A3"/>
<stop offset="1" stop-color="#6A0DAD"/>
</linearGradient>
<linearGradient id="paint35_linear_589_5954" x1="16.9266" y1="23.1235" x2="24.2114" y2="23.5836" gradientUnits="userSpaceOnUse">
<stop stop-color="#17D4A3"/>
<stop offset="1" stop-color="#6A0DAD"/>
</linearGradient>
<linearGradient id="paint36_linear_589_5954" x1="16.9266" y1="23.1235" x2="24.2114" y2="23.5836" gradientUnits="userSpaceOnUse">
<stop stop-color="#17D4A3"/>
<stop offset="1" stop-color="#6A0DAD"/>
</linearGradient>
<linearGradient id="paint37_linear_589_5954" x1="54.1275" y1="2.96861" x2="59.5911" y2="3.31371" gradientUnits="userSpaceOnUse">
<stop stop-color="#17D4A3"/>
<stop offset="1" stop-color="#6A0DAD"/>
</linearGradient>
<linearGradient id="paint38_linear_589_5954" x1="54.1275" y1="2.96861" x2="59.5911" y2="3.31371" gradientUnits="userSpaceOnUse">
<stop stop-color="#17D4A3"/>
<stop offset="1" stop-color="#6A0DAD"/>
</linearGradient>
<linearGradient id="paint39_linear_589_5954" x1="101.478" y1="9.73229" x2="106.942" y2="10.0774" gradientUnits="userSpaceOnUse">
<stop stop-color="#17D4A3"/>
<stop offset="1" stop-color="#6A0DAD"/>
</linearGradient>
<linearGradient id="paint40_linear_589_5954" x1="101.478" y1="9.73229" x2="106.942" y2="10.0774" gradientUnits="userSpaceOnUse">
<stop stop-color="#17D4A3"/>
<stop offset="1" stop-color="#6A0DAD"/>
</linearGradient>
<linearGradient id="paint41_linear_589_5954" x1="30.4477" y1="13.2541" x2="34.0901" y2="13.4842" gradientUnits="userSpaceOnUse">
<stop stop-color="#17D4A3"/>
<stop offset="1" stop-color="#6A0DAD"/>
</linearGradient>
<linearGradient id="paint42_linear_589_5954" x1="30.4477" y1="13.2541" x2="34.0901" y2="13.4842" gradientUnits="userSpaceOnUse">
<stop stop-color="#17D4A3"/>
<stop offset="1" stop-color="#6A0DAD"/>
</linearGradient>
<linearGradient id="paint43_linear_589_5954" x1="62.5785" y1="13.2541" x2="66.2209" y2="13.4842" gradientUnits="userSpaceOnUse">
<stop stop-color="#17D4A3"/>
<stop offset="1" stop-color="#6A0DAD"/>
</linearGradient>
<linearGradient id="paint44_linear_589_5954" x1="62.5785" y1="13.2541" x2="66.2209" y2="13.4842" gradientUnits="userSpaceOnUse">
<stop stop-color="#17D4A3"/>
<stop offset="1" stop-color="#6A0DAD"/>
</linearGradient>
<linearGradient id="paint45_linear_589_5954" x1="87.9457" y1="9.87035" x2="91.5881" y2="10.1004" gradientUnits="userSpaceOnUse">
<stop stop-color="#17D4A3"/>
<stop offset="1" stop-color="#6A0DAD"/>
</linearGradient>
<linearGradient id="paint46_linear_589_5954" x1="87.9457" y1="9.87035" x2="91.5881" y2="10.1004" gradientUnits="userSpaceOnUse">
<stop stop-color="#17D4A3"/>
<stop offset="1" stop-color="#6A0DAD"/>
</linearGradient>
<linearGradient id="paint47_linear_589_5954" x1="88.9686" y1="16.3579" x2="96.2534" y2="16.818" gradientUnits="userSpaceOnUse">
<stop stop-color="#17D4A3"/>
<stop offset="1" stop-color="#6A0DAD"/>
</linearGradient>
<linearGradient id="paint48_linear_589_5954" x1="88.9686" y1="16.3579" x2="96.2534" y2="16.818" gradientUnits="userSpaceOnUse">
<stop stop-color="#17D4A3"/>
<stop offset="1" stop-color="#6A0DAD"/>
</linearGradient>
<linearGradient id="paint49_linear_589_5954" x1="74.4246" y1="12.978" x2="81.7094" y2="13.4381" gradientUnits="userSpaceOnUse">
<stop stop-color="#17D4A3"/>
<stop offset="1" stop-color="#6A0DAD"/>
</linearGradient>
<linearGradient id="paint50_linear_589_5954" x1="74.4246" y1="12.978" x2="81.7094" y2="13.4381" gradientUnits="userSpaceOnUse">
<stop stop-color="#17D4A3"/>
<stop offset="1" stop-color="#6A0DAD"/>
</linearGradient>
<linearGradient id="paint51_linear_589_5954" x1="33.8387" y1="23.1235" x2="41.1235" y2="23.5836" gradientUnits="userSpaceOnUse">
<stop stop-color="#17D4A3"/>
<stop offset="1" stop-color="#6A0DAD"/>
</linearGradient>
<linearGradient id="paint52_linear_589_5954" x1="33.8387" y1="23.1235" x2="41.1235" y2="23.5836" gradientUnits="userSpaceOnUse">
<stop stop-color="#17D4A3"/>
<stop offset="1" stop-color="#6A0DAD"/>
</linearGradient>
<linearGradient id="paint53_linear_589_5954" x1="37.2113" y1="9.87035" x2="40.8537" y2="10.1004" gradientUnits="userSpaceOnUse">
<stop stop-color="#17D4A3"/>
<stop offset="1" stop-color="#6A0DAD"/>
</linearGradient>
<linearGradient id="paint54_linear_589_5954" x1="37.2113" y1="9.87035" x2="40.8537" y2="10.1004" gradientUnits="userSpaceOnUse">
<stop stop-color="#17D4A3"/>
<stop offset="1" stop-color="#6A0DAD"/>
</linearGradient>
<linearGradient id="paint55_linear_589_5954" x1="47.3608" y1="9.80132" x2="51.9138" y2="10.0889" gradientUnits="userSpaceOnUse">
<stop stop-color="#17D4A3"/>
<stop offset="1" stop-color="#6A0DAD"/>
</linearGradient>
<linearGradient id="paint56_linear_589_5954" x1="47.3608" y1="9.80132" x2="51.9138" y2="10.0889" gradientUnits="userSpaceOnUse">
<stop stop-color="#17D4A3"/>
<stop offset="1" stop-color="#6A0DAD"/>
</linearGradient>
<linearGradient id="paint57_linear_589_5954" x1="67.6559" y1="23.2616" x2="73.1195" y2="23.6067" gradientUnits="userSpaceOnUse">
<stop stop-color="#17D4A3"/>
<stop offset="1" stop-color="#6A0DAD"/>
</linearGradient>
<linearGradient id="paint58_linear_589_5954" x1="67.6559" y1="23.2616" x2="73.1195" y2="23.6067" gradientUnits="userSpaceOnUse">
<stop stop-color="#17D4A3"/>
<stop offset="1" stop-color="#6A0DAD"/>
</linearGradient>
<linearGradient id="paint59_linear_589_5954" x1="43.9852" y1="16.3598" x2="51.27" y2="16.82" gradientUnits="userSpaceOnUse">
<stop stop-color="#17D4A3"/>
<stop offset="1" stop-color="#6A0DAD"/>
</linearGradient>
<linearGradient id="paint60_linear_589_5954" x1="43.9852" y1="16.3598" x2="51.27" y2="16.82" gradientUnits="userSpaceOnUse">
<stop stop-color="#17D4A3"/>
<stop offset="1" stop-color="#6A0DAD"/>
</linearGradient>
<linearGradient id="paint61_linear_589_5954" x1="84.5639" y1="3.10668" x2="88.2063" y2="3.33675" gradientUnits="userSpaceOnUse">
<stop stop-color="#17D4A3"/>
<stop offset="1" stop-color="#6A0DAD"/>
</linearGradient>
<linearGradient id="paint62_linear_589_5954" x1="84.5639" y1="3.10668" x2="88.2063" y2="3.33675" gradientUnits="userSpaceOnUse">
<stop stop-color="#17D4A3"/>
<stop offset="1" stop-color="#6A0DAD"/>
</linearGradient>
<linearGradient id="paint63_linear_589_5954" x1="118.388" y1="23.2616" x2="123.852" y2="23.6067" gradientUnits="userSpaceOnUse">
<stop stop-color="#17D4A3"/>
<stop offset="1" stop-color="#6A0DAD"/>
</linearGradient>
<linearGradient id="paint64_linear_589_5954" x1="118.388" y1="23.2616" x2="123.852" y2="23.6067" gradientUnits="userSpaceOnUse">
<stop stop-color="#17D4A3"/>
<stop offset="1" stop-color="#6A0DAD"/>
</linearGradient>
<linearGradient id="paint65_linear_589_5954" x1="67.66" y1="-0.552264" x2="74.9448" y2="-0.0921342" gradientUnits="userSpaceOnUse">
<stop stop-color="#17D4A3"/>
<stop offset="1" stop-color="#6A0DAD"/>
</linearGradient>
<linearGradient id="paint66_linear_589_5954" x1="67.66" y1="-0.552264" x2="74.9448" y2="-0.0921342" gradientUnits="userSpaceOnUse">
<stop stop-color="#17D4A3"/>
<stop offset="1" stop-color="#6A0DAD"/>
</linearGradient>
</defs>
</svg>
