<svg width="436" height="435" viewBox="0 0 436 435" fill="none" xmlns="http://www.w3.org/2000/svg">
<circle cx="218" cy="217" r="170.5" stroke="#20C997" stroke-opacity="0.25"/>
<circle cx="218" cy="217" r="160.5" stroke="#20C997" stroke-opacity="0.25"/>
<path d="M132.693 264V249.6H141.893V251.57H134.783V264H132.693ZM146.582 264.3C145.502 264.3 144.566 264.057 143.772 263.57C142.979 263.083 142.366 262.413 141.932 261.56C141.506 260.7 141.292 259.71 141.292 258.59C141.292 257.463 141.512 256.473 141.952 255.62C142.392 254.76 143.009 254.093 143.802 253.62C144.596 253.14 145.522 252.9 146.582 252.9C147.662 252.9 148.599 253.143 149.392 253.63C150.186 254.117 150.799 254.787 151.232 255.64C151.666 256.493 151.882 257.477 151.882 258.59C151.882 259.717 151.662 260.71 151.222 261.57C150.789 262.423 150.176 263.093 149.382 263.58C148.589 264.06 147.656 264.3 146.582 264.3ZM146.582 262.33C147.616 262.33 148.386 261.983 148.892 261.29C149.406 260.59 149.662 259.69 149.662 258.59C149.662 257.463 149.402 256.563 148.882 255.89C148.369 255.21 147.602 254.87 146.582 254.87C145.882 254.87 145.306 255.03 144.852 255.35C144.399 255.663 144.062 256.1 143.842 256.66C143.622 257.213 143.512 257.857 143.512 258.59C143.512 259.723 143.772 260.63 144.292 261.31C144.812 261.99 145.576 262.33 146.582 262.33ZM156.635 264V255.08H152.945V253.2H162.415V255.08H158.725V264H156.635ZM168.809 264.3C167.729 264.3 166.792 264.057 165.999 263.57C165.205 263.083 164.592 262.413 164.159 261.56C163.732 260.7 163.519 259.71 163.519 258.59C163.519 257.463 163.739 256.473 164.179 255.62C164.619 254.76 165.235 254.093 166.029 253.62C166.822 253.14 167.749 252.9 168.809 252.9C169.889 252.9 170.825 253.143 171.619 253.63C172.412 254.117 173.025 254.787 173.459 255.64C173.892 256.493 174.109 257.477 174.109 258.59C174.109 259.717 173.889 260.71 173.449 261.57C173.015 262.423 172.402 263.093 171.609 263.58C170.815 264.06 169.882 264.3 168.809 264.3ZM168.809 262.33C169.842 262.33 170.612 261.983 171.119 261.29C171.632 260.59 171.889 259.69 171.889 258.59C171.889 257.463 171.629 256.563 171.109 255.89C170.595 255.21 169.829 254.87 168.809 254.87C168.109 254.87 167.532 255.03 167.079 255.35C166.625 255.663 166.289 256.1 166.069 256.66C165.849 257.213 165.739 257.857 165.739 258.59C165.739 259.723 165.999 260.63 166.519 261.31C167.039 261.99 167.802 262.33 168.809 262.33ZM176.296 264V253.2H181.046C181.36 253.2 181.673 253.22 181.986 253.26C182.3 253.293 182.576 253.343 182.816 253.41C183.363 253.563 183.83 253.87 184.216 254.33C184.603 254.783 184.796 255.39 184.796 256.15C184.796 256.583 184.73 256.95 184.596 257.25C184.463 257.543 184.28 257.797 184.046 258.01C183.94 258.103 183.826 258.187 183.706 258.26C183.586 258.333 183.466 258.39 183.346 258.43C183.593 258.47 183.836 258.557 184.076 258.69C184.443 258.883 184.743 259.163 184.976 259.53C185.216 259.89 185.336 260.373 185.336 260.98C185.336 261.707 185.16 262.317 184.806 262.81C184.453 263.297 183.953 263.63 183.306 263.81C183.053 263.883 182.766 263.933 182.446 263.96C182.133 263.987 181.82 264 181.506 264H176.296ZM178.416 262.35H181.376C181.516 262.35 181.676 262.337 181.856 262.31C182.036 262.283 182.196 262.247 182.336 262.2C182.636 262.107 182.85 261.937 182.976 261.69C183.11 261.443 183.176 261.18 183.176 260.9C183.176 260.52 183.076 260.217 182.876 259.99C182.676 259.757 182.423 259.607 182.116 259.54C181.983 259.493 181.836 259.467 181.676 259.46C181.516 259.453 181.38 259.45 181.266 259.45H178.416V262.35ZM178.416 257.77H180.756C180.95 257.77 181.146 257.76 181.346 257.74C181.546 257.713 181.72 257.67 181.866 257.61C182.126 257.51 182.32 257.343 182.446 257.11C182.573 256.87 182.636 256.61 182.636 256.33C182.636 256.023 182.566 255.75 182.426 255.51C182.286 255.27 182.076 255.103 181.796 255.01C181.603 254.943 181.38 254.907 181.126 254.9C180.88 254.887 180.723 254.88 180.656 254.88H178.416V257.77ZM187.331 264V253.2H189.431V256.95H190.851C191.158 256.95 191.488 256.957 191.841 256.97C192.195 256.983 192.495 257.017 192.741 257.07C193.321 257.19 193.825 257.39 194.251 257.67C194.678 257.95 195.005 258.323 195.231 258.79C195.465 259.25 195.581 259.817 195.581 260.49C195.581 261.43 195.338 262.18 194.851 262.74C194.365 263.293 193.705 263.667 192.871 263.86C192.605 263.92 192.288 263.96 191.921 263.98C191.561 263.993 191.228 264 190.921 264H187.331ZM189.431 262.32H191.041C191.215 262.32 191.408 262.313 191.621 262.3C191.835 262.287 192.031 262.257 192.211 262.21C192.525 262.117 192.808 261.927 193.061 261.64C193.315 261.353 193.441 260.97 193.441 260.49C193.441 259.997 193.315 259.603 193.061 259.31C192.815 259.017 192.501 258.827 192.121 258.74C191.948 258.693 191.765 258.663 191.571 258.65C191.385 258.637 191.208 258.63 191.041 258.63H189.431V262.32ZM196.771 264V253.2H198.861V264H196.771ZM206.448 264.3C205.374 264.3 204.431 264.067 203.618 263.6C202.811 263.127 202.181 262.47 201.728 261.63C201.281 260.783 201.058 259.803 201.058 258.69C201.058 257.51 201.278 256.487 201.718 255.62C202.164 254.753 202.784 254.083 203.578 253.61C204.371 253.137 205.294 252.9 206.348 252.9C207.448 252.9 208.384 253.157 209.158 253.67C209.931 254.177 210.508 254.9 210.888 255.84C211.274 256.78 211.428 257.897 211.348 259.19H209.258V258.43C209.244 257.177 209.004 256.25 208.538 255.65C208.078 255.05 207.374 254.75 206.428 254.75C205.381 254.75 204.594 255.08 204.068 255.74C203.541 256.4 203.278 257.353 203.278 258.6C203.278 259.787 203.541 260.707 204.068 261.36C204.594 262.007 205.354 262.33 206.348 262.33C207.001 262.33 207.564 262.183 208.038 261.89C208.518 261.59 208.891 261.163 209.158 260.61L211.208 261.26C210.788 262.227 210.151 262.977 209.298 263.51C208.444 264.037 207.494 264.3 206.448 264.3ZM202.598 259.19V257.56H210.308V259.19H202.598ZM217.585 264V253.2H219.595V262.12H222.985V253.2H224.995V262.12H228.375V253.2H230.385V264H217.585ZM236.231 264.3C235.431 264.3 234.761 264.153 234.221 263.86C233.681 263.56 233.271 263.167 232.991 262.68C232.718 262.187 232.581 261.647 232.581 261.06C232.581 260.513 232.678 260.033 232.871 259.62C233.065 259.207 233.351 258.857 233.731 258.57C234.111 258.277 234.578 258.04 235.131 257.86C235.611 257.72 236.155 257.597 236.761 257.49C237.368 257.383 238.005 257.283 238.671 257.19C239.345 257.097 240.011 257.003 240.671 256.91L239.911 257.33C239.925 256.483 239.745 255.857 239.371 255.45C239.005 255.037 238.371 254.83 237.471 254.83C236.905 254.83 236.385 254.963 235.911 255.23C235.438 255.49 235.108 255.923 234.921 256.53L232.971 255.93C233.238 255.003 233.745 254.267 234.491 253.72C235.245 253.173 236.245 252.9 237.491 252.9C238.458 252.9 239.298 253.067 240.011 253.4C240.731 253.727 241.258 254.247 241.591 254.96C241.765 255.313 241.871 255.687 241.911 256.08C241.951 256.473 241.971 256.897 241.971 257.35V264H240.121V261.53L240.481 261.85C240.035 262.677 239.465 263.293 238.771 263.7C238.085 264.1 237.238 264.3 236.231 264.3ZM236.601 262.59C237.195 262.59 237.705 262.487 238.131 262.28C238.558 262.067 238.901 261.797 239.161 261.47C239.421 261.143 239.591 260.803 239.671 260.45C239.785 260.13 239.848 259.77 239.861 259.37C239.881 258.97 239.891 258.65 239.891 258.41L240.571 258.66C239.911 258.76 239.311 258.85 238.771 258.93C238.231 259.01 237.741 259.09 237.301 259.17C236.868 259.243 236.481 259.333 236.141 259.44C235.855 259.54 235.598 259.66 235.371 259.8C235.151 259.94 234.975 260.11 234.841 260.31C234.715 260.51 234.651 260.753 234.651 261.04C234.651 261.32 234.721 261.58 234.861 261.82C235.001 262.053 235.215 262.24 235.501 262.38C235.788 262.52 236.155 262.59 236.601 262.59ZM249.008 264.31C247.981 264.303 247.108 264.08 246.388 263.64C245.668 263.2 245.105 262.567 244.698 261.74C244.298 260.907 244.065 259.903 243.998 258.73C243.965 258.163 243.968 257.537 244.008 256.85C244.048 256.157 244.121 255.487 244.228 254.84C244.341 254.193 244.485 253.653 244.658 253.22C244.851 252.74 245.115 252.3 245.448 251.9C245.781 251.493 246.148 251.153 246.548 250.88C246.975 250.587 247.448 250.36 247.968 250.2C248.488 250.033 249.031 249.903 249.598 249.81C250.171 249.717 250.748 249.637 251.328 249.57C251.915 249.497 252.485 249.407 253.038 249.3L253.238 251.17C252.871 251.257 252.438 251.327 251.938 251.38C251.445 251.433 250.931 251.493 250.398 251.56C249.871 251.627 249.368 251.72 248.888 251.84C248.408 251.96 247.991 252.13 247.638 252.35C247.138 252.657 246.755 253.103 246.488 253.69C246.228 254.277 246.071 254.913 246.018 255.6C246.431 254.973 246.958 254.523 247.598 254.25C248.238 253.97 248.901 253.83 249.588 253.83C250.548 253.83 251.375 254.057 252.068 254.51C252.768 254.963 253.305 255.58 253.678 256.36C254.051 257.14 254.238 258.023 254.238 259.01C254.238 260.077 254.018 261.01 253.578 261.81C253.145 262.603 252.535 263.223 251.748 263.67C250.961 264.11 250.048 264.323 249.008 264.31ZM249.118 262.34C250.078 262.34 250.801 262.043 251.288 261.45C251.781 260.857 252.028 260.067 252.028 259.08C252.028 258.067 251.775 257.27 251.268 256.69C250.761 256.11 250.045 255.82 249.118 255.82C248.178 255.82 247.458 256.11 246.958 256.69C246.465 257.27 246.218 258.067 246.218 259.08C246.218 260.107 246.468 260.907 246.968 261.48C247.468 262.053 248.185 262.34 249.118 262.34ZM255.443 264V262.23C255.843 262.303 256.146 262.293 256.353 262.2C256.566 262.1 256.723 261.92 256.823 261.66C256.93 261.4 257.02 261.063 257.093 260.65C257.206 260.043 257.303 259.353 257.383 258.58C257.47 257.8 257.546 256.957 257.613 256.05C257.68 255.143 257.74 254.193 257.793 253.2H265.553V264H263.453V255.17H259.673C259.633 255.697 259.586 256.257 259.533 256.85C259.486 257.437 259.433 258.02 259.373 258.6C259.313 259.18 259.25 259.723 259.183 260.23C259.116 260.737 259.046 261.17 258.973 261.53C258.84 262.25 258.643 262.823 258.383 263.25C258.13 263.67 257.77 263.94 257.303 264.06C256.836 264.187 256.216 264.167 255.443 264ZM273.047 264.3C271.967 264.3 271.03 264.057 270.237 263.57C269.444 263.083 268.83 262.413 268.397 261.56C267.97 260.7 267.757 259.71 267.757 258.59C267.757 257.463 267.977 256.473 268.417 255.62C268.857 254.76 269.474 254.093 270.267 253.62C271.06 253.14 271.987 252.9 273.047 252.9C274.127 252.9 275.064 253.143 275.857 253.63C276.65 254.117 277.264 254.787 277.697 255.64C278.13 256.493 278.347 257.477 278.347 258.59C278.347 259.717 278.127 260.71 277.687 261.57C277.254 262.423 276.64 263.093 275.847 263.58C275.054 264.06 274.12 264.3 273.047 264.3ZM273.047 262.33C274.08 262.33 274.85 261.983 275.357 261.29C275.87 260.59 276.127 259.69 276.127 258.59C276.127 257.463 275.867 256.563 275.347 255.89C274.834 255.21 274.067 254.87 273.047 254.87C272.347 254.87 271.77 255.03 271.317 255.35C270.864 255.663 270.527 256.1 270.307 256.66C270.087 257.213 269.977 257.857 269.977 258.59C269.977 259.723 270.237 260.63 270.757 261.31C271.277 261.99 272.04 262.33 273.047 262.33ZM280.535 264V253.2H282.625V257.61H287.895V253.2H289.985V264H287.895V259.58H282.625V264H280.535ZM292.781 264V253.2H294.881V256.95H296.301C296.607 256.95 296.937 256.957 297.291 256.97C297.644 256.983 297.944 257.017 298.191 257.07C298.771 257.19 299.274 257.39 299.701 257.67C300.127 257.95 300.454 258.323 300.681 258.79C300.914 259.25 301.031 259.817 301.031 260.49C301.031 261.43 300.787 262.18 300.301 262.74C299.814 263.293 299.154 263.667 298.321 263.86C298.054 263.92 297.737 263.96 297.371 263.98C297.011 263.993 296.677 264 296.371 264H292.781ZM294.881 262.32H296.491C296.664 262.32 296.857 262.313 297.071 262.3C297.284 262.287 297.481 262.257 297.661 262.21C297.974 262.117 298.257 261.927 298.511 261.64C298.764 261.353 298.891 260.97 298.891 260.49C298.891 259.997 298.764 259.603 298.511 259.31C298.264 259.017 297.951 258.827 297.571 258.74C297.397 258.693 297.214 258.663 297.021 258.65C296.834 258.637 296.657 258.63 296.491 258.63H294.881V262.32ZM302.221 264V253.2H304.311V264H302.221ZM117.083 295.8L119.173 290.11L119.203 291.79L114.493 280.2H116.673L120.193 289.15H119.553L122.913 280.2H125.033L119.073 295.8H117.083ZM126.589 291V280.2H135.699V291H133.609V282.17H128.679V291H126.589ZM143.564 291.3C142.53 291.3 141.664 291.05 140.964 290.55C140.264 290.043 139.734 289.36 139.374 288.5C139.014 287.64 138.834 286.67 138.834 285.59C138.834 284.51 139.01 283.54 139.364 282.68C139.724 281.82 140.25 281.143 140.944 280.65C141.644 280.15 142.504 279.9 143.524 279.9C144.537 279.9 145.41 280.15 146.144 280.65C146.884 281.143 147.454 281.82 147.854 282.68C148.254 283.533 148.454 284.503 148.454 285.59C148.454 286.67 148.254 287.643 147.854 288.51C147.46 289.37 146.897 290.05 146.164 290.55C145.437 291.05 144.57 291.3 143.564 291.3ZM138.484 295.8V280.2H140.344V287.97H140.584V295.8H138.484ZM143.274 289.41C143.94 289.41 144.49 289.24 144.924 288.9C145.364 288.56 145.69 288.103 145.904 287.53C146.124 286.95 146.234 286.303 146.234 285.59C146.234 284.883 146.124 284.243 145.904 283.67C145.69 283.097 145.36 282.64 144.914 282.3C144.467 281.96 143.897 281.79 143.204 281.79C142.55 281.79 142.01 281.95 141.584 282.27C141.164 282.59 140.85 283.037 140.644 283.61C140.444 284.183 140.344 284.843 140.344 285.59C140.344 286.337 140.444 286.997 140.644 287.57C140.844 288.143 141.16 288.593 141.594 288.92C142.027 289.247 142.587 289.41 143.274 289.41ZM153.712 291.3C152.912 291.3 152.242 291.153 151.702 290.86C151.162 290.56 150.752 290.167 150.472 289.68C150.198 289.187 150.062 288.647 150.062 288.06C150.062 287.513 150.158 287.033 150.352 286.62C150.545 286.207 150.832 285.857 151.212 285.57C151.592 285.277 152.058 285.04 152.612 284.86C153.092 284.72 153.635 284.597 154.242 284.49C154.848 284.383 155.485 284.283 156.152 284.19C156.825 284.097 157.492 284.003 158.152 283.91L157.392 284.33C157.405 283.483 157.225 282.857 156.852 282.45C156.485 282.037 155.852 281.83 154.952 281.83C154.385 281.83 153.865 281.963 153.392 282.23C152.918 282.49 152.588 282.923 152.402 283.53L150.452 282.93C150.718 282.003 151.225 281.267 151.972 280.72C152.725 280.173 153.725 279.9 154.972 279.9C155.938 279.9 156.778 280.067 157.492 280.4C158.212 280.727 158.738 281.247 159.072 281.96C159.245 282.313 159.352 282.687 159.392 283.08C159.432 283.473 159.452 283.897 159.452 284.35V291H157.602V288.53L157.962 288.85C157.515 289.677 156.945 290.293 156.252 290.7C155.565 291.1 154.718 291.3 153.712 291.3ZM154.082 289.59C154.675 289.59 155.185 289.487 155.612 289.28C156.038 289.067 156.382 288.797 156.642 288.47C156.902 288.143 157.072 287.803 157.152 287.45C157.265 287.13 157.328 286.77 157.342 286.37C157.362 285.97 157.372 285.65 157.372 285.41L158.052 285.66C157.392 285.76 156.792 285.85 156.252 285.93C155.712 286.01 155.222 286.09 154.782 286.17C154.348 286.243 153.962 286.333 153.622 286.44C153.335 286.54 153.078 286.66 152.852 286.8C152.632 286.94 152.455 287.11 152.322 287.31C152.195 287.51 152.132 287.753 152.132 288.04C152.132 288.32 152.202 288.58 152.342 288.82C152.482 289.053 152.695 289.24 152.982 289.38C153.268 289.52 153.635 289.59 154.082 289.59ZM160.848 291L165.008 285.6L161.078 280.2H163.378L167.138 285.47V280.2H169.018V285.47L172.778 280.2H175.088L171.158 285.6L175.318 291H172.888L169.018 285.73V291H167.138V285.73L163.278 291H160.848ZM176.902 291V280.2H178.992V284.61H184.262V280.2H186.352V291H184.262V286.58H178.992V291H176.902ZM193.948 291.3C192.874 291.3 191.931 291.067 191.118 290.6C190.311 290.127 189.681 289.47 189.228 288.63C188.781 287.783 188.558 286.803 188.558 285.69C188.558 284.51 188.778 283.487 189.218 282.62C189.664 281.753 190.284 281.083 191.078 280.61C191.871 280.137 192.794 279.9 193.848 279.9C194.948 279.9 195.884 280.157 196.658 280.67C197.431 281.177 198.008 281.9 198.388 282.84C198.774 283.78 198.928 284.897 198.848 286.19H196.758V285.43C196.744 284.177 196.504 283.25 196.038 282.65C195.578 282.05 194.874 281.75 193.928 281.75C192.881 281.75 192.094 282.08 191.568 282.74C191.041 283.4 190.778 284.353 190.778 285.6C190.778 286.787 191.041 287.707 191.568 288.36C192.094 289.007 192.854 289.33 193.848 289.33C194.501 289.33 195.064 289.183 195.538 288.89C196.018 288.59 196.391 288.163 196.658 287.61L198.708 288.26C198.288 289.227 197.651 289.977 196.798 290.51C195.944 291.037 194.994 291.3 193.948 291.3ZM190.098 286.19V284.56H197.808V286.19H190.098ZM201.081 291V280.2H203.171V284.61H208.441V280.2H210.531V291H208.441V286.58H203.171V291H201.081ZM222.438 280.2V291H220.428V283.49L215.028 291H213.328V280.2H215.338V287.56L220.748 280.2H222.438ZM230.052 278.96C229.525 278.96 229.042 278.83 228.602 278.57C228.169 278.31 227.822 277.963 227.562 277.53C227.302 277.097 227.172 276.613 227.172 276.08H228.832C228.832 276.413 228.952 276.7 229.192 276.94C229.432 277.18 229.719 277.3 230.052 277.3C230.392 277.3 230.679 277.18 230.912 276.94C231.152 276.7 231.272 276.413 231.272 276.08H232.932C232.932 276.613 232.802 277.097 232.542 277.53C232.282 277.963 231.932 278.31 231.492 278.57C231.059 278.83 230.579 278.96 230.052 278.96ZM234.332 280.2V291H232.322V283.49L226.922 291H225.222V280.2H227.232V287.56L232.642 280.2H234.332ZM250.23 280.2V291H248.22V283.49L242.82 291H241.12V280.2H243.13V287.56L248.54 280.2H250.23ZM259.819 291V282.08H256.129V280.2H265.599V282.08H261.909V291H259.819ZM272.288 291.3C271.214 291.3 270.271 291.067 269.458 290.6C268.651 290.127 268.021 289.47 267.568 288.63C267.121 287.783 266.898 286.803 266.898 285.69C266.898 284.51 267.118 283.487 267.558 282.62C268.004 281.753 268.624 281.083 269.418 280.61C270.211 280.137 271.134 279.9 272.188 279.9C273.288 279.9 274.224 280.157 274.998 280.67C275.771 281.177 276.348 281.9 276.728 282.84C277.114 283.78 277.268 284.897 277.188 286.19H275.098V285.43C275.084 284.177 274.844 283.25 274.378 282.65C273.918 282.05 273.214 281.75 272.268 281.75C271.221 281.75 270.434 282.08 269.908 282.74C269.381 283.4 269.118 284.353 269.118 285.6C269.118 286.787 269.381 287.707 269.908 288.36C270.434 289.007 271.194 289.33 272.188 289.33C272.841 289.33 273.404 289.183 273.878 288.89C274.358 288.59 274.731 288.163 274.998 287.61L277.048 288.26C276.628 289.227 275.991 289.977 275.138 290.51C274.284 291.037 273.334 291.3 272.288 291.3ZM268.438 286.19V284.56H276.148V286.19H268.438ZM284.051 291.3C282.945 291.3 282.005 291.053 281.231 290.56C280.458 290.067 279.865 289.39 279.451 288.53C279.045 287.67 278.838 286.693 278.831 285.6C278.838 284.487 279.051 283.503 279.471 282.65C279.891 281.79 280.491 281.117 281.271 280.63C282.051 280.143 282.988 279.9 284.081 279.9C285.261 279.9 286.268 280.193 287.101 280.78C287.941 281.367 288.495 282.17 288.761 283.19L286.681 283.79C286.475 283.183 286.135 282.713 285.661 282.38C285.195 282.04 284.658 281.87 284.051 281.87C283.365 281.87 282.801 282.033 282.361 282.36C281.921 282.68 281.595 283.12 281.381 283.68C281.168 284.24 281.058 284.88 281.051 285.6C281.058 286.713 281.311 287.613 281.811 288.3C282.318 288.987 283.065 289.33 284.051 289.33C284.725 289.33 285.268 289.177 285.681 288.87C286.101 288.557 286.421 288.11 286.641 287.53L288.761 288.03C288.408 289.083 287.825 289.893 287.011 290.46C286.198 291.02 285.211 291.3 284.051 291.3ZM293.471 291V282.08H289.781V280.2H299.251V282.08H295.561V291H293.471ZM305.645 291.3C304.565 291.3 303.628 291.057 302.835 290.57C302.041 290.083 301.428 289.413 300.995 288.56C300.568 287.7 300.355 286.71 300.355 285.59C300.355 284.463 300.575 283.473 301.015 282.62C301.455 281.76 302.071 281.093 302.865 280.62C303.658 280.14 304.585 279.9 305.645 279.9C306.725 279.9 307.661 280.143 308.455 280.63C309.248 281.117 309.861 281.787 310.295 282.64C310.728 283.493 310.945 284.477 310.945 285.59C310.945 286.717 310.725 287.71 310.285 288.57C309.851 289.423 309.238 290.093 308.445 290.58C307.651 291.06 306.718 291.3 305.645 291.3ZM305.645 289.33C306.678 289.33 307.448 288.983 307.955 288.29C308.468 287.59 308.725 286.69 308.725 285.59C308.725 284.463 308.465 283.563 307.945 282.89C307.431 282.21 306.665 281.87 305.645 281.87C304.945 281.87 304.368 282.03 303.915 282.35C303.461 282.663 303.125 283.1 302.905 283.66C302.685 284.213 302.575 284.857 302.575 285.59C302.575 286.723 302.835 287.63 303.355 288.31C303.875 288.99 304.638 289.33 305.645 289.33ZM313.132 291V280.2H317.882C318.196 280.2 318.509 280.22 318.822 280.26C319.136 280.293 319.412 280.343 319.652 280.41C320.199 280.563 320.666 280.87 321.052 281.33C321.439 281.783 321.632 282.39 321.632 283.15C321.632 283.583 321.566 283.95 321.432 284.25C321.299 284.543 321.116 284.797 320.882 285.01C320.776 285.103 320.662 285.187 320.542 285.26C320.422 285.333 320.302 285.39 320.182 285.43C320.429 285.47 320.672 285.557 320.912 285.69C321.279 285.883 321.579 286.163 321.812 286.53C322.052 286.89 322.172 287.373 322.172 287.98C322.172 288.707 321.996 289.317 321.642 289.81C321.289 290.297 320.789 290.63 320.142 290.81C319.889 290.883 319.602 290.933 319.282 290.96C318.969 290.987 318.656 291 318.342 291H313.132ZM315.252 289.35H318.212C318.352 289.35 318.512 289.337 318.692 289.31C318.872 289.283 319.032 289.247 319.172 289.2C319.472 289.107 319.686 288.937 319.812 288.69C319.946 288.443 320.012 288.18 320.012 287.9C320.012 287.52 319.912 287.217 319.712 286.99C319.512 286.757 319.259 286.607 318.952 286.54C318.819 286.493 318.672 286.467 318.512 286.46C318.352 286.453 318.216 286.45 318.102 286.45H315.252V289.35ZM315.252 284.77H317.592C317.786 284.77 317.982 284.76 318.182 284.74C318.382 284.713 318.556 284.67 318.702 284.61C318.962 284.51 319.156 284.343 319.282 284.11C319.409 283.87 319.472 283.61 319.472 283.33C319.472 283.023 319.402 282.75 319.262 282.51C319.122 282.27 318.912 282.103 318.632 282.01C318.439 281.943 318.216 281.907 317.962 281.9C317.716 281.887 317.559 281.88 317.492 281.88H315.252V284.77Z" fill="black"/>
<path d="M242.292 132.625H192.708C188.796 132.625 185.625 135.796 185.625 139.708V189.292C185.625 193.204 188.796 196.375 192.708 196.375H242.292C246.204 196.375 249.375 193.204 249.375 189.292V139.708C249.375 135.796 246.204 132.625 242.292 132.625Z" stroke="black" stroke-width="3" stroke-linecap="round" stroke-linejoin="round"/>
<path d="M213.958 132.625V160.958L224.583 150.333L235.208 160.958V132.625" stroke="black" stroke-width="3" stroke-linecap="round" stroke-linejoin="round"/>
<g filter="url(#filter0_f_585_6757)">
<path d="M143.5 209.5C130.3 224.3 92.3333 224.333 75 222.5L70 193L83.5 156C88.1667 145.833 98.1 124.3 100.5 119.5C102.9 114.7 126.833 101.167 138.5 95L182.5 78.5L233.5 70.5L266.5 78.5V112H233.5L198 131.5L182.5 162C175 171.667 156.7 194.7 143.5 209.5Z" fill="#20C997" fill-opacity="0.5" style="mix-blend-mode:plus-lighter"/>
<path d="M143.5 347L124.5 310.5H332.5L319.5 323.5L297 347L233.5 364.5H187.5L143.5 347Z" fill="#20C997" fill-opacity="0.5" style="mix-blend-mode:plus-lighter"/>
<path d="M286.5 193L274.5 131.5H297H309L324.5 143C327.167 147.333 333.4 156.6 337 159C340.6 161.4 345.833 169.667 348 173.5L355 186L365.5 209.5V242C361 244.333 348.1 247.6 332.5 242C316.9 236.4 310.333 226.667 309 222.5L286.5 193Z" fill="#20C997" fill-opacity="0.5" style="mix-blend-mode:plus-lighter"/>
</g>
<defs>
<filter id="filter0_f_585_6757" x="0" y="0.5" width="435.5" height="434" filterUnits="userSpaceOnUse" color-interpolation-filters="sRGB">
<feFlood flood-opacity="0" result="BackgroundImageFix"/>
<feBlend mode="normal" in="SourceGraphic" in2="BackgroundImageFix" result="shape"/>
<feGaussianBlur stdDeviation="35" result="effect1_foregroundBlur_585_6757"/>
</filter>
</defs>
</svg>
