<svg width="436" height="435" viewBox="0 0 436 435" fill="none" xmlns="http://www.w3.org/2000/svg">
<circle cx="220" cy="217" r="170.5" stroke="#7A5CFA" stroke-opacity="0.25"/>
<circle cx="220" cy="217" r="160.5" stroke="#7A5CFA" stroke-opacity="0.25"/>
<path d="M113.74 264.3C112.68 264.3 111.727 264.13 110.88 263.79C110.04 263.443 109.327 262.93 108.74 262.25C108.16 261.57 107.73 260.73 107.45 259.73L109.5 259.21C109.787 260.15 110.29 260.907 111.01 261.48C111.737 262.047 112.607 262.323 113.62 262.31C114.32 262.297 114.98 262.163 115.6 261.91C116.22 261.65 116.73 261.25 117.13 260.71C117.47 260.27 117.713 259.803 117.86 259.31C118.013 258.817 118.113 258.307 118.16 257.78H113V255.81H118.17C118.077 254.91 117.84 254.12 117.46 253.44C117.087 252.76 116.577 252.23 115.93 251.85C115.29 251.463 114.52 251.277 113.62 251.29C112.553 251.303 111.657 251.603 110.93 252.19C110.203 252.77 109.713 253.557 109.46 254.55L107.35 254.25C107.71 252.677 108.447 251.46 109.56 250.6C110.68 249.733 112.073 249.3 113.74 249.3C115.14 249.3 116.337 249.617 117.33 250.25C118.323 250.877 119.083 251.753 119.61 252.88C120.143 254 120.417 255.307 120.43 256.8C120.443 258.2 120.187 259.467 119.66 260.6C119.14 261.733 118.377 262.633 117.37 263.3C116.37 263.967 115.16 264.3 113.74 264.3ZM122.417 264L122.427 253.2H124.547V258.4L128.787 253.2H131.447L126.967 258.6L131.907 264H129.067L124.547 258.8V264H122.417ZM137.41 264.3C136.33 264.3 135.394 264.057 134.6 263.57C133.807 263.083 133.194 262.413 132.76 261.56C132.334 260.7 132.12 259.71 132.12 258.59C132.12 257.463 132.34 256.473 132.78 255.62C133.22 254.76 133.837 254.093 134.63 253.62C135.424 253.14 136.35 252.9 137.41 252.9C138.49 252.9 139.427 253.143 140.22 253.63C141.014 254.117 141.627 254.787 142.06 255.64C142.494 256.493 142.71 257.477 142.71 258.59C142.71 259.717 142.49 260.71 142.05 261.57C141.617 262.423 141.004 263.093 140.21 263.58C139.417 264.06 138.484 264.3 137.41 264.3ZM137.41 262.33C138.444 262.33 139.214 261.983 139.72 261.29C140.234 260.59 140.49 259.69 140.49 258.59C140.49 257.463 140.23 256.563 139.71 255.89C139.197 255.21 138.43 254.87 137.41 254.87C136.71 254.87 136.134 255.03 135.68 255.35C135.227 255.663 134.89 256.1 134.67 256.66C134.45 257.213 134.34 257.857 134.34 258.59C134.34 259.723 134.6 260.63 135.12 261.31C135.64 261.99 136.404 262.33 137.41 262.33ZM144.898 264V253.2H146.988V257.61H152.258V253.2H154.348V264H152.258V259.58H146.988V264H144.898ZM161.844 264.3C160.764 264.3 159.827 264.057 159.034 263.57C158.241 263.083 157.627 262.413 157.194 261.56C156.767 260.7 156.554 259.71 156.554 258.59C156.554 257.463 156.774 256.473 157.214 255.62C157.654 254.76 158.271 254.093 159.064 253.62C159.857 253.14 160.784 252.9 161.844 252.9C162.924 252.9 163.861 253.143 164.654 253.63C165.447 254.117 166.061 254.787 166.494 255.64C166.927 256.493 167.144 257.477 167.144 258.59C167.144 259.717 166.924 260.71 166.484 261.57C166.051 262.423 165.437 263.093 164.644 263.58C163.851 264.06 162.917 264.3 161.844 264.3ZM161.844 262.33C162.877 262.33 163.647 261.983 164.154 261.29C164.667 260.59 164.924 259.69 164.924 258.59C164.924 257.463 164.664 256.563 164.144 255.89C163.631 255.21 162.864 254.87 161.844 254.87C161.144 254.87 160.567 255.03 160.114 255.35C159.661 255.663 159.324 256.1 159.104 256.66C158.884 257.213 158.774 257.857 158.774 258.59C158.774 259.723 159.034 260.63 159.554 261.31C160.074 261.99 160.837 262.33 161.844 262.33ZM169.331 264V253.2H171.081L175.071 261.12L179.051 253.2H180.811V264H178.791V257.48L175.541 264H174.591L171.341 257.48V264H169.331ZM192.719 253.2V264H190.709V256.49L185.309 264H183.609V253.2H185.619V260.56L191.029 253.2H192.719ZM202.083 264V260.25H199.943C199.69 260.25 199.387 260.24 199.033 260.22C198.687 260.2 198.36 260.163 198.053 260.11C197.247 259.963 196.573 259.613 196.033 259.06C195.493 258.5 195.223 257.73 195.223 256.75C195.223 255.803 195.477 255.043 195.983 254.47C196.497 253.89 197.147 253.517 197.933 253.35C198.273 253.27 198.62 253.227 198.973 253.22C199.333 253.207 199.637 253.2 199.883 253.2H204.173L204.183 264H202.083ZM194.913 264L197.643 259.73H199.853L197.143 264H194.913ZM199.763 258.57H202.083V254.88H199.763C199.617 254.88 199.437 254.887 199.223 254.9C199.01 254.913 198.803 254.95 198.603 255.01C198.397 255.07 198.197 255.177 198.003 255.33C197.817 255.483 197.663 255.68 197.543 255.92C197.423 256.153 197.363 256.423 197.363 256.73C197.363 257.19 197.493 257.57 197.753 257.87C198.013 258.163 198.323 258.357 198.683 258.45C198.877 258.503 199.07 258.537 199.263 258.55C199.457 258.563 199.623 258.57 199.763 258.57ZM210.582 263.99L210.592 262.13L216.862 256.51C217.369 256.063 217.712 255.637 217.892 255.23C218.079 254.823 218.172 254.417 218.172 254.01C218.172 253.497 218.059 253.037 217.832 252.63C217.605 252.217 217.292 251.89 216.892 251.65C216.492 251.41 216.032 251.29 215.512 251.29C214.979 251.29 214.502 251.417 214.082 251.67C213.669 251.917 213.345 252.247 213.112 252.66C212.879 253.073 212.765 253.52 212.772 254H210.632C210.632 253.067 210.842 252.25 211.262 251.55C211.689 250.843 212.272 250.293 213.012 249.9C213.752 249.5 214.599 249.3 215.552 249.3C216.459 249.3 217.272 249.507 217.992 249.92C218.712 250.327 219.279 250.887 219.692 251.6C220.112 252.313 220.322 253.127 220.322 254.04C220.322 254.7 220.235 255.26 220.062 255.72C219.889 256.18 219.629 256.607 219.282 257C218.935 257.393 218.502 257.82 217.982 258.28L213.142 262.6L212.912 262H220.322V263.99H210.582ZM227.74 264.3C226.76 264.3 225.894 264.087 225.14 263.66C224.387 263.227 223.794 262.633 223.36 261.88C222.934 261.127 222.72 260.26 222.72 259.28V254.32C222.72 253.34 222.934 252.473 223.36 251.72C223.794 250.967 224.387 250.377 225.14 249.95C225.894 249.517 226.76 249.3 227.74 249.3C228.72 249.3 229.587 249.517 230.34 249.95C231.094 250.377 231.684 250.967 232.11 251.72C232.544 252.473 232.76 253.34 232.76 254.32V259.28C232.76 260.26 232.544 261.127 232.11 261.88C231.684 262.633 231.094 263.227 230.34 263.66C229.587 264.087 228.72 264.3 227.74 264.3ZM227.74 262.3C228.274 262.3 228.757 262.173 229.19 261.92C229.63 261.66 229.98 261.313 230.24 260.88C230.5 260.44 230.63 259.95 230.63 259.41V254.17C230.63 253.637 230.5 253.153 230.24 252.72C229.98 252.28 229.63 251.933 229.19 251.68C228.757 251.42 228.274 251.29 227.74 251.29C227.207 251.29 226.72 251.42 226.28 251.68C225.847 251.933 225.5 252.28 225.24 252.72C224.98 253.153 224.85 253.637 224.85 254.17V259.41C224.85 259.95 224.98 260.44 225.24 260.88C225.5 261.313 225.847 261.66 226.28 261.92C226.72 262.173 227.207 262.3 227.74 262.3ZM239.052 261.33V257.63H235.352V255.95H239.052V252.27H240.732V255.95H244.422V257.63H240.732V261.33H239.052ZM257.411 264V260.24C257.044 260.427 256.614 260.58 256.121 260.7C255.628 260.813 255.108 260.87 254.561 260.87C253.454 260.87 252.564 260.623 251.891 260.13C251.224 259.63 250.791 258.91 250.591 257.97C250.538 257.69 250.498 257.403 250.471 257.11C250.444 256.81 250.428 256.537 250.421 256.29C250.421 256.043 250.421 255.86 250.421 255.74V253.2H252.541V255.74C252.541 255.913 252.548 256.143 252.561 256.43C252.574 256.71 252.611 256.983 252.671 257.25C252.798 257.85 253.051 258.297 253.431 258.59C253.811 258.877 254.348 259.02 255.041 259.02C255.541 259.02 255.991 258.957 256.391 258.83C256.798 258.697 257.138 258.527 257.411 258.32V253.2H259.521V264H257.411ZM265.38 264.3C264.58 264.3 263.91 264.153 263.37 263.86C262.83 263.56 262.42 263.167 262.14 262.68C261.866 262.187 261.73 261.647 261.73 261.06C261.73 260.513 261.826 260.033 262.02 259.62C262.213 259.207 262.5 258.857 262.88 258.57C263.26 258.277 263.726 258.04 264.28 257.86C264.76 257.72 265.303 257.597 265.91 257.49C266.516 257.383 267.153 257.283 267.82 257.19C268.493 257.097 269.16 257.003 269.82 256.91L269.06 257.33C269.073 256.483 268.893 255.857 268.52 255.45C268.153 255.037 267.52 254.83 266.62 254.83C266.053 254.83 265.533 254.963 265.06 255.23C264.586 255.49 264.256 255.923 264.07 256.53L262.12 255.93C262.386 255.003 262.893 254.267 263.64 253.72C264.393 253.173 265.393 252.9 266.64 252.9C267.606 252.9 268.446 253.067 269.16 253.4C269.88 253.727 270.406 254.247 270.74 254.96C270.913 255.313 271.02 255.687 271.06 256.08C271.1 256.473 271.12 256.897 271.12 257.35V264H269.27V261.53L269.63 261.85C269.183 262.677 268.613 263.293 267.92 263.7C267.233 264.1 266.386 264.3 265.38 264.3ZM265.75 262.59C266.343 262.59 266.853 262.487 267.28 262.28C267.706 262.067 268.05 261.797 268.31 261.47C268.57 261.143 268.74 260.803 268.82 260.45C268.933 260.13 268.996 259.77 269.01 259.37C269.03 258.97 269.04 258.65 269.04 258.41L269.72 258.66C269.06 258.76 268.46 258.85 267.92 258.93C267.38 259.01 266.89 259.09 266.45 259.17C266.016 259.243 265.63 259.333 265.29 259.44C265.003 259.54 264.746 259.66 264.52 259.8C264.3 259.94 264.123 260.11 263.99 260.31C263.863 260.51 263.8 260.753 263.8 261.04C263.8 261.32 263.87 261.58 264.01 261.82C264.15 262.053 264.363 262.24 264.65 262.38C264.936 262.52 265.303 262.59 265.75 262.59ZM278.336 264.3C277.23 264.3 276.29 264.053 275.516 263.56C274.743 263.067 274.15 262.39 273.736 261.53C273.33 260.67 273.123 259.693 273.116 258.6C273.123 257.487 273.336 256.503 273.756 255.65C274.176 254.79 274.776 254.117 275.556 253.63C276.336 253.143 277.273 252.9 278.366 252.9C279.546 252.9 280.553 253.193 281.386 253.78C282.226 254.367 282.78 255.17 283.046 256.19L280.966 256.79C280.76 256.183 280.42 255.713 279.946 255.38C279.48 255.04 278.943 254.87 278.336 254.87C277.65 254.87 277.086 255.033 276.646 255.36C276.206 255.68 275.88 256.12 275.666 256.68C275.453 257.24 275.343 257.88 275.336 258.6C275.343 259.713 275.596 260.613 276.096 261.3C276.603 261.987 277.35 262.33 278.336 262.33C279.01 262.33 279.553 262.177 279.966 261.87C280.386 261.557 280.706 261.11 280.926 260.53L283.046 261.03C282.693 262.083 282.11 262.893 281.296 263.46C280.483 264.02 279.496 264.3 278.336 264.3ZM289.481 264.3C288.401 264.3 287.464 264.057 286.671 263.57C285.877 263.083 285.264 262.413 284.831 261.56C284.404 260.7 284.191 259.71 284.191 258.59C284.191 257.463 284.411 256.473 284.851 255.62C285.291 254.76 285.907 254.093 286.701 253.62C287.494 253.14 288.421 252.9 289.481 252.9C290.561 252.9 291.497 253.143 292.291 253.63C293.084 254.117 293.697 254.787 294.131 255.64C294.564 256.493 294.781 257.477 294.781 258.59C294.781 259.717 294.561 260.71 294.121 261.57C293.687 262.423 293.074 263.093 292.281 263.58C291.487 264.06 290.554 264.3 289.481 264.3ZM289.481 262.33C290.514 262.33 291.284 261.983 291.791 261.29C292.304 260.59 292.561 259.69 292.561 258.59C292.561 257.463 292.301 256.563 291.781 255.89C291.267 255.21 290.501 254.87 289.481 254.87C288.781 254.87 288.204 255.03 287.751 255.35C287.297 255.663 286.961 256.1 286.741 256.66C286.521 257.213 286.411 257.857 286.411 258.59C286.411 259.723 286.671 260.63 287.191 261.31C287.711 261.99 288.474 262.33 289.481 262.33ZM296.968 264V253.2H301.718C302.031 253.2 302.345 253.22 302.658 253.26C302.971 253.293 303.248 253.343 303.488 253.41C304.035 253.563 304.501 253.87 304.888 254.33C305.275 254.783 305.468 255.39 305.468 256.15C305.468 256.583 305.401 256.95 305.268 257.25C305.135 257.543 304.951 257.797 304.718 258.01C304.611 258.103 304.498 258.187 304.378 258.26C304.258 258.333 304.138 258.39 304.018 258.43C304.265 258.47 304.508 258.557 304.748 258.69C305.115 258.883 305.415 259.163 305.648 259.53C305.888 259.89 306.008 260.373 306.008 260.98C306.008 261.707 305.831 262.317 305.478 262.81C305.125 263.297 304.625 263.63 303.978 263.81C303.725 263.883 303.438 263.933 303.118 263.96C302.805 263.987 302.491 264 302.178 264H296.968ZM299.088 262.35H302.048C302.188 262.35 302.348 262.337 302.528 262.31C302.708 262.283 302.868 262.247 303.008 262.2C303.308 262.107 303.521 261.937 303.648 261.69C303.781 261.443 303.848 261.18 303.848 260.9C303.848 260.52 303.748 260.217 303.548 259.99C303.348 259.757 303.095 259.607 302.788 259.54C302.655 259.493 302.508 259.467 302.348 259.46C302.188 259.453 302.051 259.45 301.938 259.45H299.088V262.35ZM299.088 257.77H301.428C301.621 257.77 301.818 257.76 302.018 257.74C302.218 257.713 302.391 257.67 302.538 257.61C302.798 257.51 302.991 257.343 303.118 257.11C303.245 256.87 303.308 256.61 303.308 256.33C303.308 256.023 303.238 255.75 303.098 255.51C302.958 255.27 302.748 255.103 302.468 255.01C302.275 254.943 302.051 254.907 301.798 254.9C301.551 254.887 301.395 254.88 301.328 254.88H299.088V257.77ZM312.007 264V253.2H314.097V257.61H319.367V253.2H321.457V264H319.367V259.58H314.097V264H312.007ZM327.313 264.3C326.513 264.3 325.843 264.153 325.303 263.86C324.763 263.56 324.353 263.167 324.073 262.68C323.8 262.187 323.663 261.647 323.663 261.06C323.663 260.513 323.76 260.033 323.953 259.62C324.147 259.207 324.433 258.857 324.813 258.57C325.193 258.277 325.66 258.04 326.213 257.86C326.693 257.72 327.237 257.597 327.843 257.49C328.45 257.383 329.087 257.283 329.753 257.19C330.427 257.097 331.093 257.003 331.753 256.91L330.993 257.33C331.007 256.483 330.827 255.857 330.453 255.45C330.087 255.037 329.453 254.83 328.553 254.83C327.987 254.83 327.467 254.963 326.993 255.23C326.52 255.49 326.19 255.923 326.003 256.53L324.053 255.93C324.32 255.003 324.827 254.267 325.573 253.72C326.327 253.173 327.327 252.9 328.573 252.9C329.54 252.9 330.38 253.067 331.093 253.4C331.813 253.727 332.34 254.247 332.673 254.96C332.847 255.313 332.953 255.687 332.993 256.08C333.033 256.473 333.053 256.897 333.053 257.35V264H331.203V261.53L331.563 261.85C331.117 262.677 330.547 263.293 329.853 263.7C329.167 264.1 328.32 264.3 327.313 264.3ZM327.683 262.59C328.277 262.59 328.787 262.487 329.213 262.28C329.64 262.067 329.983 261.797 330.243 261.47C330.503 261.143 330.673 260.803 330.753 260.45C330.867 260.13 330.93 259.77 330.943 259.37C330.963 258.97 330.973 258.65 330.973 258.41L331.653 258.66C330.993 258.76 330.393 258.85 329.853 258.93C329.313 259.01 328.823 259.09 328.383 259.17C327.95 259.243 327.563 259.333 327.223 259.44C326.937 259.54 326.68 259.66 326.453 259.8C326.233 259.94 326.057 260.11 325.923 260.31C325.797 260.51 325.733 260.753 325.733 261.04C325.733 261.32 325.803 261.58 325.943 261.82C326.083 262.053 326.297 262.24 326.583 262.38C326.87 262.52 327.237 262.59 327.683 262.59ZM140.251 291.3C139.218 291.3 138.351 291.05 137.651 290.55C136.951 290.043 136.421 289.36 136.061 288.5C135.701 287.64 135.521 286.67 135.521 285.59C135.521 284.51 135.698 283.54 136.051 282.68C136.411 281.82 136.938 281.143 137.631 280.65C138.331 280.15 139.191 279.9 140.211 279.9C141.225 279.9 142.098 280.15 142.831 280.65C143.571 281.143 144.141 281.82 144.541 282.68C144.941 283.533 145.141 284.503 145.141 285.59C145.141 286.67 144.941 287.643 144.541 288.51C144.148 289.37 143.585 290.05 142.851 290.55C142.125 291.05 141.258 291.3 140.251 291.3ZM135.171 295.8V280.2H137.031V287.97H137.271V295.8H135.171ZM139.961 289.41C140.628 289.41 141.178 289.24 141.611 288.9C142.051 288.56 142.378 288.103 142.591 287.53C142.811 286.95 142.921 286.303 142.921 285.59C142.921 284.883 142.811 284.243 142.591 283.67C142.378 283.097 142.048 282.64 141.601 282.3C141.155 281.96 140.585 281.79 139.891 281.79C139.238 281.79 138.698 281.95 138.271 282.27C137.851 282.59 137.538 283.037 137.331 283.61C137.131 284.183 137.031 284.843 137.031 285.59C137.031 286.337 137.131 286.997 137.331 287.57C137.531 288.143 137.848 288.593 138.281 288.92C138.715 289.247 139.275 289.41 139.961 289.41ZM150.399 291.3C149.599 291.3 148.929 291.153 148.389 290.86C147.849 290.56 147.439 290.167 147.159 289.68C146.886 289.187 146.749 288.647 146.749 288.06C146.749 287.513 146.846 287.033 147.039 286.62C147.233 286.207 147.519 285.857 147.899 285.57C148.279 285.277 148.746 285.04 149.299 284.86C149.779 284.72 150.323 284.597 150.929 284.49C151.536 284.383 152.173 284.283 152.839 284.19C153.513 284.097 154.179 284.003 154.839 283.91L154.079 284.33C154.093 283.483 153.913 282.857 153.539 282.45C153.173 282.037 152.539 281.83 151.639 281.83C151.073 281.83 150.553 281.963 150.079 282.23C149.606 282.49 149.276 282.923 149.089 283.53L147.139 282.93C147.406 282.003 147.913 281.267 148.659 280.72C149.413 280.173 150.413 279.9 151.659 279.9C152.626 279.9 153.466 280.067 154.179 280.4C154.899 280.727 155.426 281.247 155.759 281.96C155.933 282.313 156.039 282.687 156.079 283.08C156.119 283.473 156.139 283.897 156.139 284.35V291H154.289V288.53L154.649 288.85C154.203 289.677 153.633 290.293 152.939 290.7C152.253 291.1 151.406 291.3 150.399 291.3ZM150.769 289.59C151.363 289.59 151.873 289.487 152.299 289.28C152.726 289.067 153.069 288.797 153.329 288.47C153.589 288.143 153.759 287.803 153.839 287.45C153.953 287.13 154.016 286.77 154.029 286.37C154.049 285.97 154.059 285.65 154.059 285.41L154.739 285.66C154.079 285.76 153.479 285.85 152.939 285.93C152.399 286.01 151.909 286.09 151.469 286.17C151.036 286.243 150.649 286.333 150.309 286.44C150.023 286.54 149.766 286.66 149.539 286.8C149.319 286.94 149.143 287.11 149.009 287.31C148.883 287.51 148.819 287.753 148.819 288.04C148.819 288.32 148.889 288.58 149.029 288.82C149.169 289.053 149.383 289.24 149.669 289.38C149.956 289.52 150.323 289.59 150.769 289.59ZM162.586 291.3C161.539 291.3 160.599 291.077 159.766 290.63C158.939 290.183 158.286 289.567 157.806 288.78L159.466 287.69C159.853 288.21 160.299 288.613 160.806 288.9C161.319 289.187 161.896 289.33 162.536 289.33C163.203 289.33 163.729 289.18 164.116 288.88C164.509 288.573 164.706 288.163 164.706 287.65C164.706 287.243 164.593 286.943 164.366 286.75C164.146 286.55 163.839 286.42 163.446 286.36C163.059 286.3 162.619 286.27 162.126 286.27H161.166V284.59H162.126C162.779 284.59 163.316 284.5 163.736 284.32C164.163 284.133 164.376 283.783 164.376 283.27C164.376 282.77 164.193 282.41 163.826 282.19C163.466 281.97 163.036 281.86 162.536 281.86C161.976 281.86 161.433 281.98 160.906 282.22C160.379 282.453 159.919 282.743 159.526 283.09L158.306 281.66C158.879 281.107 159.533 280.677 160.266 280.37C161.006 280.057 161.799 279.9 162.646 279.9C163.339 279.9 163.979 280.023 164.566 280.27C165.159 280.51 165.633 280.867 165.986 281.34C166.346 281.813 166.526 282.397 166.526 283.09C166.526 283.63 166.406 284.123 166.166 284.57C165.926 285.017 165.559 285.423 165.066 285.79L165.006 285.08C165.413 285.207 165.753 285.41 166.026 285.69C166.299 285.97 166.503 286.3 166.636 286.68C166.776 287.053 166.846 287.45 166.846 287.87C166.846 288.597 166.653 289.217 166.266 289.73C165.886 290.243 165.373 290.633 164.726 290.9C164.079 291.167 163.366 291.3 162.586 291.3ZM174.118 291.3C173.085 291.3 172.218 291.05 171.518 290.55C170.818 290.043 170.288 289.36 169.928 288.5C169.568 287.64 169.388 286.67 169.388 285.59C169.388 284.51 169.565 283.54 169.918 282.68C170.278 281.82 170.805 281.143 171.498 280.65C172.198 280.15 173.058 279.9 174.078 279.9C175.092 279.9 175.965 280.15 176.698 280.65C177.438 281.143 178.008 281.82 178.408 282.68C178.808 283.533 179.008 284.503 179.008 285.59C179.008 286.67 178.808 287.643 178.408 288.51C178.015 289.37 177.452 290.05 176.718 290.55C175.992 291.05 175.125 291.3 174.118 291.3ZM169.038 295.8V280.2H170.898V287.97H171.138V295.8H169.038ZM173.828 289.41C174.495 289.41 175.045 289.24 175.478 288.9C175.918 288.56 176.245 288.103 176.458 287.53C176.678 286.95 176.788 286.303 176.788 285.59C176.788 284.883 176.678 284.243 176.458 283.67C176.245 283.097 175.915 282.64 175.468 282.3C175.022 281.96 174.452 281.79 173.758 281.79C173.105 281.79 172.565 281.95 172.138 282.27C171.718 282.59 171.405 283.037 171.198 283.61C170.998 284.183 170.898 284.843 170.898 285.59C170.898 286.337 170.998 286.997 171.198 287.57C171.398 288.143 171.715 288.593 172.148 288.92C172.582 289.247 173.142 289.41 173.828 289.41ZM184.266 291.3C183.466 291.3 182.796 291.153 182.256 290.86C181.716 290.56 181.306 290.167 181.026 289.68C180.753 289.187 180.616 288.647 180.616 288.06C180.616 287.513 180.713 287.033 180.906 286.62C181.1 286.207 181.386 285.857 181.766 285.57C182.146 285.277 182.613 285.04 183.166 284.86C183.646 284.72 184.19 284.597 184.796 284.49C185.403 284.383 186.04 284.283 186.706 284.19C187.38 284.097 188.046 284.003 188.706 283.91L187.946 284.33C187.96 283.483 187.78 282.857 187.406 282.45C187.04 282.037 186.406 281.83 185.506 281.83C184.94 281.83 184.42 281.963 183.946 282.23C183.473 282.49 183.143 282.923 182.956 283.53L181.006 282.93C181.273 282.003 181.78 281.267 182.526 280.72C183.28 280.173 184.28 279.9 185.526 279.9C186.493 279.9 187.333 280.067 188.046 280.4C188.766 280.727 189.293 281.247 189.626 281.96C189.8 282.313 189.906 282.687 189.946 283.08C189.986 283.473 190.006 283.897 190.006 284.35V291H188.156V288.53L188.516 288.85C188.07 289.677 187.5 290.293 186.806 290.7C186.12 291.1 185.273 291.3 184.266 291.3ZM184.636 289.59C185.23 289.59 185.74 289.487 186.166 289.28C186.593 289.067 186.936 288.797 187.196 288.47C187.456 288.143 187.626 287.803 187.706 287.45C187.82 287.13 187.883 286.77 187.896 286.37C187.916 285.97 187.926 285.65 187.926 285.41L188.606 285.66C187.946 285.76 187.346 285.85 186.806 285.93C186.266 286.01 185.776 286.09 185.336 286.17C184.903 286.243 184.516 286.333 184.176 286.44C183.89 286.54 183.633 286.66 183.406 286.8C183.186 286.94 183.01 287.11 182.876 287.31C182.75 287.51 182.686 287.753 182.686 288.04C182.686 288.32 182.756 288.58 182.896 288.82C183.036 289.053 183.25 289.24 183.536 289.38C183.823 289.52 184.19 289.59 184.636 289.59ZM197.043 291.31C196.016 291.303 195.143 291.08 194.423 290.64C193.703 290.2 193.14 289.567 192.733 288.74C192.333 287.907 192.1 286.903 192.033 285.73C192 285.163 192.003 284.537 192.043 283.85C192.083 283.157 192.156 282.487 192.263 281.84C192.376 281.193 192.52 280.653 192.693 280.22C192.886 279.74 193.15 279.3 193.483 278.9C193.816 278.493 194.183 278.153 194.583 277.88C195.01 277.587 195.483 277.36 196.003 277.2C196.523 277.033 197.066 276.903 197.633 276.81C198.206 276.717 198.783 276.637 199.363 276.57C199.95 276.497 200.52 276.407 201.073 276.3L201.273 278.17C200.906 278.257 200.473 278.327 199.973 278.38C199.48 278.433 198.966 278.493 198.433 278.56C197.906 278.627 197.403 278.72 196.923 278.84C196.443 278.96 196.026 279.13 195.673 279.35C195.173 279.657 194.79 280.103 194.523 280.69C194.263 281.277 194.106 281.913 194.053 282.6C194.466 281.973 194.993 281.523 195.633 281.25C196.273 280.97 196.936 280.83 197.623 280.83C198.583 280.83 199.41 281.057 200.103 281.51C200.803 281.963 201.34 282.58 201.713 283.36C202.086 284.14 202.273 285.023 202.273 286.01C202.273 287.077 202.053 288.01 201.613 288.81C201.18 289.603 200.57 290.223 199.783 290.67C198.996 291.11 198.083 291.323 197.043 291.31ZM197.153 289.34C198.113 289.34 198.836 289.043 199.323 288.45C199.816 287.857 200.063 287.067 200.063 286.08C200.063 285.067 199.81 284.27 199.303 283.69C198.796 283.11 198.08 282.82 197.153 282.82C196.213 282.82 195.493 283.11 194.993 283.69C194.5 284.27 194.253 285.067 194.253 286.08C194.253 287.107 194.503 287.907 195.003 288.48C195.503 289.053 196.22 289.34 197.153 289.34ZM209.168 291.3C208.088 291.3 207.151 291.057 206.358 290.57C205.565 290.083 204.951 289.413 204.518 288.56C204.091 287.7 203.878 286.71 203.878 285.59C203.878 284.463 204.098 283.473 204.538 282.62C204.978 281.76 205.595 281.093 206.388 280.62C207.181 280.14 208.108 279.9 209.168 279.9C210.248 279.9 211.185 280.143 211.978 280.63C212.771 281.117 213.385 281.787 213.818 282.64C214.251 283.493 214.468 284.477 214.468 285.59C214.468 286.717 214.248 287.71 213.808 288.57C213.375 289.423 212.761 290.093 211.968 290.58C211.175 291.06 210.241 291.3 209.168 291.3ZM209.168 289.33C210.201 289.33 210.971 288.983 211.478 288.29C211.991 287.59 212.248 286.69 212.248 285.59C212.248 284.463 211.988 283.563 211.468 282.89C210.955 282.21 210.188 281.87 209.168 281.87C208.468 281.87 207.891 282.03 207.438 282.35C206.985 282.663 206.648 283.1 206.428 283.66C206.208 284.213 206.098 284.857 206.098 285.59C206.098 286.723 206.358 287.63 206.878 288.31C207.398 288.99 208.161 289.33 209.168 289.33ZM219.221 291V282.08H215.531V280.2H225.001V282.08H221.311V291H219.221ZM226.89 291L226.9 280.2H229.02V285.4L233.26 280.2H235.92L231.44 285.6L236.38 291H233.54L229.02 285.8V291H226.89ZM238.848 295.8L240.938 290.11L240.968 291.79L236.258 280.2H238.438L241.958 289.15H241.318L244.678 280.2H246.798L240.838 295.8H238.848ZM252.359 291L252.369 280.2H254.489V285.4L258.729 280.2H261.389L256.909 285.6L261.849 291H259.009L254.489 285.8V291H252.359ZM264.317 295.8L266.407 290.11L266.437 291.79L261.727 280.2H263.907L267.427 289.15H266.787L270.147 280.2H272.267L266.307 295.8H264.317ZM278.904 291.3C277.87 291.3 277.004 291.05 276.304 290.55C275.604 290.043 275.074 289.36 274.714 288.5C274.354 287.64 274.174 286.67 274.174 285.59C274.174 284.51 274.35 283.54 274.704 282.68C275.064 281.82 275.59 281.143 276.284 280.65C276.984 280.15 277.844 279.9 278.864 279.9C279.877 279.9 280.75 280.15 281.484 280.65C282.224 281.143 282.794 281.82 283.194 282.68C283.594 283.533 283.794 284.503 283.794 285.59C283.794 286.67 283.594 287.643 283.194 288.51C282.8 289.37 282.237 290.05 281.504 290.55C280.777 291.05 279.91 291.3 278.904 291.3ZM273.824 295.8V280.2H275.684V287.97H275.924V295.8H273.824ZM278.614 289.41C279.28 289.41 279.83 289.24 280.264 288.9C280.704 288.56 281.03 288.103 281.244 287.53C281.464 286.95 281.574 286.303 281.574 285.59C281.574 284.883 281.464 284.243 281.244 283.67C281.03 283.097 280.7 282.64 280.254 282.3C279.807 281.96 279.237 281.79 278.544 281.79C277.89 281.79 277.35 281.95 276.924 282.27C276.504 282.59 276.19 283.037 275.984 283.61C275.784 284.183 275.684 284.843 275.684 285.59C275.684 286.337 275.784 286.997 275.984 287.57C276.184 288.143 276.5 288.593 276.934 288.92C277.367 289.247 277.927 289.41 278.614 289.41ZM290.622 291.3C289.515 291.3 288.575 291.053 287.802 290.56C287.028 290.067 286.435 289.39 286.022 288.53C285.615 287.67 285.408 286.693 285.402 285.6C285.408 284.487 285.622 283.503 286.042 282.65C286.462 281.79 287.062 281.117 287.842 280.63C288.622 280.143 289.558 279.9 290.652 279.9C291.832 279.9 292.838 280.193 293.672 280.78C294.512 281.367 295.065 282.17 295.332 283.19L293.252 283.79C293.045 283.183 292.705 282.713 292.232 282.38C291.765 282.04 291.228 281.87 290.622 281.87C289.935 281.87 289.372 282.033 288.932 282.36C288.492 282.68 288.165 283.12 287.952 283.68C287.738 284.24 287.628 284.88 287.622 285.6C287.628 286.713 287.882 287.613 288.382 288.3C288.888 288.987 289.635 289.33 290.622 289.33C291.295 289.33 291.838 289.177 292.252 288.87C292.672 288.557 292.992 288.11 293.212 287.53L295.332 288.03C294.978 289.083 294.395 289.893 293.582 290.46C292.768 291.02 291.782 291.3 290.622 291.3ZM300.282 291.3C299.482 291.3 298.812 291.153 298.272 290.86C297.732 290.56 297.322 290.167 297.042 289.68C296.769 289.187 296.632 288.647 296.632 288.06C296.632 287.513 296.729 287.033 296.922 286.62C297.115 286.207 297.402 285.857 297.782 285.57C298.162 285.277 298.629 285.04 299.182 284.86C299.662 284.72 300.205 284.597 300.812 284.49C301.419 284.383 302.055 284.283 302.722 284.19C303.395 284.097 304.062 284.003 304.722 283.91L303.962 284.33C303.975 283.483 303.795 282.857 303.422 282.45C303.055 282.037 302.422 281.83 301.522 281.83C300.955 281.83 300.435 281.963 299.962 282.23C299.489 282.49 299.159 282.923 298.972 283.53L297.022 282.93C297.289 282.003 297.795 281.267 298.542 280.72C299.295 280.173 300.295 279.9 301.542 279.9C302.509 279.9 303.349 280.067 304.062 280.4C304.782 280.727 305.309 281.247 305.642 281.96C305.815 282.313 305.922 282.687 305.962 283.08C306.002 283.473 306.022 283.897 306.022 284.35V291H304.172V288.53L304.532 288.85C304.085 289.677 303.515 290.293 302.822 290.7C302.135 291.1 301.289 291.3 300.282 291.3ZM300.652 289.59C301.245 289.59 301.755 289.487 302.182 289.28C302.609 289.067 302.952 288.797 303.212 288.47C303.472 288.143 303.642 287.803 303.722 287.45C303.835 287.13 303.899 286.77 303.912 286.37C303.932 285.97 303.942 285.65 303.942 285.41L304.622 285.66C303.962 285.76 303.362 285.85 302.822 285.93C302.282 286.01 301.792 286.09 301.352 286.17C300.919 286.243 300.532 286.333 300.192 286.44C299.905 286.54 299.649 286.66 299.422 286.8C299.202 286.94 299.025 287.11 298.892 287.31C298.765 287.51 298.702 287.753 298.702 288.04C298.702 288.32 298.772 288.58 298.912 288.82C299.052 289.053 299.265 289.24 299.552 289.38C299.839 289.52 300.205 289.59 300.652 289.59Z" fill="black"/>
<path d="M212.417 129.083H226.584" stroke="black" stroke-width="2" stroke-linecap="round" stroke-linejoin="round"/>
<path d="M219.5 171.584V157.417" stroke="black" stroke-width="2" stroke-linecap="round" stroke-linejoin="round"/>
<path d="M191.167 168.042C192.034 161.156 195.398 154.829 200.621 150.259C205.843 145.69 212.561 143.195 219.5 143.25C224.083 143.255 228.597 144.371 232.654 146.504C236.71 148.636 240.189 151.721 242.792 155.494C245.394 159.266 247.043 163.613 247.596 168.163C248.15 172.713 247.591 177.328 245.968 181.615C244.346 185.901 241.707 189.729 238.28 192.772C234.853 195.815 230.738 197.98 226.29 199.084C221.842 200.187 217.192 200.194 212.74 199.106C208.288 198.017 204.167 195.865 200.729 192.833L191.167 184.333" stroke="black" stroke-width="2" stroke-linecap="round" stroke-linejoin="round"/>
<path d="M208.875 182.208H191.167V199.916" stroke="black" stroke-width="3" stroke-linecap="round" stroke-linejoin="round"/>
<g filter="url(#filter0_f_585_6748)">
<path d="M143.5 209.5C130.3 224.3 92.3333 224.333 75 222.5L70 193L83.5 156C88.1667 145.833 98.1 124.3 100.5 119.5C102.9 114.7 126.833 101.167 138.5 95L182.5 78.5L233.5 70.5L266.5 78.5V112H233.5L198 131.5L182.5 162C175 171.667 156.7 194.7 143.5 209.5Z" fill="#7A5CFA" fill-opacity="0.5" style="mix-blend-mode:plus-lighter"/>
<path d="M143.5 347L124.5 310.5H332.5L319.5 323.5L297 347L233.5 364.5H187.5L143.5 347Z" fill="#7A5CFA" fill-opacity="0.5" style="mix-blend-mode:plus-lighter"/>
<path d="M286.5 193L274.5 131.5H297H309L324.5 143C327.167 147.333 333.4 156.6 337 159C340.6 161.4 345.833 169.667 348 173.5L355 186L365.5 209.5V242C361 244.333 348.1 247.6 332.5 242C316.9 236.4 310.333 226.667 309 222.5L286.5 193Z" fill="#7A5CFA" fill-opacity="0.5" style="mix-blend-mode:plus-lighter"/>
</g>
<defs>
<filter id="filter0_f_585_6748" x="0" y="0.5" width="435.5" height="434" filterUnits="userSpaceOnUse" color-interpolation-filters="sRGB">
<feFlood flood-opacity="0" result="BackgroundImageFix"/>
<feBlend mode="normal" in="SourceGraphic" in2="BackgroundImageFix" result="shape"/>
<feGaussianBlur stdDeviation="35" result="effect1_foregroundBlur_585_6748"/>
</filter>
</defs>
</svg>
