<svg width="27" height="27" viewBox="0 0 27 27" fill="none" xmlns="http://www.w3.org/2000/svg">
<path d="M7.88281 13.5001C7.88281 13.2763 7.97171 13.0617 8.12994 12.9034C8.28817 12.7452 8.50279 12.6563 8.72656 12.6563H12.6562V8.72668C12.6562 8.50291 12.7451 8.2883 12.9033 8.13006C13.0616 7.97183 13.2762 7.88293 13.4999 7.88293C13.7237 7.88293 13.9383 7.97183 14.0966 8.13006C14.2548 8.2883 14.3437 8.50291 14.3437 8.72668V12.6563H18.2733C18.4971 12.6563 18.7117 12.7452 18.8699 12.9034C19.0282 13.0617 19.1171 13.2763 19.1171 13.5001C19.1171 13.7238 19.0282 13.9384 18.8699 14.0967C18.7117 14.2549 18.4971 14.3438 18.2733 14.3438H14.3437V18.2734C14.3437 18.4972 14.2548 18.7118 14.0966 18.8701C13.9383 19.0283 13.7237 19.1172 13.4999 19.1172C13.2762 19.1172 13.0616 19.0283 12.9033 18.8701C12.7451 18.7118 12.6562 18.4972 12.6562 18.2734V14.3438H8.72656C8.50279 14.3438 8.28817 14.2549 8.12994 14.0967C7.97171 13.9384 7.88281 13.7238 7.88281 13.5001Z" fill="#7A5CFA"/>
<path fill-rule="evenodd" clip-rule="evenodd" d="M8.23211 4.24012C11.7336 3.85193 15.2673 3.85193 18.7689 4.24012C20.8242 4.46962 22.4836 6.08849 22.7244 8.15512C23.1406 11.7067 23.1406 15.2944 22.7244 18.846C22.4825 20.9126 20.8231 22.5304 18.7689 22.761C15.2673 23.1492 11.7336 23.1492 8.23211 22.761C6.17673 22.5304 4.51736 20.9126 4.27661 18.846C3.86222 15.2944 3.86222 11.7067 4.27661 8.15512C4.51736 6.08849 6.17786 4.46962 8.23211 4.24012ZM18.5821 5.91637C15.2047 5.542 11.7963 5.542 8.41886 5.91637C7.79363 5.98573 7.21005 6.26385 6.76238 6.7058C6.31472 7.14775 6.02912 7.72771 5.95173 8.35199C5.55161 11.7731 5.55161 15.2292 5.95173 18.6502C6.02936 19.2743 6.31506 19.854 6.7627 20.2957C7.21035 20.7375 7.7938 21.0154 8.41886 21.0847C11.768 21.4582 15.233 21.4582 18.5821 21.0847C19.207 21.0152 19.7902 20.7371 20.2376 20.2954C20.685 19.8537 20.9705 19.2742 21.0481 18.6502C21.4482 15.2292 21.4482 11.7731 21.0481 8.35199C20.9703 7.72828 20.6847 7.14897 20.2373 6.70749C19.7899 6.26602 19.2068 5.98812 18.5821 5.91862" fill="#7A5CFA"/>
</svg>
