<svg width="155" height="154" viewBox="0 0 155 154" fill="none" xmlns="http://www.w3.org/2000/svg">
<path d="M77.5 134.75C66.8868 134.75 58.25 126.113 58.25 115.5L58.5901 95.9099L39.1155 96.25C28.3868 96.25 19.75 87.6132 19.75 77C19.75 66.3868 28.3868 57.75 39 57.75L58.5901 57.4035L58.25 38.6155C58.25 27.8868 66.8868 19.25 77.5 19.25C88.1132 19.25 96.75 27.8868 96.75 38.5L97.1029 57.4035L116.115 57.75C126.613 57.75 135.25 66.3868 135.25 77C135.25 87.6132 126.613 96.25 116 96.25L97.1029 95.9099L96.75 115.615C96.75 126.113 88.1132 134.75 77.5 134.75ZM71.0833 83.4167V115.615C71.0833 119.036 73.9644 121.917 77.5 121.917C81.0356 121.917 83.9167 119.036 83.9167 115.5V83.4167H116.115C119.536 83.4167 122.417 80.5356 122.417 77C122.417 73.4644 119.536 70.5833 116 70.5833H83.9167V38.5C83.9167 34.8489 81.0356 32.0833 77.5 32.0833C73.9644 32.0833 71.0833 34.9644 71.0833 38.5V70.5833H39C35.3489 70.5833 32.5833 73.4644 32.5833 77C32.5833 80.5356 35.4644 83.4167 39 83.4167H71.0833Z" fill="black"/>
</svg>
