<svg width="35" height="35" viewBox="0 0 35 35" fill="none" xmlns="http://www.w3.org/2000/svg">
<rect x="0.5" y="0.5" width="34" height="34" rx="4.5" stroke="#7A5CFA"/>
<path d="M17.9998 18.4L13.0998 23.3C12.9165 23.4834 12.6831 23.575 12.3998 23.575C12.1165 23.575 11.8831 23.4834 11.6998 23.3C11.5165 23.1167 11.4248 22.8834 11.4248 22.6C11.4248 22.3167 11.5165 22.0834 11.6998 21.9L16.5998 17L11.6998 12.1C11.5165 11.9167 11.4248 11.6834 11.4248 11.4C11.4248 11.1167 11.5165 10.8834 11.6998 10.7C11.8831 10.5167 12.1165 10.425 12.3998 10.425C12.6831 10.425 12.9165 10.5167 13.0998 10.7L17.9998 15.6L22.8998 10.7C23.0831 10.5167 23.3165 10.425 23.5998 10.425C23.8831 10.425 24.1165 10.5167 24.2998 10.7C24.4831 10.8834 24.5748 11.1167 24.5748 11.4C24.5748 11.6834 24.4831 11.9167 24.2998 12.1L19.3998 17L24.2998 21.9C24.4831 22.0834 24.5748 22.3167 24.5748 22.6C24.5748 22.8834 24.4831 23.1167 24.2998 23.3C24.1165 23.4834 23.8831 23.575 23.5998 23.575C23.3165 23.575 23.0831 23.4834 22.8998 23.3L17.9998 18.4Z" fill="#7A5CFA"/>
</svg>
