<svg width="424" height="88" viewBox="0 0 424 88" fill="none" xmlns="http://www.w3.org/2000/svg">
<g clip-path="url(#clip0_2212_59)">
<path d="M123.256 0.5H380.614C404.293 0.500167 423.5 19.9691 423.5 44C423.5 68.0309 404.293 87.4998 380.614 87.5H123.256C113.895 87.5 105.237 84.4583 98.1855 79.2959C94.4932 76.5927 88.8776 75.2735 83.3213 75.2734C77.7648 75.2734 72.1485 76.5925 68.4561 79.2959C61.4049 84.4583 52.7461 87.5 43.3857 87.5C19.7072 87.4998 0.5 68.0309 0.5 44C0.5 19.9691 19.7072 0.500167 43.3857 0.5C52.7463 0.5 61.4057 3.54154 68.457 8.7041C72.1494 11.4074 77.7651 12.7275 83.3213 12.7275C88.8773 12.7275 94.4923 11.4072 98.1846 8.7041C105.236 3.54154 113.895 0.5 123.256 0.5Z" fill="#141414"/>
<path d="M123.256 0.5H380.614C404.293 0.500167 423.5 19.9691 423.5 44C423.5 68.0309 404.293 87.4998 380.614 87.5H123.256C113.895 87.5 105.237 84.4583 98.1855 79.2959C94.4932 76.5927 88.8776 75.2735 83.3213 75.2734C77.7648 75.2734 72.1485 76.5925 68.4561 79.2959C61.4049 84.4583 52.7461 87.5 43.3857 87.5C19.7072 87.4998 0.5 68.0309 0.5 44C0.5 19.9691 19.7072 0.500167 43.3857 0.5C52.7463 0.5 61.4057 3.54154 68.457 8.7041C72.1494 11.4074 77.7651 12.7275 83.3213 12.7275C88.8773 12.7275 94.4923 11.4072 98.1846 8.7041C105.236 3.54154 113.895 0.5 123.256 0.5Z" fill="#C6F135" fill-opacity="0.03"/>
<path d="M123.256 0.5H380.614C404.293 0.500167 423.5 19.9691 423.5 44C423.5 68.0309 404.293 87.4998 380.614 87.5H123.256C113.895 87.5 105.237 84.4583 98.1855 79.2959C94.4932 76.5927 88.8776 75.2735 83.3213 75.2734C77.7648 75.2734 72.1485 76.5925 68.4561 79.2959C61.4049 84.4583 52.7461 87.5 43.3857 87.5C19.7072 87.4998 0.5 68.0309 0.5 44C0.5 19.9691 19.7072 0.500167 43.3857 0.5C52.7463 0.5 61.4057 3.54154 68.457 8.7041C72.1494 11.4074 77.7651 12.7275 83.3213 12.7275C88.8773 12.7275 94.4923 11.4072 98.1846 8.7041C105.236 3.54154 113.895 0.5 123.256 0.5Z" stroke="#C6F135"/>
</g>
<defs>
<clipPath id="clip0_2212_59">
<rect width="424" height="88" fill="white"/>
</clipPath>
</defs>
</svg>
