<svg width="56" height="56" viewBox="0 0 56 56" fill="none" xmlns="http://www.w3.org/2000/svg">
<path d="M21.2497 12.712C22.645 8.62866 28.287 8.505 29.9413 12.341L30.0813 12.7143L31.9643 18.221C32.3959 19.4839 33.0932 20.6395 34.0093 21.61C34.9255 22.5804 36.0391 23.3432 37.275 23.8467L37.7813 24.0357L43.288 25.9163C47.3713 27.3117 47.495 32.9537 43.6613 34.608L43.288 34.748L37.7813 36.631C36.518 37.0622 35.3619 37.7595 34.391 38.6756C33.4202 39.5917 32.6571 40.7055 32.1533 41.9417L31.9643 42.4457L30.0837 47.9547C28.6883 52.038 23.0463 52.1617 21.3943 48.328L21.2497 47.9547L19.369 42.448C18.9378 41.1847 18.2405 40.0286 17.3244 39.0577C16.4083 38.0868 15.2945 37.3238 14.0583 36.82L13.5543 36.631L8.04767 34.7503C3.962 33.355 3.83833 27.713 7.67433 26.061L8.04767 25.9163L13.5543 24.0357C14.8172 23.6041 15.9729 22.9068 16.9433 21.9907C17.9138 21.0745 18.6765 19.9609 19.18 18.725L19.369 18.221L21.2497 12.712ZM25.6667 14.2193L23.786 19.726C23.1289 21.6517 22.06 23.411 20.6536 24.8815C19.2472 26.3519 17.5372 27.4982 15.6427 28.2403L15.0593 28.4527L9.55267 30.3333L15.0593 32.214C16.985 32.8711 18.7444 33.94 20.2148 35.3464C21.6853 36.7528 22.8315 38.4628 23.5737 40.3573L23.786 40.9407L25.6667 46.4473L27.5473 40.9407C28.2044 39.015 29.2734 37.2556 30.6798 35.7852C32.0861 34.3147 33.7961 33.1685 35.6907 32.4263L36.274 32.2163L41.7807 30.3333L36.274 28.4527C34.3483 27.7956 32.589 26.7266 31.1185 25.3202C29.6481 23.9139 28.5018 22.2039 27.7597 20.3093L27.5497 19.726L25.6667 14.2193ZM44.3333 4.66666C44.7699 4.66666 45.1976 4.78911 45.568 5.0201C45.9384 5.25108 46.2366 5.58134 46.4287 5.97333L46.5407 6.24633L47.3573 8.64033L49.7537 9.457C50.1911 9.60562 50.5746 9.88077 50.8555 10.2476C51.1365 10.6144 51.3022 11.0563 51.3316 11.5174C51.3611 11.9785 51.2531 12.4379 51.0212 12.8375C50.7893 13.2371 50.444 13.5589 50.029 13.762L49.7537 13.874L47.3597 14.6907L46.543 17.087C46.3941 17.5243 46.1188 17.9076 45.7518 18.1883C45.3849 18.469 44.9429 18.6344 44.4818 18.6637C44.0208 18.6929 43.5614 18.5846 43.162 18.3525C42.7625 18.1205 42.4409 17.775 42.238 17.36L42.126 17.087L41.3093 14.693L38.913 13.8763C38.4755 13.7277 38.0921 13.4526 37.8111 13.0858C37.5302 12.719 37.3645 12.277 37.335 11.8159C37.3055 11.3549 37.4136 10.8954 37.6455 10.4958C37.8774 10.0962 38.2227 9.77447 38.6377 9.57133L38.913 9.45933L41.307 8.64266L42.1237 6.24633C42.281 5.78532 42.5787 5.38512 42.975 5.10183C43.3712 4.81854 43.8462 4.66637 44.3333 4.66666Z" fill="black"/>
</svg>
