<svg width="56" height="56" viewBox="0 0 56 56" fill="none" xmlns="http://www.w3.org/2000/svg">
<path d="M19.25 42H36.75V45.5H19.25V42ZM22.75 49H33.25V52.5H22.75V49ZM28 3.5C23.3588 3.5 18.9076 5.34374 15.6257 8.62563C12.3438 11.9075 10.5001 16.3587 10.5001 21C10.3817 23.5433 10.8689 26.0784 11.9216 28.3967C12.9742 30.715 14.5623 32.7503 16.555 34.335C18.305 35.9625 19.25 36.89 19.25 38.5H22.75C22.75 35.28 20.8076 33.4775 18.9176 31.745C17.2819 30.4925 15.9784 28.858 15.1211 26.9847C14.2638 25.1115 13.8788 23.0566 14.0001 21C14.0001 17.287 15.475 13.726 18.1006 11.1005C20.7261 8.475 24.287 7 28 7C31.7131 7 35.274 8.475 37.8995 11.1005C40.5251 13.726 42 17.287 42 21C42.1192 23.0581 41.7316 25.1139 40.8712 26.9873C40.0108 28.8607 38.7039 30.4944 37.065 31.745C35.1925 33.495 33.25 35.245 33.25 38.5H36.75C36.75 36.89 37.6775 35.9625 39.445 34.3175C41.4364 32.7355 43.0238 30.7032 44.0764 28.388C45.1291 26.0727 45.617 23.5406 45.5 21C45.5 18.7019 45.0474 16.4262 44.1679 14.303C43.2885 12.1798 41.9994 10.2507 40.3744 8.62563C38.7494 7.00061 36.8202 5.71157 34.697 4.83211C32.5738 3.95265 30.2982 3.5 28 3.5Z" fill="black"/>
</svg>
