<svg width="56" height="56" viewBox="0 0 56 56" fill="none" xmlns="http://www.w3.org/2000/svg">
<path d="M32.6666 28H46.6666M32.6666 37.3333H46.6666M32.6666 46.6667H46.6666M9.33325 11.6667C9.33325 11.0478 9.57909 10.4543 10.0167 10.0168C10.4543 9.57917 11.0477 9.33333 11.6666 9.33333H44.3333C44.9521 9.33333 45.5456 9.57917 45.9832 10.0168C46.4208 10.4543 46.6666 11.0478 46.6666 11.6667V16.3333C46.6666 16.9522 46.4208 17.5457 45.9832 17.9832C45.5456 18.4208 44.9521 18.6667 44.3333 18.6667H11.6666C11.0477 18.6667 10.4543 18.4208 10.0167 17.9832C9.57909 17.5457 9.33325 16.9522 9.33325 16.3333V11.6667ZM9.33325 30.3333C9.33325 29.7145 9.57909 29.121 10.0167 28.6834C10.4543 28.2458 11.0477 28 11.6666 28H20.9999C21.6188 28 22.2123 28.2458 22.6498 28.6834C23.0874 29.121 23.3333 29.7145 23.3333 30.3333V44.3333C23.3333 44.9522 23.0874 45.5457 22.6498 45.9833C22.2123 46.4208 21.6188 46.6667 20.9999 46.6667H11.6666C11.0477 46.6667 10.4543 46.4208 10.0167 45.9833C9.57909 45.5457 9.33325 44.9522 9.33325 44.3333V30.3333Z" stroke="black" stroke-width="3" stroke-linecap="round" stroke-linejoin="round"/>
</svg>
